<svg xmlns="http://www.w3.org/2000/svg" viewBox="0 0 200 200" height="400" width="400"><title>Social-media-Lots-of-followers-post-engagement</title><path d="M184.184,88.759c12.023,7.529,10.557,8.2,7.165,14.8-.011.021-1.259,2.241-1.272,2.263-5.685,9.494-5.631,9.888-8.26,11.4-3.643,2.095-10.468-5.141-12.182-4.139a14.869,14.869,0,0,0-1.922,1.174c-.137.148-.383.19-.553.314-2.255,1.641-7.638,6.407-7.912,4.235-.35-2.773-.3-2.5-.2-2.5,0-4.549.164-2.681.183-5.518,0-.547,0-.793.218-.965-.329-.059.051-.605,0-1-.075-.579.439-.494-.435-2.283-.367-.751-5.083-3.111-5.745-3.623-2.685-2.075-5.227-3.415-2.276-8.932,1.048-1.96,7.084-12.789,8.809-14.595a4.918,4.918,0,0,1,3.825-1.192C165.862,78.2,182.75,87.86,184.184,88.759Z" fill="#e7e7de"></path><path d="M179.74,94.791c2.47,2.615,1.7,5.971.739,6.86-2.857,2.645-4.869,1.783-9.611,2.806-4.852,1.046-3.091,2.481-5.085-2.843a1.661,1.661,0,0,1-.111-.305c-.187-1.272-1.718-4.553-2.056-5.638-2.12-6.8,8.236-8.5,9.123-3.438.243,1.383.192,1.226.091,1.24.117,2.2.884,1.581,2.628.592A3.978,3.978,0,0,1,179.74,94.791Z" fill="#111010"></path><path d="M170.38,39.561c1.016,1.438,1.613,1.524-1.215,9.118,0,.022-2.076,5.165-2.084,5.189-.774,1.767-1.281,3.474-3.074,4.524a2.365,2.365,0,0,1-1.719.371c-9.315-1.7-6.055-4.5-10.964.218a30.493,30.493,0,0,1-3.719,3.485c-.326.275-.616.314-.773-.087-.54-1.134-.927-5.368-1.039-6.629-.253-2.852.15-3.028-2.494-3.865a27.31,27.31,0,0,1-5.364-2.361c-1.6-1.209-1.6-2.148-1.553-3A9.356,9.356,0,0,1,137,43.641c6.09-15.7,3.749-15.747,16.014-11.763,4.1,1.331,5.519,1.978,10.794,4.067C164.491,36.214,169.707,38.609,170.38,39.561Z" fill="#e7e7de"></path><path d="M160.413,41.254a4.236,4.236,0,0,1,.92,4.616c-.856,1.54-2.2,2.061-4.192,2.641-6.919,2.015-5.367,3.412-6.764.8-3.228-6.045-3.6-5.84-3.666-7.48-.182-4.254,6.629-5.958,7.426-1.466.58,3.267,1.568-.609,4.246-.133A2.637,2.637,0,0,1,160.413,41.254Z" fill="#111010"></path><path d="M131.7,82.381c-.49-2.269-.977-6.256-1.479-8.421-13.939-60.022-15.214-49.934-25.166-49.909-5.1.012-46.733,5.837-52.85,11.393-2.767,2.513-2.945,4.792-2.716,8.465.016.258,5.5,28.157,5.534,28.257.455,1.2-1.585-1.684,23.911,101.451,3.957,16.01,7.746,12.933,22.22,10.4,10.277-1.8,11.125-2.131,13.672-2.784,3.049-.782,29.291-5.047,32.7-9.929.388-.556,1.743-2.706,1.719-2.776-.105-.527.565-1.933.257-4.292-.694-5.318-7.834-38.708-7.988-39.867-.292-1.42-1.408-4.829-1.541-5.62-1.694-10.116-4.026-15.031-4.831-20.913-.147-1.067-.273-.479-.5-1.86C133.154,87.075,133.6,91.2,131.7,82.381Zm19.013,75.327c.532,1.4,1.886,8.313,1.15,10.718-1.805,5.9-2.883,10.274-55.248,19.143-8.413,1.425-12.507,2.027-15.125.392-1.845-1.152-4.114-3.508-4.738-5.709-7.51-26.5-31.939-132.329-31.6-140.594.2-4.861,3.129-8.264,7.465-10.485,7.545-3.864,48.109-10.356,53.119-10.356,15.469-.9,14.593-4.029,26.813,52.357,2.346,10.824,1.513,13.8,12.13,56.292,1.494,5.98,1.507,7.52,2.071,9.844C150.988,156.76,149.857,155.454,150.715,157.708Z" fill="#111213"></path><path d="M144.3,144.121c3.65,19.172,6.252,21.1,2.286,26.519-2.517,3.441-22.475,7.708-26.359,8.424-31.692,5.838-35.579,9.729-38.826-1.209a41.874,41.874,0,0,1-1.545-5.161c-.506-2.3-.768-2.193-1.525-5.57-.582-2.6-.329-2.026-1.239-6.133-.721-3.252-1.208-2.919-1.558-5.387-.2-1.41-2.832-11.559-3.128-12.6,2.051-.423,42.109-8.832,43.266-9.013,2-.312,1.836-.947,4.869-1.577.871-.181,1.742-.293,2.6-.472.9-.189,1.785-.439,2.683-.632,1.772-.381,4.045-.72,5.385-1.17,3.074-1.032,5.446-.764,7.314-1.588.736-.325,1.546-.333,2.3-.6a.183.183,0,0,1,.259.185c.063,1.056.527,2.024.686,3.061.079.514.336,1.771.359,1.858A101.387,101.387,0,0,1,144.3,144.121Z" fill="#e7e7de"></path><path d="M140.653,126.049c.278,1.256.28.354-3.627,1.813-1.014.378-.244-.3-6.594,1.281-2.473.616-4.246.8-5.7,1.226-2.845.843-5.011.637-7.562,1.961-1.165.6-3.293.746-5.01,1.117-2.074.448-1.686.672-4.243,1.059-4.178.632-16.579,3.46-18.9,4.006a155.843,155.843,0,0,0-16.733,3.527c-7.328-35.437-9.423-31.761-4.877-32.485,4.185-.666,1.936-.34,4.051-.457.138,0-.342.069,4.782-.565a3.047,3.047,0,0,1,1.793.292,9.145,9.145,0,0,0,.512,3.771c.15.58.361.512.939.564,1.089,4.357,1.368,3.368,2.067,3.368,2.362,5.069,4.183,5.716,4.647,7.494a9.774,9.774,0,0,1,.579,2.24c.033,1.346-.608,2.231,0,3.605a2.582,2.582,0,0,0,2.967,1.5c.278.219.632.131.937.231.782.257.834-.22,1.507-.153,2.236.224,1.43.032,2.852-.231,1.261-.232,1.19-.944,1.51-.152a2.443,2.443,0,0,0,1.045,1.2c1.815.571,1.6.039,2.747.04,1.841,0,1.9-.885,2.224-.737a1.364,1.364,0,0,0,1.257-.309c1.164-1.092,1.705.163,2.164-1.366.052-.176-.04-.653.392-.653,1.063,0,1.213-.682,1.542-.436a1.406,1.406,0,0,0,1.765-.29c.188-.217.346-.453.52-.686a2.87,2.87,0,0,0,1.059.174c1.24-.146,1.643-1.119,2.126-2.093.307-.619.945.3,1.7-1.074.11-.2.126-.589.78-.523,1.525.154,1.242-2.33,2.006-2.5.436-.1.593-1.071.678-1.308,1.033-2.9.5-3.089.984-3.755a5.231,5.231,0,0,0,.349-1.976c.185-1.723-.289-1.438-.288-2.49a3.568,3.568,0,0,0-.764-2.56c-.385-.652-.3-2.009-1.867-2.381-.769-.182-.4-1.5-2.094-1.614.666-2.337-3.161-1.463,10.209-3.037,2.036-.239-1.672-.16,9.275-.895.588-.039.231.015.957,2.327,2.244,7.149,2.288,10.61,4.45,18.129A20.867,20.867,0,0,1,140.653,126.049Z" fill="#1dd013"></path><path d="M133.817,97.414a21.316,21.316,0,0,1,.653,3.413c-7.842.824-1.905-.259-18.893,2.063-1.294.177-.8.606-1.434-1.172-.577-1.618-.507-.574-.958-2.22a17.641,17.641,0,0,0-1.632-3.99c-.366-.578-.353-.955-.584-2.634l.336.148c1.126.484.61-1.8.277-3.318,1.418.314,1.119-.366.313-3.9.654.395.724.525.97.358a.549.549,0,0,0,.255-.634,14.65,14.65,0,0,0-.545-1.961c-1.328-3.779-1.977-3.833-1.688-4.649a53.637,53.637,0,0,0,2.769-6.838c.237-.976.055-1.221.516-1.307,4.928-.919,9.8-1.307,13.613-2.076,1.96,7.612,2.648,15.093,4.609,21.46C133.238,92.892,133.369,96.24,133.817,97.414Z" fill="#1dd013"></path><path d="M127.266,66.639c.216,1.09.314,1.131-.019,1.192-8.013,1.454-7.041.806-13.4,2.143A2.754,2.754,0,0,0,113,67.637a3.24,3.24,0,0,0-2.081-.565,20.016,20.016,0,0,0-3.88.3c-.719.115-.851.582-2.08.708-3.244.333-3.065,1.673-4.542.906a3.738,3.738,0,0,0-1.292-.536,7.071,7.071,0,0,1-2.08-.5c-.4-.243-.562-.175-1.961-.288-.5-.041-.743-.624-2.272-.078-.913.326-.46-.293-1.926.122-1.424.4-.959.647-1.405.25-.5-.443-1.649.274-1.941.547-.5.464-.929-1.27-7.243-3.05a2.755,2.755,0,0,0-3.5,2.329c-.218,3.267.08,3.9,1.148,7.794-1.765.275-1.682.42-3.7.691-4.684.626.841-.216-7.159,1.067-4.487.72-5.834.561-6.33.723-1.214.4-1.867.338-3.05.708a22.172,22.172,0,0,1-.534-2.452c-1.051-4.436-.645-1.055-2.536-12.431-.043-.263.035-.394.308-.383.344.014,11.523-2.619,13.846-2.806a6.107,6.107,0,0,0,1.742-.379,1.371,1.371,0,0,1,.475-.1c2.362-.028,3.251-.823,9.522-2.111,1.7-.35,1.02-.124,3.5-.669,3.533-.775,3.032-.734,4.671-.8,1.742-.068,2.614-.775,5.01-1.066,4.22-.512,10.655-2.143,14.047-2.93.217-.05,6.217-.96,6.239-.965a22.849,22.849,0,0,1,3.96-.84c6.342-.453,4.963-3.09,6,1.191,0,.022,1.3,4.741,1.525,6.479a22.537,22.537,0,0,1,1.2,4.954,8.712,8.712,0,0,0,.255,1.161C127.116,65.269,127.132,65.96,127.266,66.639Z" fill="#111213"></path><path d="M122.931,48.147c.187.673-.189.075-2.178,1.007a39.67,39.67,0,0,1-3.921.653c-1.09.1-2.4.638-3.111.706a72.6,72.6,0,0,0-10.875,2.155,9.144,9.144,0,0,0-2.326.429c-3.6.885-3.133.545-5.677,1.056-5.817,1.169-5.447,1.475-7.15,1.362-.144.024-10.324,2.054-11.045,2.259C68.505,60.086,67,59.461,58.162,61.627a17.618,17.618,0,0,0-2.832.817,1.475,1.475,0,0,0-.667.12c-.328.206-.35-.216-.858-2.978-1.119-6.089-3.1-12.735-3.324-17.493a6.865,6.865,0,0,1,2.866-6.114c6.259-4.63,41.341-10.933,54.9-12.07,4.444-.373,5.577-.4,7.08,1.377C118.487,29.022,120.393,39.014,122.931,48.147Z" fill="#e7e7de"></path><path d="M118.252,117c.238.995-.163.573-.17,1.56,0,.792-.2.451-.4,1.307-.1.411-.1,1.128-.715,1.041-.533-.076-.129.541-.886,2.178-.258.558-1.237-.6-1.543.338a3.034,3.034,0,0,1-.59,1.224c-.612-.159-1-.372-1.242.2-1.821,4.223-1.885.88-2.877,1.454-.274.158-.27.507-.619,1.153-.236.437-.659.764-.741.273-.051-.309-.12-.784-.451-.748-.435.049-.413.218-.472.4-.32.985-1.425.985-1.419.8.064-1.8-1.19-2.757-.435-3.951.319-.5.088-1.246.653-1.641.713-.5.408-2.034.852-2.289.584-.335.364-1.659.8-2.7.315-.751-.521-1.242-.756-.719a5.118,5.118,0,0,0-.538,2.191c-.087.678-.538.175-.606.713-.175,1.375-.156,1.306-.218,1.605-.163.781-.545.34-.747,1.066-.831,2.975-1.009,2.079-.113,4.751.2.612.189,3.052-.3,2.5-.558-.633-.3-1.07-.821-1.109-.436-.032-.446.233-.338.9.136.832-.651,1.356-.941.911-.262-.4-.383-1.327-.819-1.181-.614.205-.276.884-.268,1.048.048.96-.1.845-1.037,1.071-.237-1.021-.282-1.963-1-1.805-.4.087-.13.816-.122,1.241.014.676-.019.678-.7.684a1.336,1.336,0,0,1-1.272-.838c-.855-1.457-.041-1.376-.493-2.357-.384-.834.085-1.56.029-2.815-.044-.978.343-1.645-.277-2.091-.2-.148-.27-1,.133-1.743a3.132,3.132,0,0,0,.54-1.279c.128-1.25-1.341.914-.172-4.043.022-.094.715-2.833.813-2.969.5-.687,0-.958.259-1.307.7-.945.981-.693,1.178-1.5.089-.362-.25-.392-.435-.612.673-.808,1.519-1.48.729-2.072a.747.747,0,0,1-.237-1.089c.291-.555-.07-.98-.309-1.41s-1.1.159-.671.854c.268.436-.635,1.01.124,1.961.558.7-1.143,1.407-.7,2.4.133.3-.079.268-.468.9-.557.908-.059,1.073-.305,1.486a4,4,0,0,0-.532,1.682,17.487,17.487,0,0,1-.536,2.2c-.557-.052-.549-.059-.546-.595,0-1.279-.153-1.453-.735-1.446-.435,0-.253.252-.548-1.412-.155-.871-.488-1.37-1.384-1.2a8.854,8.854,0,0,0-.518-3.1c-.183-.407-.349-.738-.105-1.052,1.684-2.165-.267-2.926-.27-1.86,0,1.435-1.215,1.322-.793,2.337a6.745,6.745,0,0,1,.741,3.906c-.011.623.011,1.187.684,1,.237-.067.567-.518.684.02.438,2.019.024,2.351,1.307,2.483,0,.854-.135,1.461.536,1.728.311.124.2.3.342,1.074.151.841.24.32.34,1.17.081.7.45.8.237,1.152a3.618,3.618,0,0,0-.233,3.072c.3.257.19.586.192.895.015,2.708-.326,2.883,0,3.527.376.744-.3,1.507-1.055,1.867-.18-1.307-.122-1.405-.407-1.573s-.562-.065-.6.593.2,1.311-.78,1.163c-1.493-.225-.736-.57-1.124-1.641-.09-.248-.314-.2-.507-.217-.539-.016-.353,1.379-.323,1.914-.281.088-.905.02-1-.346-.316-1.168-.094-1.327-.654-1.366-.5-.035-.532.718-.435,1.214.04.2-.046.289-.231.244-3.116-.773.583-4.169-2.619-8.274-.78-1.3-3.758-4.542-4.211-7.171-.112-.654-.808-.791-1.043.045-.911-1.037-.142-4.694-1.732-3.363-.8-1.98.1-4.31-.536-4.608-.333-.156-.542.068-.727.3a9.278,9.278,0,0,1-.1-2.385c.023-.591.51-1.4-.357-1.358-.242,0-.277-.026-.259-.272.215-3,1-3.424-.538-3.2-.275-.514,1.628-3.54,1.673-6.414.034-2.178.669-2.344.124-2.64-.447-.242-.654.1-1.268.684a7.749,7.749,0,0,1,.189-3c.19-.542-.363-.757-.708-.523-.1.071-.206.146-.376.268.294-1.468,1.486-2.126.978-2.463-.155-.1-.31-.242-.543-.109-1.271.724,0-.282.536-2,.1-.314.057-.412-.148-.562-.27-.2-.351-.055-1.348.492,0-1.56,2.786-4.862,3.548-6.568a6.147,6.147,0,0,0-.616-2.2,21.425,21.425,0,0,1-1.1-7.152A1.879,1.879,0,0,1,80.038,66.4a27.97,27.97,0,0,1,6.509,2.956c.872.574,1.307-.085,1.8-.326.743-.365.545.642,1.4.206,2.714-1.389,1.64-.014,2.768-.472.841-.342,1.308-.631,1.743-.157.118.128.405.112,1.76.12.527,0,.48.291,1.405.486a6.98,6.98,0,0,1,2.238.555c1.524.654,1.4.71,2.474.187a8.45,8.45,0,0,1,2.782-.827c1.235-.049,1.625-.61,2.3-.715,1.017-.158,4.792-.743,5.228.157,1.494,2.527-1.879,8.241-2.4,9.7-.531,1.5-.367.729,1.778,6.03.185.457-1.693-.77-1.07.851a14.277,14.277,0,0,1,.763,3.242c-1.142-.987-1.49-.382-1.148.464a10.185,10.185,0,0,1,.653,2.66c-.246-.218-.419-.38-.6-.532-.254-.216-.942-.183-.792.436,1.31,5.412.065,2.079,2.058,6.476.869,1.916.6,2.455.954,2.963.533.77,1.591,3.666,1.183,4.154s.11.9.1,2.965c0,.133-.058.884-.2.98-.657.432-.005.818-.538,3.07-.108.455-.437-.02-.994.95-.275.479-.535-.079-1.206.559-1.438,1.367-1.438,1.427-1.586,2.05s.615.617.736.288c.162-.441,1.493-2.061,2-1.66.436.261.73.1.826-.436s.231-.617.83-.568c.775.063.729-.646,1.546-.639.591.006.708-1.429-1.032-.795a8.06,8.06,0,0,1,.337-2.62,4.316,4.316,0,0,0,.151-2.24c0-.516.7.016.762.31.378,1.682,2.066.581,2.065,2.437,0,1.039.636.384.887,1.819C119.415,116.665,118.057,116.182,118.252,117Z" fill="#e7e7de"></path><path d="M95.178,89.327c.475.259-.405.742-.83.787-1.026.107-1.307.54-2.876-.9a3.981,3.981,0,0,1,1.425-.475C94.243,88.764,93.784,88.568,95.178,89.327Z" fill="#111010"></path><path d="M95.876,82.5a2.155,2.155,0,0,1-1.089,1.066c-.592.26-.831-.157-1.611-.915a1.223,1.223,0,0,1,1-.48C95.18,82.09,95.353,82.13,95.876,82.5Z" fill="#111010"></path><path d="M88.044,146.339c1.217.43,2.072,1.255,1.832,2.514-.322,1.682-1.68,2.263-3.266,5.664a2.568,2.568,0,0,1-.346.488c-5.509-2.216-5.1-1.294-6.727-3.669-1.005-1.467,1.331-3.387,1.658-3.424,3.335-.375,2.428,1.454,3.668,1.213.654-.127.087-.485,1.364-1.973C86.565,146.758,87.506,146.149,88.044,146.339Z" fill="#111010"></path><path d="M82.879,189.812c-.109.01-3.082.474-4.039.022a7.592,7.592,0,0,0-.965-.294c-5.618-3.127-6.06-8.624-8.692-19.118-1.907-7.6-1.311-4.337-2.723-11.241C61.741,136.1,39.417,51.051,41.806,40.2c.76-3.453,4.636-6.5,5.283-6.368a10.973,10.973,0,0,0-2.335,4.218,12.274,12.274,0,0,0-.7,4.237C44.777,58.216,74.4,179.245,74.4,179.669a20.83,20.83,0,0,0,1.13,3.139C77.118,186.309,79.335,188.625,82.879,189.812Z" fill="#111213"></path><path d="M78.339,76.886c0,1.549-1.963,2.159-3.634,7.607-.134.436.206.849.769.543.081-.044.153-.1.231-.144a1.535,1.535,0,0,1,.192-.087c-.116.754-2.074,1.937-.368,2.289.762.158.232-.559-.316,2.575-.036.2.028.4.218.436,1.167.312,1.017-2.342.914,2.178-.012.556.283,1.088.885.774.109-.057.218-.127.342-.2.436,1.257-1.068,4.745-1.712,6.753a1.137,1.137,0,0,0,.756,1.569,10.386,10.386,0,0,0-.188,2.738c0,.366.064.685.477.817.19.06.086,0,.079,2.326,0,.746,1.358.187-6.908,1.083-.756.082-3.109.544-3.688.553-2.734.043-.77,3.235-3.664-6.45-1.237-4.138-.656-4.221-1.355-6.725-1.27-4.545-2.008-9.234-2.2-10.143-.919-4.438-1.819-5.719-.763-5.921,1.873-.357,16.278-2.29,16.3-2.293C77.863,76.6,78.339,76.438,78.339,76.886Z" fill="#1dd013"></path><path d="M44.673,145.675c1.208,1.025,4.233,3.145,2.577,5.553-4.341,6.311-4.213,3.639-.771,11.077.807,1.743,1.4,2.031-5.718.579-.943-.192-1.98-.674-2.832.436-3.5,4.562-4.6,6.466-8.455,3.568-11.9-8.957-11.213-7.2-3.013-18.172,8.359-11.184,8.121-10.9,14.332-6.2C41.557,143.09,43.9,145.022,44.673,145.675Z" fill="#e7e7de"></path><path d="M32.205,84.685c11.64,11.122,11.611,11.669,6.552,16.744-2.488,2.494-3.3,2.786-2.854,4.086,3.578,10.49,6.022,10.478-6.135,6.3-2.213-.76-2.789,2.447-7.814,5.688-2.831,1.826-6.46-2.583-10.2-6.281-5.278-5.216-5.6-6.116-5.489-7.334-.24-3.289,8.61-10.534,9.5-11.833.584-.856,3.664-3.958,4.1-4.4a46.371,46.371,0,0,1,3.786-3.305C27.931,80.366,29.576,82.173,32.205,84.685Z" fill="#e7e7de"></path><path d="M33.4,11.185c7.5,11.609,8.059,13.35,4.638,15.547-4.251,2.731-4.807,2.569-4.751,3.69.432,8.677,3.117,9.979-5.577,4.5-.559-.353-1.307-1.2-2.455-.514-7.96,4.752-7.288,5.751-15.545-9.172-2.218-4.008,5.637-6.569,14.36-12.606a31.333,31.333,0,0,1,3.47-1.8C29.829,9.656,31.968,8.976,33.4,11.185Z" fill="#e7e7de"></path><path d="M38.232,152.317c-.271,5.851,1.411,5.1-1.066,5.5-4.9.8-5.209,1.644-7.369.945-1.216-.393-2.5-3.115-1.2-5.063,1-1.5,2.684-.93,3.113-.937,1.035-.016.284-1.126.114-1.79-.547-2.129,1.683-3.994,4.232-3.231C38.305,148.417,38.127,150.9,38.232,152.317Z" fill="#111010"></path><path d="M30.165,19.835c.393,1.506-.22,2.856-.963,4.677-2.268,5.558.806,4.707-5.681,3.7-2.231-.346-3.171-.119-4.7-1.364-.935-.762-1.4-3.586.472-5.281,1.524-1.378,2.908-.2,3.651.055,1.089.368.657-.895.857-1.948C24.4,16.513,29.416,16.971,30.165,19.835Z" fill="#111010"></path><path d="M22.943,93.1c1.51-1.548,7.145-1.619,6.838,3.912-.11,1.995-.7,4.095-.579,5.139.062.533.091,2.444.067,2.923-.02.421-1.261.29-4.592.519-3.165.217-4.391.915-6.548-.157-1.39-.691-2.019-3.091-1.647-4.669.521-2.2,2.139-3.014,3.409-2.831a15.97,15.97,0,0,0,1.756.3C23.416,98.183,20.267,95.847,22.943,93.1Z" fill="#111010"></path><path d="M94.864,25.846c-.656,5.061.529,3.816-5.719,5.5-.956.257-14.177,2.931-18.118,3.163-1.368.08-1.674-2.057-2.477-3.433a.215.215,0,0,1,.086-.3C69.112,30.514,82,27.736,94.864,25.846Z" fill="#111213"></path><path d="M189.977,91.02c1.525,1.322,7.776,3.837,3.621,10.737-.321.532-.481,1.284-2.068,4.129-8.323,14.926-9.53,15.466-18.6,9.975-3.12-1.889-2.014-2.3-7.712,1.864-2.638,1.928-5.319,4.315-6.86,2.745a4.309,4.309,0,0,1-.616-2.734c-.3-5.354-.042-5.025.08-6.607a24.413,24.413,0,0,1,.264-2.856c.4-1.5-3.4-2.244-6.235-4.692a13.125,13.125,0,0,1-2.1-1.743c-1.487-1.847-.852-1.635-1.142-2.124-.06-.1-.044-.26-.117-.348-.257-.311-.035-.45-.362-.994.4-.285-.326-.354.821-3.026a114.552,114.552,0,0,1,5.991-10.674c1.021-1.758,2.266-5.033,5.01-6.993a6.247,6.247,0,0,1,1.279-.507c.165-.081.375.089.49-.122.719,0,1.442-.042,2.155.028C167.905,77.476,188.017,89.322,189.977,91.02Zm1.372,12.535c3.392-6.593,4.863-7.275-7.165-14.8-1.438-.9-18.327-10.556-20.56-10.557a4.913,4.913,0,0,0-3.825,1.192c-1.724,1.8-7.76,12.636-8.809,14.6-2.953,5.512-.4,6.844,2.276,8.932.655.51,5.376,2.873,5.745,3.623.881,1.791.367,1.7.435,2.283.046.39-.337.936,0,1-.218.172-.214.418-.218.965-.023,3.4-.5,3.925.02,8.015.274,2.178,5.657-2.594,7.912-4.235.17-.124.416-.166.553-.314a14.915,14.915,0,0,1,1.922-1.174c1.712-1,8.537,6.239,12.182,4.139,2.627-1.515,2.581-1.9,8.26-11.4C190.086,105.8,191.338,103.576,191.349,103.555Z"></path><path d="M179.311,92.883c4.429,2.253,4.633,8.65.654,10.872a20.617,20.617,0,0,1-4.12,1.394c-.511-.163-3.226.435-4.622.682-4.281.759-4.283,1.623-5.078.726-.667-.754-.741-2.336-1.608-4.828-1.258-3.619-3.712-7.369-1.989-10.321,2.773-4.751,10.608-4.792,11.516.653C174.477,94.539,175.606,91,179.311,92.883Zm1.168,8.768c.96-.889,1.732-4.24-.739-6.86a3.97,3.97,0,0,0-4.282-.726c-1.779,1-2.512,1.591-2.628-.592.1-.014.151.147-.091-1.24-.882-5.065-11.24-3.361-9.123,3.438.339,1.089,1.869,4.357,2.056,5.638a1.661,1.661,0,0,0,.111.305c2,5.35.227,3.86,5.085,2.843C175.618,103.462,177.622,104.3,180.479,101.651Z"></path><path d="M164.509,35.089c9.569,4.135,9.412,4.668,4.808,16.462-1.4,3.577-2.022,5.5-3.564,7.063-1.82,1.838-3.743,1.217-6.255.553-5.044-1.333-3.759-2.773-6.095-.523-5.71,5.5-5.865,5.6-6.548,5.381-.938-.3-.973-.909-1.455-2.664a18.7,18.7,0,0,1-.469-2.416c-.92-6.671.715-4.861-4.357-6.849-.583-.229-1.547-.754-1.7-.806a6.823,6.823,0,0,1-2.4-1.482,4.631,4.631,0,0,1-.871-5.01c.071-1.231,3.793-10.549,3.845-10.674,1.2-2.915,1.849-5.348,4.942-5.466C148.114,28.734,161.109,33.619,164.509,35.089Zm6.712,6.413c.109-.632-.29-1.161-.841-1.941-1.621-2.292-21.775-9.831-26.155-9.862-2.764-.019-4.029,5.7-7.221,13.942a9.356,9.356,0,0,0-.622,2.883c-.132,2.493,1.9,3.327,4.194,4.333,5.4,2.371,4.848.641,5.217,4.893.107,1.238.5,5.5,1.039,6.629.157.4.438.365.773.087a26.459,26.459,0,0,0,3.719-3.485c4.9-4.727,1.649-1.92,10.964-.218,3.363.614,5.281-5.946,6.877-10.084A30.321,30.321,0,0,0,171.221,41.5Z"></path><path d="M162.709,43.785c.354,5.414-4.858,4.906-11.286,8.1-1.242.616-1.613-1.679-2.695-3.56-2.023-3.515-5.138-7.083-1.512-10.195,2.957-2.537,6.732-1.674,7.625.987a3.783,3.783,0,0,0,.462.95c1.2-.68,2.426-1.509,4.405-.606A5.14,5.14,0,0,1,162.709,43.785Zm-1.376,2.085a4.242,4.242,0,0,0-.92-4.616,2.655,2.655,0,0,0-2.03-1.025c-2.675-.492-3.665,3.4-4.246.133-.59-3.317-4.518-3.346-6.629-1.013-2.183,2.412.139,4.85,2.869,9.959,1.4,2.614-.158,1.207,6.764-.8C159.134,47.934,160.477,47.41,161.333,45.87Z"></path><path d="M152.556,160.717c.369,3.05,2.415,8.345-2.954,13.942-2.115,2.2-5.7,3.514-8.557,4.335-15.453,4.445-56.528,12.813-61.822,12.068-2.759-.388-5.467-2.965-5.607-3.592-.107-.477-.467-.18-1.682-2.564C70.273,181.648,42.191,63.269,40.046,44.791c.172-1.462-.263-8.844,6.864-12.218,3.881-1.837,2.551-1.608,7.124-3.126a199.48,199.48,0,0,1,29.507-6.741c30.169-4.929,34.205-6.031,39.072,5.56,1.4,3.324,25.149,110.063,25.161,110.163S152.376,159.235,152.556,160.717Zm-.691,7.709c.735-2.4-.62-9.321-1.15-10.718-.856-2.254.273-.946-3.963-18.4-13.71-56.492-16.436-78.995-24.424-108.036-3.709-13.483-10.874-10.793-16.59-10.457-5.01,0-45.574,6.492-53.119,10.356-4.3,2.2-7.262,5.576-7.465,10.485-.365,8.816,24.64,113.958,24.666,114.06.266,1.064,5.376,22.54,6.357,25.2.168.455.445.872.577,1.338.622,2.2,2.893,4.557,4.738,5.709,2.614,1.634,6.712,1.034,15.125-.392,9.729-1.648,38.232-7.263,47.509-10.9a22.775,22.775,0,0,0,4.405-2.7C150.295,172.423,150.961,171.377,151.865,168.426ZM82.879,189.8c-3.548-1.172-5.76-3.479-7.353-6.982C74.179,179.856,44.707,56.689,44.057,42.3a12.27,12.27,0,0,1,.7-4.237,10.973,10.973,0,0,1,2.335-4.218c-.653-.128-4.523,2.915-5.283,6.368C39.423,51.043,61.848,136.57,66.46,159.194c1.407,6.9.816,3.638,2.723,11.241,2.535,10.106,2.962,15.883,8.692,19.118a7.958,7.958,0,0,1,.965.294C79.827,190.313,82.748,189.813,82.879,189.8Z"></path><path d="M137.3,160.758c.066,1.116-1.422,1.743-2.52.75s-2.19,1.207-3.684,2.341c-2.176,1.653-2.816-3.868-4.268-2.727-1.336,1.051-2.741,3.4-3.777,4.139-.64.457-1.664.218-2.024-1.159-.438-1.677-.353-2.059-1-1.645a9.969,9.969,0,0,0-3.607,4.595c-.247.485-1.222.4-1-.323,1.306-4.165,5.7-7.576,6.422-4.463.558,2.416.284,2.224,2.222-.04.576-.672,1.112-1.386,1.743-2.01a1.974,1.974,0,0,1,3.094.239c.4.529.289.515,1.385,2.222.932-.555,3.359-4.256,5.246-2.413.359.351.375.334.8.087A.654.654,0,0,1,137.3,160.758Z"></path><path d="M135.8,141.17c.256.138.037,1-.53,1.17-1.675.5-2.374,1.594-3.725,2.143s-1.01-2.064-3.132.2c-.533.568-1,1.2-1.432,1.584-1.039.919-1.485-.5-2.272-1.165-.914-.777-.843.668-2.925,2.712a1.13,1.13,0,0,1-1.508.022c-1.216-.905-.943-2.959-1.947-2.238-3.312,2.379-2.426,4.065-3.486,3.728-1.334-.426,1.306-3.839,2.958-4.935a1.683,1.683,0,0,1,2.482.872c.649,1.446.324.849.7,1.424,2-1.766,1.741-3.957,4.093-2.973a3.386,3.386,0,0,1,1.342,1.135c1.743-1.919,2.995-3.523,4.971-1.834,2.194-1.571,1.717-1.345,3.562-2.092C135.307,140.779,135.539,141.027,135.8,141.17Z"></path><path d="M121.724,155.042a.88.88,0,0,1-.167,1.028c-1.36,1.009-1.989,1.6-3.449,1.29-1.548-.333-1.961-.654-2.723-.161-2.616,1.692-3.922,3.675-5.62,2.376-.324-.248-.34-.41-1.4.78a1.475,1.475,0,0,1-2.287-.022c-.781-.84.067-1.39-3.307,2.151-1.722,1.806-2.591-.769-2.972-1.39-.235-.386-.391-.457-.773-.236-3.047,1.771-3.521,4.507-5.446,3.462-1.345-.731-1.524-2.7-2.64-1.961-2.009,1.33-2.784,2.9-4.407,4.192a1.658,1.658,0,0,1-2.59-1.408c.056-.494.456-.421.9-.091.1.074.479.99,1.229.279,1.891-1.793,4.841-6.291,6.882-3.7,1.216,1.543,1.091,1.941,1.96,1.055a14.058,14.058,0,0,1,3.571-3.152,1.881,1.881,0,0,1,2.35.653,13.636,13.636,0,0,1,.76,1.471c2.138-2.031,3.861-4.9,5.161-2.8.437.707.434.707,1.024.109,1-1.011,1.765-1.945,2.636-.793.458.606.492.607,2.348-.858,1.614-1.273,2.315-2.342,5.394-1.357C119.853,156.5,120.445,154.155,121.724,155.042Z"></path><path d="M111.86,71.283a1.438,1.438,0,0,1-.165.772c-.521.779-1.058-.031-.858-.458.17-.366,0-.712-.044-1.061a.373.373,0,0,0-.494-.364c-3.682.636-3.18,1.293-4.767,1.743-.94.267-1.593,1.878-2.137,1.329-.518-.522,1.044-2.193,2.364-2.531.671-.172.944-.769,2.919-1.229C110.448,69.071,111.86,68.478,111.86,71.283Z"></path><path d="M110.9,42.075c.375.066.406.947-.346,1.2-.85.289-1.665.679-2.506,1-1.165.448-1.137.05-1.971.491-1.854.979-4.02,2.869-5.446.231-.236-.436-.279-.519-2.061.823-1.275.96-1.774,1.787-2.832,1.5-.816-.221-.844-.937-1.5-1.76-.243-.308-.394-.591-2.895,2.481a1.222,1.222,0,0,1-2.065-.614c-.075-.331-.131-.669-.2-1.022-.924.028-2.483,2.094-3.581,3.557-.375.5-1.389.591-1.493-.159-.349-2.525.061-3.541-.686-3.564-.793-.023-1.579,1.05-2.037,1.654-1.268,1.675-.715,2.81-2.209,2.455a5.78,5.78,0,0,0-2.781.07,1,1,0,0,0-.8.882c-.459,2.4-1.569,5.157-3.794,3.96-.856-.46.068-2.814.488-3.627a4.917,4.917,0,0,1,2.32-1.851c.586-.24,1.136-6.489,1.167-6.886a10.546,10.546,0,0,0-4.161,3.629c-.376.521-1.985.115.817-2.614a12.212,12.212,0,0,1,3.19-2.214.845.845,0,0,1,1.178.713c-.139,9.13-2.464,6.132,2.22,6.672.771.089.069-.436,2-2.694.871-1.02,1.942-1.746,3.178-1.225.988.417.871,1.512.947,3.351,1.122-1.253,2.92-4.113,4.643-3.281.452.219.514.719.784,1.86,1.15-.945,2.706-3.993,4.392-2.683,1.318,1.023.809,2.132,1.769,1.335A12.8,12.8,0,0,1,99.977,43.4a1.562,1.562,0,0,1,1.144.024c.747.227.5,1.886,1.847,1.481s2.564-1.8,3.856-1.69c.259.021,3.106-1.175,3.13-1.183A1.45,1.45,0,0,1,110.9,42.075Zm-36.535,9.2c-.786.536-1.287.424-1.827,2.819C72.448,54.5,73.362,54.861,74.367,51.279Z"></path><path d="M108.109,73.551c.547-.186,1.447.638-1.246,1.5-.233-.068-.546-.1-.436-.458C106.606,74.006,107.563,73.737,108.109,73.551Z"></path><path d="M109.05,148.261c1.348-.967,2.314-.026,2.007.566-.476.917-.422-.08-1.593.843a1.88,1.88,0,0,1-2.307.233c-.773-.328-.6-.359-1.725,1.128a.833.833,0,0,1-1.283.136,2.4,2.4,0,0,0-1.867-.571c-.793.012-1.294,1.159-1.887,2.215a.97.97,0,0,1-1.7.07c-1.167-1.929-1.42-2.307-1.941-1.542a11.4,11.4,0,0,0-1.863,3.346c-.1.355-.246.412-.592.418-1.307.023.746-3.242,1.44-4.357.659-1.06,1.385-1.437,2.427-.71a5.411,5.411,0,0,1,1.328,1.743c1.011-1.539,1.628-3.37,4.9-2.1.643.362,1.185-2.2,2.961-1.148C108.368,149.124,108.285,148.809,109.05,148.261Z"></path><path d="M107.645,72.58c.333.467-.658.971-1.462,1.577-.219.165-.5.612-.832.364-.677-.506.972-1.613,1.684-2.053A.443.443,0,0,1,107.645,72.58Z"></path><path d="M108.785,167.065c.538-.313,1.428.25.871.969-1.01,1.3-1.941,1.346-2.81.924s-2.232,3.261-4.56,1.072c-.691-.651-.652-.942-1.553-.111-2.265,2.088-3.013,3.237-4.625,1.252-1.325-1.631-3.751,3.952-5.2,1.8a9.1,9.1,0,0,1-.653-1.507c-2.486,2.013-2.922,3.629-3.967,3.23-.72-.275-.338-1.123-.133-1.106.782.064,2.438-2.719,3.581-3.3a1.312,1.312,0,0,1,1.658.654c.322.7.323,1.138.682.832.764-.652,1.769-1.573,2.194-1.871a2.234,2.234,0,0,1,2.544,0c1.257,1.155.1,1.329,3.542-1.5a1.825,1.825,0,0,1,2.425.111c1.054,1.023.924,1.042,2.364-.331.724-.691,1.047-1.171,2.152-.623C108.083,167.948,107.855,167.6,108.785,167.065Z"></path><path d="M104.97,83.369c-.506.525-.467-.147-3.394-.093-.022,0-1.18.044-1.242.024-.554-.188-.448-.673-.034-.752C102.577,82.116,105.63,82.685,104.97,83.369Z"></path><path d="M104.349,85.373c.492.178.595.569.458.8-.293.5-2.267-.8-4.444-1.351-.3,1.7-.575.872,2.154,3.164.232.237.454.478.254.691-.547.581-.618-.254-2.929-1.776-.519-.342-.667.372-1.762.69-.262.076.026.486-1.02,1.85-2.277,2.968-5.975,2.179-6.9-.582-.54-1.605-.192-1.614-.747-1.756-.146-.037-.273-.065-.382.087a15.2,15.2,0,0,0-1.62,2.549.31.31,0,0,1-.563,0c-.191-.283-.167-.483.748-1.93s1.032-.926.416-1.8a9.869,9.869,0,0,0-2.732,2.113c-.185.229-.3.241-.558.077-.171-.11-.2-.288-.035-.517,1.8-2.429,3.07-1.474,3.214-3.215A11.966,11.966,0,0,0,84.022,85.6c-.823,0-.641-1.4,3.39-2.019a2.828,2.828,0,0,1,1.882.231c0,.884-.655.425-.632.932.021.436.326,1.206.667.913.652-.56.653-.8,1.239-.257l-.488.719c.665.617,2.792-1.418,4.322-.736,1.273.566,2.771,1.96,4.159.747-.218-.218-.8-.346-.817-.449-.028-.154-.252-.246-.137-.436.336-.553.963-.087,1.621.229.538-1.525-.695-.479-.763-1.261,0-.063-.074-.12-.124-.194C99.256,83.162,101.909,84.493,104.349,85.373Zm-10,4.741c.425-.045,1.307-.527.83-.787-1.394-.758-.935-.563-2.281-.592a3.981,3.981,0,0,0-1.425.475C93.041,90.645,93.322,90.221,94.348,90.114Z"></path><path d="M101.713,79.243c.077.05-.078.595-.2.689-.633.5-.852.422-1.729.422-2.255.294-2.349-1.479-1.445-1.23C101.41,79.965,100.486,78.443,101.713,79.243Z"></path><path d="M99.9,74.608c.776.009.922,1.1.263,1.068-.327-.018-.5-.521-1.353.077C98.02,76.3,97.661,74.42,99.9,74.608Z"></path><path d="M97.468,77.058c.183.671-.129.674-.654,1.438-.335.487-1.235.037-.207-1.191A.8.8,0,0,1,97.468,77.058Z"></path><path d="M96.688,82.542c.17.737-.728,1.835-1.645,2.049-1.553.364-1.841-.557-2.311-.934-.99-.794-.218-2.343,1.239-2.481A3.25,3.25,0,0,1,96.4,81.6c.131.094.27.2.183.436C96.539,82.169,96.647,82.365,96.688,82.542Zm-1.9,1.026A2.155,2.155,0,0,0,95.876,82.5c-.523-.372-.691-.413-1.7-.329a1.223,1.223,0,0,0-1,.48C93.954,83.409,94.2,83.828,94.787,83.568Z"></path><path d="M91.311,76.679c1.307.035,1.893,1.911,1.279,2.026-.477.09-.435-.113-.686-.584-.413-.773-1.185-.4-1.116-1.036C90.819,76.8,90.989,76.671,91.311,76.679Z"></path><path d="M91.507,79.113c.31.923-.984.98-2.01,1.172-1.024-.172-1.175-.1-1.73-.691-.116-.122-.15-.547-.013-.653.595-.462.83.745,2.808.065C90.931,78.879,91.377,78.723,91.507,79.113Z"></path><path d="M89.268,74.934c1.137-.13,1.325,1.454.39,1.04-.375-.167-.437-.274-.972.091-.2.139-.381.514-.716.3C87.466,76.035,87.946,74.934,89.268,74.934Z"></path><path d="M90.743,147.561c.468,1.066-.157,2.752-.85,3.693-4.21,5.717-1.442,5.755-7.088,3.633-1.525-.573-2.458-.584-3.46-2.041-.849-1.235-1.025-1.455-.943-2.457a3.5,3.5,0,0,1,1.135-2.453c.889-.913,1.22-1.091,1.7-1.12a4.427,4.427,0,0,1,3.211.612c1.061-1.294,1.321-1.844,2.76-2.178a3.213,3.213,0,0,1,2.468.756A3.143,3.143,0,0,1,90.743,147.561Zm-.867,1.292c.24-1.259-.616-2.075-1.832-2.514-.538-.194-1.485.421-1.817.813-1.268,1.5-.706,1.846-1.364,1.973-1.24.24-.333-1.588-3.668-1.213-.327.037-2.662,1.959-1.658,3.424,1.627,2.375,1.218,1.453,6.727,3.669a2.568,2.568,0,0,0,.346-.488C88.192,151.116,89.554,150.535,89.876,148.853Z"></path><path d="M85.682,72.708c.221.556-.347.933-.7.466A9.445,9.445,0,0,0,82.8,70.623c-1.239-.906-1.441-1.673-3.211-2.215-.466-.143-.492.612-.871.727-.815.247-.628-1.414.435-1.638a3.59,3.59,0,0,1,2.292.591c.076.035,2.39,2.021,3.192,2.832A4.507,4.507,0,0,1,85.682,72.708Z"></path><path d="M83.759,73.327c.019.026.215.508-.064.653-.4.21-.549-.113-1.03-.716-.565-.709-1.19-1.53-.224-1.495C82.737,71.983,82.5,71.634,83.759,73.327Z"></path><path d="M81.367,73c.531.2,1.831,1.2,1.453,1.588-.21.215-.368.255-.567.094C80.695,73.414,80.8,73.42,81.367,73Z"></path><path d="M68.666,51.185A11.594,11.594,0,0,1,68,54.621a4.176,4.176,0,0,1-1.991,2.4c-.559.306-1.8,2.067-6.577.172-1.934-.767-3.631-4.059-2.642-6.753.124-.338.161-.706.285-1.044C59.11,43.877,68.7,44.981,68.666,51.185ZM67.157,54a12.762,12.762,0,0,0,.5-2.854c-.062-1.653-.584-1.639-1.225-2.614a4.395,4.395,0,0,0-2.6-1.5,5.225,5.225,0,0,0-2.915.17c-2.32.574-4.043,4.525-3.089,6.54.413.872,1.209,2.178,2.154,2.357,0-2.468.238-2.146,1.059-3.035-.832-.572-1.226-.871-1.024-2.511.352-2.856,4.248-2.131,4.211.313-.015,1.046-.514,1.113-.109,1.231,2.179.636,2.224,1.183,2.876,2.115C67.061,54.13,67.144,54.069,67.157,54ZM65.29,56.093c1.062-.705,1.147-.668,1-1.128a2.771,2.771,0,0,0-3.449-1.776c-1.95.815-2.043,1.366-1.923,2.885.036.459.05.451.477.579C64,57.434,64.913,56.343,65.29,56.093Zm-1.952-5.1a1.5,1.5,0,0,0-1.2-1.349c-.693-.2-1.333.849-1.334,1.657C60.8,52.328,62.7,52.939,63.338,50.99Z"></path><path d="M48.692,149.5c.3,1.743-2.292,4.515-3.291,6.135-.292.473-.585.634-.076,1.76,1.537,3.406,4.723,8,.895,7.5a27.862,27.862,0,0,1-4.858-.734c-3.457-.791-1.54-.874-4.714,2.605-3.943,4.322-5.334,2.831-9.993-.673-9.765-7.345-9.506-6.861-.925-18.4a86.515,86.515,0,0,1,5.531-6.838c2.81-3.05,4.1-3.775,9.04-.039C48.052,146.693,48.343,147.443,48.692,149.5Zm-1.442,1.724c1.655-2.4-1.369-4.528-2.577-5.553-10.265-8.709-9.47-8.649-18.212,3.041-8.193,10.957-8.917,9.2,3.013,18.172,3.852,2.9,4.975,1,8.455-3.568.846-1.112,1.88-.631,2.832-.436,7.12,1.461,6.531,1.17,5.718-.579C43.047,154.919,42.917,157.5,47.25,151.228Z"></path><path d="M41.61,92.586c3.854,4.479.233,7.6-4.174,11.685-.412.383-.326.7.4,2.638,3.136,8.416,1.614,3.8,2.4,7.25.154.68-.464,2.2-2.8,1.51-.686-.2-1.407-.292-2.1-.475-5.758-1.523-6.006-2.649-6.971-1.629-8.058,8.51-8.88,7.122-16.907-.963-3.1-3.124-5.49-5.4-6.317-7.712C3.76,101.036,13,93.232,14.563,91.384c1.769-2.1,10.086-10.58,12.953-10.441a3.856,3.856,0,0,1,3.222.98C33.214,83.732,39.813,90.5,41.61,92.586Zm-2.853,8.843c5.056-5.076,5.088-5.622-6.552-16.744-2.629-2.512-4.274-4.319-8.557-.328a48.013,48.013,0,0,0-3.786,3.305c-.435.436-3.519,3.541-4.1,4.4-.888,1.306-9.736,8.544-9.5,11.833-.113,1.212.217,2.117,5.489,7.334,3.742,3.7,7.372,8.106,10.2,6.281,5.024-3.242,5.6-6.448,7.814-5.688,12.135,4.165,9.712,4.2,6.135-6.3C35.46,104.215,36.271,103.923,38.757,101.429Z"></path><path d="M41.087,23.133c.282,2.179-.819,2.934-2.385,4.22-2.785,2.287-4.578,2.024-4.318,3.327a58.118,58.118,0,0,1,.6,7.6,1.193,1.193,0,0,1-1.227,1.168c-1.5-.037-5.807-2.974-7.027-3.874-1.358-1-1.86,1.077-6.738,2.832-3.544,1.275-5.447-2.847-7.939-7.036-2.63-4.424-5.424-7.922-1.849-10.892,2.593-2.155,15.72-10.808,20.188-11.7,2.651.146,3.13.271,8.175,8.973C40.023,20.249,40.885,21.571,41.087,23.133Zm-3.054,3.6c3.425-2.2,2.864-3.938-4.638-15.547-1.427-2.209-3.56-1.527-5.86-.358a31.486,31.486,0,0,0-3.47,1.8c-8.747,6-16.578,8.6-14.36,12.606,8.257,14.923,7.589,13.931,15.545,9.172,1.144-.684,1.9.161,2.455.514,8.65,5.454,6.045,4.286,5.577-4.5C33.222,29.3,33.781,29.462,38.033,26.732Z"></path><path d="M39.271,156.323c.229,2.47.714,1.944-3.155,2.562-1.525.243-2.745.79-4.59,1-5.4.614-5.9-8.277-1.122-8.078a4,4,0,0,0,.654-.085c-.316-1.625-.535-3.194,1.6-4.488a4.346,4.346,0,0,1,4.886.266C39.563,149.049,38.931,152.663,39.271,156.323Zm-2.105,1.5c2.477-.4.8.349,1.066-5.5-.1-1.418.078-3.9-2.177-4.574-2.549-.764-4.785,1.1-4.232,3.231.172.664.921,1.782-.114,1.79-.435,0-2.113-.558-3.113.937-1.3,1.95-.015,4.669,1.2,5.063C31.962,159.465,32.267,158.618,37.166,157.819Z"></path><path d="M23.444,18.16c2.077-3.145,8.126-1.488,7.716,2.732-.244,2.519-1.566,4.624-2.385,8.426-.238,1.1-1.307.558-2.908.218-3.678-.783-6.246-.364-7.912-2.246-1.865-2.107-.737-7.192,2.8-7.272a3.49,3.49,0,0,1,1.64.31C23.221,20.517,22.422,19.709,23.444,18.16ZM29.2,24.512c.742-1.821,1.356-3.171.963-4.677-.749-2.864-5.769-3.319-6.363-.159-.2,1.053.218,2.313-.857,1.948-.742-.253-2.132-1.432-3.651-.055-1.871,1.7-1.407,4.518-.472,5.281,1.525,1.244,2.468,1.017,4.7,1.364C30.008,29.222,26.937,30.071,29.2,24.512Z"></path><path d="M30.648,94.523a12.562,12.562,0,0,1,.083,4.734c-.944,8.007,1.026,7.215-3.642,7.324-4.729.109-9.413,1.995-11.2-2.011-1.575-3.529-.194-6.488,1.771-7.339a3.944,3.944,0,0,1,2.575-.41c1.286.039-.11-.446.711-2.849A5.15,5.15,0,0,1,25,91.005C27.1,90.679,30.076,91.937,30.648,94.523Zm-.867,2.49c.307-5.531-5.328-5.46-6.838-3.912-2.676,2.746.469,5.077-1.309,5.125a16.462,16.462,0,0,1-1.756-.3c-1.27-.178-2.889.634-3.409,2.832-.373,1.577.257,3.978,1.647,4.668,2.157,1.072,3.383.375,6.548.157,3.331-.229,4.574-.1,4.592-.518.021-.48-.006-2.4-.067-2.924C29.068,101.11,29.671,99.008,29.781,97.013Z"></path><path d="M57.644,35.864c-.2.174-.186.307,0,.475.341.31.367.3.779.089,1.467-.731,1.92-.923,2.726-.884,1.021.05,1.843.447,2.006-.12C63.411,34.534,59.88,33.869,57.644,35.864Z"></path><path d="M58.942,36.7c-.512.349-.532.514-.1.949.115.116.239.157.359.046a4.172,4.172,0,0,1,2.8-.653c.349.049.2.217.641-.567C62.236,36.017,60.222,35.825,58.942,36.7Z"></path><path d="M59.591,38.387c.481.651.481.352,1.118.168.763-.222,1.189-.218,1.178-.6C61.863,37.114,59.316,38.014,59.591,38.387Z"></path><path d="M110.928,27.4l-.041.013c.218,1.181.414,1.05-2.514,1.551-2.379.407-2.836.691-2.978-.115-.379-2.159-.575-1.906,2.368-2.4C110.756,25.955,110.39,25.763,110.928,27.4Zm-1.769.876c.475,0,1.274-.138,1.179-.5-.336-1.285-.231-1.336-1.386-1.039-.32.083-.218.321-.111.833C108.9,27.562,108.93,28.275,109.159,28.277Z"></path><path d="M102.585,26.88c-.218.115-.094.325-.061.591.252,2.024.155,2.209.653,2.318.179.038.795-.146.78-.436a14.738,14.738,0,0,0-.237-1.68C103.611,27.7,103.9,26.184,102.585,26.88Z"></path><path d="M102.177,28.719c-.143-.946-.092-1.084-.5-1.015-.331.056-.693.124-.654.525.109,1.106.105,2,.871,1.788.569-.155.4-.59.292-1.307Z"></path><path d="M99.788,28.547c-.179.06-.167.218-.083,1.019.079.758.178.689.538.654s.569-.2.475-.6C100.489,28.653,100.856,28.186,99.788,28.547Z"></path><path d="M149.5,164.234c-.779-5.977-7.779-38.289-7.988-39.867-.292-1.42-1.408-4.829-1.541-5.62-1.694-10.116-4.026-15.031-4.831-20.913-.147-1.067-.273-.479-.5-1.86-1.461-8.75-1.057-4.865-2.938-13.593-.49-2.269-.977-6.256-1.479-8.421-10.885-46.887-12.978-50.529-18.2-50.7-8.592-.286-53.606,6.544-59.815,12.186-2.765,2.512-2.945,4.792-2.716,8.465.026.424,7.134,37.454,13.106,62.556.041.17,6.071,25.618,16.339,67.152,3.957,16.01,7.746,12.933,22.22,10.4,10.277-1.8,11.125-2.131,13.672-2.784,3.049-.782,29.291-5.047,32.7-9.929.388-.556,1.743-2.706,1.719-2.776C149.142,168,149.812,166.6,149.5,164.234ZM132.4,90.166c.84,2.734.97,6.074,1.418,7.248a21.316,21.316,0,0,1,.653,3.413c-7.842.824-1.905-.259-18.893,2.063-1.294.177-.8.606-1.434-1.172-.577-1.618-.507-.574-.958-2.22a17.641,17.641,0,0,0-1.632-3.99c-.366-.578-.353-.955-.584-2.634l.336.148c1.126.484.61-1.8.277-3.318,1.418.314,1.119-.366.313-3.9.654.395.724.525.97.358a.549.549,0,0,0,.255-.634,14.65,14.65,0,0,0-.545-1.961c-1.328-3.779-1.977-3.833-1.688-4.649a53.637,53.637,0,0,0,2.769-6.838c.237-.976.055-1.221.516-1.307,4.928-.919,9.8-1.307,13.613-2.076C129.758,76.3,130.439,83.79,132.4,90.166ZM118.252,117c.238.995-.163.573-.17,1.56,0,.792-.2.451-.4,1.307-.1.411-.1,1.128-.715,1.041-.533-.076-.129.541-.886,2.178-.258.558-1.237-.6-1.543.338a3.034,3.034,0,0,1-.59,1.224c-.612-.159-1-.372-1.242.2-1.821,4.223-1.885.88-2.877,1.454-.274.158-.27.507-.619,1.153-.236.437-.659.764-.741.273-.051-.309-.12-.784-.451-.748-.435.049-.413.218-.472.4-.32.985-1.425.985-1.419.8.064-1.8-1.19-2.757-.435-3.951.319-.5.088-1.246.653-1.641.713-.5.408-2.034.852-2.289.584-.335.364-1.659.8-2.7.315-.751-.521-1.242-.756-.719a5.118,5.118,0,0,0-.538,2.191c-.087.678-.538.175-.606.713-.175,1.375-.156,1.306-.218,1.605-.163.781-.545.34-.747,1.066-.831,2.975-1.009,2.079-.113,4.751.2.612.189,3.052-.3,2.5-.558-.633-.3-1.07-.821-1.109-.436-.032-.446.233-.338.9.136.832-.651,1.356-.941.911-.262-.4-.383-1.327-.819-1.181-.614.205-.276.884-.268,1.048.048.96-.1.845-1.037,1.071-.237-1.021-.282-1.963-1-1.805-.4.087-.13.816-.122,1.241.014.676-.019.678-.7.684a1.336,1.336,0,0,1-1.272-.838c-.855-1.457-.041-1.376-.493-2.357-.384-.834.085-1.56.029-2.815-.044-.978.343-1.645-.277-2.091-.2-.148-.27-1,.133-1.743a3.132,3.132,0,0,0,.54-1.279c.128-1.25-1.341.914-.172-4.043.022-.094.715-2.833.813-2.969.5-.687,0-.958.259-1.307.7-.945.981-.693,1.178-1.5.089-.362-.25-.392-.435-.612.673-.808,1.519-1.48.729-2.072a.747.747,0,0,1-.237-1.089c.291-.555-.07-.98-.309-1.41s-1.1.159-.671.854c.268.436-.635,1.01.124,1.961.558.7-1.143,1.407-.7,2.4.133.3-.079.268-.468.9-.557.908-.059,1.073-.305,1.486a4,4,0,0,0-.532,1.682,17.487,17.487,0,0,1-.536,2.2c-.557-.052-.549-.059-.546-.595,0-1.279-.153-1.453-.735-1.446-.435,0-.253.252-.548-1.412-.155-.871-.488-1.37-1.384-1.2a8.854,8.854,0,0,0-.518-3.1c-.183-.407-.349-.738-.105-1.052,1.684-2.165-.267-2.926-.27-1.86,0,1.435-1.215,1.322-.793,2.337a6.745,6.745,0,0,1,.741,3.906c-.011.623.011,1.187.684,1,.237-.067.567-.518.684.02.438,2.019.024,2.351,1.307,2.483,0,.854-.135,1.461.536,1.728.311.124.2.3.342,1.074.151.841.24.32.34,1.17.081.7.45.8.237,1.152a3.618,3.618,0,0,0-.233,3.072c.3.257.19.586.192.895.015,2.708-.326,2.883,0,3.527.376.744-.3,1.507-1.055,1.867-.18-1.307-.122-1.405-.407-1.573s-.562-.065-.6.593.2,1.311-.78,1.163c-1.493-.225-.736-.57-1.124-1.641-.09-.248-.314-.2-.507-.217-.539-.016-.353,1.379-.323,1.914-.281.088-.905.02-1-.346-.316-1.168-.094-1.327-.654-1.366-.5-.035-.532.718-.435,1.214.04.2-.046.289-.231.244-3.116-.773.583-4.169-2.619-8.274-.78-1.3-3.758-4.542-4.211-7.171-.112-.654-.808-.791-1.043.045-.911-1.037-.142-4.694-1.732-3.363-.8-1.98.1-4.31-.536-4.608-.333-.156-.542.068-.727.3a9.278,9.278,0,0,1-.1-2.385c.023-.591.51-1.4-.357-1.358-.242,0-.277-.026-.259-.272.215-3,1-3.424-.538-3.2-.275-.514,1.628-3.54,1.673-6.414.034-2.178.669-2.344.124-2.64-.447-.242-.654.1-1.268.684a7.749,7.749,0,0,1,.189-3c.19-.542-.363-.757-.708-.523-.1.071-.206.146-.376.268.294-1.468,1.486-2.126.978-2.463-.155-.1-.31-.242-.543-.109-1.271.724,0-.282.536-2,.1-.314.057-.412-.148-.562-.27-.2-.351-.055-1.348.492,0-1.56,2.786-4.862,3.548-6.568a6.147,6.147,0,0,0-.616-2.2,21.425,21.425,0,0,1-1.1-7.152A1.879,1.879,0,0,1,80.038,66.4a27.97,27.97,0,0,1,6.509,2.956c.872.574,1.307-.085,1.8-.326.743-.365.545.642,1.4.206,2.714-1.389,1.64-.014,2.768-.472.841-.342,1.308-.631,1.743-.157.118.128.405.112,1.76.12.527,0,.48.291,1.405.486a6.98,6.98,0,0,1,2.238.555c1.524.654,1.4.71,2.474.187a8.45,8.45,0,0,1,2.782-.827c1.235-.049,1.625-.61,2.3-.715,1.017-.158,4.792-.743,5.228.157,1.494,2.527-1.879,8.241-2.4,9.7-.531,1.5-.367.729,1.778,6.03.185.457-1.693-.77-1.07.851a14.277,14.277,0,0,1,.763,3.242c-1.142-.987-1.49-.382-1.148.464a10.185,10.185,0,0,1,.653,2.66c-.246-.218-.419-.38-.6-.532-.254-.216-.942-.183-.792.436,1.31,5.412.065,2.079,2.058,6.476.869,1.916.6,2.455.954,2.963.533.77,1.591,3.666,1.183,4.154s.11.9.1,2.965c0,.133-.058.884-.2.98-.657.432-.005.818-.538,3.07-.108.455-.437-.02-.994.95-.275.479-.535-.079-1.206.559-1.438,1.367-1.438,1.427-1.586,2.05s.615.617.736.288c.162-.441,1.493-2.061,2-1.66.436.261.73.1.826-.436s.231-.617.83-.568c.775.063.729-.646,1.546-.639.591.006.708-1.429-1.032-.795a8.06,8.06,0,0,1,.337-2.62,4.316,4.316,0,0,0,.151-2.24c0-.516.7.016.762.31.378,1.682,2.066.581,2.065,2.437,0,1.039.636.384.887,1.819C119.415,116.665,118.057,116.182,118.252,117ZM94.864,25.846c-.656,5.061.529,3.816-5.719,5.5-.956.257-14.177,2.931-18.118,3.163-1.368.08-1.674-2.057-2.477-3.433a.215.215,0,0,1,.086-.3C69.111,30.515,82.026,27.732,94.864,25.846ZM53.805,59.586c-1.117-6.089-3.092-12.735-3.324-17.493-.35-7.173,9.234-9.312,16.743-10.982.342-.076.372.244.464.4,1.035,1.758,1.021,3.829,3.464,3.818,4.542-.019,20.347-3.508,22.238-4.047,2.859-.815,1.7-2.393,2.352-5.562,17.427-2.489,17.846-2,19.641.316,3.045,3.925,5.1,13.31,7.548,22.11.187.673-.189.075-2.178,1.007a39.67,39.67,0,0,1-3.921.653c-1.09.1-2.4.638-3.111.706a72.6,72.6,0,0,0-10.875,2.155,9.144,9.144,0,0,0-2.326.429c-3.6.885-3.133.545-5.677,1.056-5.817,1.169-5.447,1.475-7.15,1.362-.144.024-10.324,2.054-11.045,2.259C68.505,60.086,67,59.461,58.162,61.627a17.618,17.618,0,0,0-2.832.817,1.46,1.46,0,0,0-.667.12C54.33,62.774,54.314,62.357,53.805,59.586ZM57.162,76.3c-1.051-4.435-.645-1.055-2.536-12.43-.043-.263.035-.395.308-.383.344.014,11.523-2.62,13.846-2.806a6.141,6.141,0,0,0,1.742-.379A1.35,1.35,0,0,1,71,60.2c2.362-.027,3.251-.822,9.522-2.11,1.7-.35,1.02-.125,3.5-.669,3.533-.776,3.032-.734,4.671-.8,1.742-.067,2.614-.774,5.01-1.065,4.22-.512,10.655-2.143,14.047-2.93.217-.05,6.217-.961,6.239-.965a22.929,22.929,0,0,1,3.96-.841c6.342-.452,4.963-3.089,6,1.192,0,.022,1.3,4.741,1.525,6.479a22.513,22.513,0,0,1,1.2,4.953,8.314,8.314,0,0,0,.255,1.161c.2.655.218,1.353.351,2.024.217,1.09.314,1.131-.02,1.192-8.012,1.454-7.04.806-13.4,2.143a2.757,2.757,0,0,0-.846-2.337,3.24,3.24,0,0,0-2.08-.564,19.869,19.869,0,0,0-3.88.3c-.719.115-.852.582-2.08.708-3.244.334-3.066,1.674-4.542.907a3.719,3.719,0,0,0-1.292-.536,7.087,7.087,0,0,1-2.081-.5c-.4-.242-.562-.175-1.96-.288-.506-.041-.743-.624-2.272-.078-.913.326-.46-.292-1.926.122-1.425.4-.959.647-1.405.25-.5-.442-1.649.275-1.941.547-.5.464-.93-1.27-7.243-3.05a2.755,2.755,0,0,0-3.5,2.329c-.218,3.268.08,3.9,1.148,7.8-1.765.274-1.682.42-3.7.69-4.683.627.841-.216-7.158,1.068-4.487.719-5.834.561-6.331.723-1.214.4-1.867.337-3.049.708A20.564,20.564,0,0,1,57.162,76.3Zm5.549,25.948c-1.237-4.139-.656-4.222-1.355-6.725-1.27-4.546-2.008-9.235-2.2-10.143-.919-4.438-1.819-5.72-.763-5.921,1.873-.357,16.278-2.29,16.3-2.294,3.168-.565,3.643-.725,3.643-.279,0,1.549-1.963,2.159-3.634,7.607-.134.436.206.849.769.543.081-.044.153-.1.231-.144a1.535,1.535,0,0,1,.192-.087c-.116.754-2.074,1.937-.368,2.289.762.158.232-.559-.316,2.575-.036.2.028.4.218.436,1.167.312,1.017-2.342.914,2.178-.012.556.283,1.088.885.774.109-.057.218-.127.342-.2.436,1.257-1.068,4.745-1.712,6.753a1.137,1.137,0,0,0,.756,1.569,10.386,10.386,0,0,0-.188,2.738c0,.366.064.685.477.817.19.06.086,0,.079,2.326,0,.746,1.358.187-6.908,1.083-.756.082-3.109.541-3.688.553C63.627,108.751,65.607,111.94,62.711,102.248Zm4.7,7.306c4.185-.666,1.936-.34,4.051-.457.138,0-.342.069,4.782-.565a3.047,3.047,0,0,1,1.793.292,9.145,9.145,0,0,0,.512,3.771c.15.58.361.512.939.564,1.089,4.357,1.368,3.368,2.067,3.368,2.362,5.069,4.183,5.716,4.647,7.494a9.774,9.774,0,0,1,.579,2.24c.033,1.346-.608,2.231,0,3.605a2.582,2.582,0,0,0,2.967,1.5c.278.219.632.131.937.231.782.257.834-.22,1.507-.153,2.236.224,1.43.032,2.852-.231,1.261-.232,1.19-.944,1.51-.152a2.443,2.443,0,0,0,1.045,1.2c1.815.571,1.6.039,2.747.04,1.841,0,1.9-.885,2.224-.737a1.364,1.364,0,0,0,1.257-.309c1.164-1.092,1.705.163,2.164-1.366.052-.176-.04-.653.392-.653,1.063,0,1.213-.682,1.542-.436a1.406,1.406,0,0,0,1.765-.29c.188-.217.346-.453.52-.686a2.87,2.87,0,0,0,1.059.174c1.24-.146,1.643-1.119,2.126-2.093.307-.619.945.3,1.7-1.074.11-.2.126-.589.78-.523,1.525.154,1.242-2.33,2.006-2.5.436-.1.593-1.071.678-1.308,1.033-2.9.5-3.089.984-3.755a5.231,5.231,0,0,0,.349-1.976c.185-1.723-.289-1.438-.288-2.49a3.568,3.568,0,0,0-.764-2.56c-.385-.652-.3-2.009-1.867-2.381-.769-.182-.4-1.5-2.094-1.614.666-2.337-3.161-1.463,10.209-3.037,2.036-.239-1.672-.16,9.275-.895.588-.039.231.015.957,2.327,2.244,7.149,2.294,10.608,4.45,18.129a20.512,20.512,0,0,1,.872,3.786c.279,1.255.279.354-3.628,1.812-1.013.378-.244-.3-6.594,1.281-2.472.616-4.245.8-5.7,1.227-2.845.842-5.011.637-7.562,1.96-1.166.6-3.294.747-5.01,1.118A35.992,35.992,0,0,1,107.9,134.5a15.046,15.046,0,0,0-2.762.456c-2.137.674-6.315,1.16-8.746,1.96-4.5,1.481-13.347,2.075-24.122,5.117C64.959,106.6,62.864,110.278,67.41,109.554Zm79.179,61.086c-2.517,3.441-22.475,7.708-26.359,8.424-31.692,5.838-35.579,9.729-38.826-1.209a41.874,41.874,0,0,1-1.545-5.161c-.506-2.3-.768-2.193-1.525-5.57-.582-2.6-.329-2.026-1.239-6.133-.721-3.252-1.208-2.919-1.558-5.387-.2-1.41-2.832-11.559-3.128-12.6,2.051-.423,42.109-8.832,43.266-9.013,2-.312,1.836-.947,4.869-1.577.871-.181,1.742-.293,2.6-.472.9-.189,1.785-.439,2.683-.632,1.772-.381,4.045-.72,5.385-1.17,3.074-1.032,5.446-.764,7.314-1.588.736-.325,1.546-.333,2.3-.6a.183.183,0,0,1,.259.185c.063,1.056.527,2.024.686,3.061.079.514.336,1.771.359,1.858a101.07,101.07,0,0,1,2.178,11.068C147.958,163.28,150.555,165.217,146.589,170.64Z"></path><path d="M77.705,30.562c1.206-.3,9.3-1.826,9.4-1.845.455-.085.433.114.479.252.065.2.108.447-.083.512a83.853,83.853,0,0,1-9.683,1.909C77.471,31.428,77.333,30.655,77.705,30.562Z"></path></svg>