<svg xmlns="http://www.w3.org/2000/svg" viewBox="0 0 200 200" height="400" width="400"><g><path d="M118.361,35.9c2.095,13.187,2.44,12.667,1.849,12.793-4.594.977-22.76,3.888-25.746,4.463-.594.115-39.032,7.08-42.507,7.47-.579.065-1.681.485-1.993-.47-.363-1.109-.913-3.726-2.155-11.172-3-18.007-5.093-23.9-2.385-29.348,1.4-2.8,4.052-4.724,9.534-5.707.019,0,43.936-6.617,47.456-7.312,6.315-1.248,8.2.648,8.981,1.251,1.629,1.25,2.352,3.05,3.1,5.448C116.15,18.638,116.843,26.344,118.361,35.9Zm-3,9.8c.13.514,1.335.845,1.317-.183C116.662,44.519,115.021,44.353,115.362,45.694Zm-2.507.184a.722.722,0,1,0,1.435-.058A.722.722,0,1,0,112.855,45.878Zm-2.411,1.063c.735.657,1.849-.667,1-1.2C110.744,45.3,109.777,46.344,110.444,46.941ZM75.18,44.631c.394-.122.437-.9-.2-.815a12.143,12.143,0,0,1-1.819.348,2.657,2.657,0,0,0-1.119.453c-.647.44-.967-.553-1.668.183-1.619,1.7-1.42-1.171-3.011.241-2.048,1.817-.689,1.628-.6,1.565a8.34,8.34,0,0,0,.988-.939c.968-.858.849,1.8,2.915-.081.545-.5.786.387,1.648-.144C73.5,44.707,73.424,45.173,75.18,44.631Zm-5.586,7.54c1.827-.5,1.075-1.279.521-1.069-1.079.41-1.016-.248-1.741.169-.612.353-.494,0-1.027.168-.971.311-.948-.4-2.114.236-1.68.913-.654-.609-2.5.544-.94.589-.893-.549-1.683.159-.467.418-.506.692-1.05.4-.208-.113-.705-.378-.9-.244-1.237.855-.649,2.381.047,1.038.406-.784.877.926,2.062-.282.491-.5.993.382,1.881-.349,1-.823.863.515,2.316-.409.64-.408.829-.137,1.8-.177C69.141,52.272,67.829,51.941,69.594,52.171ZM67,23.089c.664-.488.3-1.113.171-1.142-.706-.152-.585.483-1.075.069-.355-.3-1.126-1.231-1.68-.355-.787,1.247-.092,1.707-1.24.441-.54-.594-1.263-.575-1.852.3-.338.506-.267,1.024-.565.681-1.761-2.342-2.072-.021-2.57.662-.453-.406-.331-.541-.646-.906-.424-.492-1.065-.486-1.512.406-.248.494-.286-.079-.863-.55-1.63-1.331-1.824,1.64-2.239,2.6-.183.425-.318-.507-.618-1.292a.714.714,0,0,0-1.361-.1,6.155,6.155,0,0,0-.856,2.324c.013.274,0,.762.311.729.606-.064.06-.231.971-2.277.28-.63.392.51.655,1.125A.841.841,0,0,0,53.6,25.9a13.762,13.762,0,0,0,.644-2.152c.407-1.339,1.264,1.445,1.3,1.506a.476.476,0,0,0,.882-.08,8.03,8.03,0,0,1,.5-1.554c.177.242.279.462.51.833a.872.872,0,0,0,1.566-.162c.647-1.782.491-1.119,1.329-.173a.776.776,0,0,0,1.345-.219c.531-2.01.923-.891,1.422-.376,1.625,1.681,1.709-1.268,2.136-.957C65.916,23.055,66.372,23.554,67,23.089Zm-.6,32.233a.414.414,0,0,0-.045-.807c-.457-.083-.867.5-2.143.207a1.864,1.864,0,0,0-1.3.317c-1.528.766-1.71-.473-2.647.342-.528.459-.561-.326-.935.2a.591.591,0,0,0,.718.9c.487-.234.571-.65,1.208-.474,1.937.533,1.423-.623,3.625-.325A3.67,3.67,0,0,0,66.4,55.322Zm-6.732-7.841c.711-.327.294-1.017-.294-.835-.02.006-2.042.836-2.466.547-.937-.64-1.238.671-1.983.116-.673-.5-.817-.374-1.349.183-1.024,1.075-1.057-1.451-2.5,1.072-.26.455.238.848.593.378.476-.633.273-.82,1.184-.3.3.175.594.112,1.238-.535.526-.528.5.911,1.918-.006.436-.281.475-.1.995.055C59.285,47.786,58.586,47.978,59.669,47.481ZM49.1,28.983a12.435,12.435,0,0,0,.091-7.3c-.658-1.851-3.535,2.066-2.842,3.623a.44.44,0,0,0,.544.2c.342-.128-.041-.679.218-1.374.236-.633,1.347-2.251,1.432-1.745,1.051,6.276-1.013,6.354-.465,7.036C48.4,29.822,48.936,29.314,49.1,28.983Z" fill="#e8d5d5"></path><path d="M163.876,192.744s-7.784-16.407-8.858-20.484-.214-9.55-.107-12.34.859-15.988.965-18.134-.858-11.159-.858-13.305-.429-9.872-.537-12.769-2.253-8.584-3.433-10.3-5.472-11.052-5.472-13.734S144.5,80.732,141.821,77.3s-5.57-6.453-6.536-12.14-.868-13.719-4.624-12.861-6.545,4.292-6.76,10.194L119.072,100.1l-70.98,23.821s-3.743-.622-4.98.748a10.909,10.909,0,0,0-3.314,6.009,8.526,8.526,0,0,0,1.326,6.407c.353.4,3.888,5.346,6.451,6.849a13.954,13.954,0,0,1,5.037,5.39c.4,1.061,9.412,13.7,10.339,14.582,0,0,9.659,10.358,14.309,13.076s17.991,13.466,20.137,16.47c0,0,18.754.838,25.859.274,10-.793,15.557.159,27.144-.317C156.663,193.151,162.167,193.69,163.876,192.744Z" fill="#b07f3b61"></path><path d="M131.5,111.805c1.65,8.182,1.353,7.807.963,7.924-2.018.609-20.36,3.832-20.935,3.955-.522.111.092-5.311.114-6.723.005-.359.153-.29.86-.416.971-.173.262-.358.733-8,.184-2.982-.213-2.8.8-2.834a55.985,55.985,0,0,0,7.35-1.3c1.574-.329,4.8-.782,7.568-1.216C130.385,102.965,129.582,102.3,131.5,111.805Z" fill="#ffeb8d"></path><path d="M129.85,101.929c.087.5.2.375-4.687,1.087-6.753.984-3.962,1.008-7.932,1.473-4.228.5-4.01,1.29-3.943-.53.169-4.606.3-6.157-.784-9.308-.343-1-1.012-1.578-2.39-2.517-.639-.435-1.18-.079-1.184-.949-.017-3.616-.787-3.728-.65-5.571a16.341,16.341,0,0,1,.487-2.582c.657-2.849-.755-3.639-.579-6.126a9.335,9.335,0,0,0-2.966-6.846c-.953-.843.793.325,3.178-1.955.384-.367.534-.544.414-.762-.543-.985-1.195.108-4.782-1.544A8.267,8.267,0,0,1,102.3,64.68a8.389,8.389,0,0,0,1.9-1.079c1.25-.977,1.4-2.571.291-2.351-2.5.493-4.834-1.091-5.831-1.686a18.883,18.883,0,0,0-4.039-1.709c-.85-.863-1.964-3.09-6.193-1.562a7.281,7.281,0,0,0-1.646,1.048c-1.294.925-1.278,2.932-1.117,3.651.156.7-1.073-.2-3.46.779-3.481,1.421-5.215,5.19-5.063,8.947-.1,2.466.094,3.554-1.138,4.793a10.162,10.162,0,0,0-2.931,4.114c-1.124,3.364-.133,3.246-1.136,3.212-.762-.026-1.06.628-.815,1.353.105.313.161.559-.049.571a.75.75,0,0,0-.741.544c-.376,1.085,1.516,3.582.7,3.483-.723-.088-1.223.043-1.421.737-.091.318.025.675.738,1.532.64.769.939.764.719,1.081-2.059,2.957-2.972,4.106-2.011,7.694.132.492.53.382.209.941-1.735,3.016,1.163,13.971-.032,14.24-2.993.674-.225-.187-8.574,1.761-.632.147-1.914-9.337-2.078-10.247C52.973,75.283,50.834,65.669,50.4,62.735c-.238-1.139,1.3-1.235,1.688-1.288,10.465-1.435,47.926-8.59,47.948-8.594s18.251-2.738,19.338-3.167a4.292,4.292,0,0,1,.957-.2c.237-.035.41.307.6,1.06.8,3.251,1.929,11.664,3.377,17.958C124.325,68.625,129.846,101.909,129.85,101.929Z" fill="#1474f5"></path><path d="M112.071,95.856a29.209,29.209,0,0,1,.549,4.71c-.472,10.894-.052,10.767-.665,10.841-.238.029-.491.226-.693.175s-.331-.326-.506-.492a1.521,1.521,0,0,0-2.32.166c-.809,1.07-1.05-.992-2.629-.631-1.648.378-1.345,1.373-2.216.786-3.733-2.517-2.744,3.22-2.134-6.057a15.585,15.585,0,0,1,.208-3.029c.046-.187.124-.722-.224-.8-.6-.127-.714,1.918-.9,5.692-.1,2.052-.485,2.073-.681,6.181-.118,2.462,1.692,1.712,1.595,2.848-.262,3.062-.15,2.43-.3,2.745-.961-.675-9.189-14.25-6.106-18.145,1.319-1.666,3.9-2.4,5.88-3.157.489-.186,2.2-1.434,4.088-2.335,1.038-.5,1.349-1.611.343-1.8-1.038-.2-1.649.362-.044-1.137.321-.3.451-.482.829-.446a10.3,10.3,0,0,1,2.184.265C110.883,93.125,111.8,94.473,112.071,95.856Z" fill="#222522"></path><path d="M108.274,81.409a24.248,24.248,0,0,1-.681,3.543c-.284,1.751.464,2.271.646,6.061.018.367-.022.353-.406.308-1.193-.142-1.617.131-1.928-.416-.226-.4-.718-.4-1.061-.441-.524-.06,1.737-4.352,1.006-4.939a.8.8,0,0,0-.821-.152c-1,.38-1.427,1.7-1.585,1.964-.128.213-.558-.1-1.241.683-2.753,3.145-1.352,1.817-.675-2.269.658-3.976,0-3.729.862-6.3.1-.3,1.78-5.057.762-5.327-.614-.163.056.957-1,3.738-1.305,3.45-.8,3.881-1.259,7.166-.1.7-.952,5.127-1.319,4.515-.025-.041-.363-1.365-1.308-.6-3.177,2.576-3.851,2.611-3.525,2.327,5.9-5.126,5.361-10.4,5.644-12.107.357-2.146,2.264-5.8.306-7.617-3.089-2.868-5.2-1.418-7.692-8.064-.338-.9-.91-1-.9-.613.018.631.346.83-.089.816-1.379-.044-4.971.409-6.016,1.26-3.03,2.467-2.848,2.381-4.124,7.725-1.247,5.223-2.4,6.192-1.268,11.479,1.426,6.692,6.663,10.41-1.189,3.7-.55-.469-1.2.181-1.149,1,.026.374.142.774-.393.518-1.988-.95-2.289-4.686-3.626-4.632-.337.014-.574-.014-.729-.372a4.838,4.838,0,0,1-.218-1.577c-.09-2.71,1.128-4.512,2.979-6.32,2.057-2.008,1.506-3.924,1.6-6.5a8.812,8.812,0,0,1,1.578-5.052,7.613,7.613,0,0,1,3.166-2.412,4.981,4.981,0,0,1,4.2.124c.567.118.62-.323.362-.6s-.794-.276-.9-1.8c-.137-2.015,1.672-3,3.624-3.541,2.357-.649,3.787,1.021,3.273,1.121-.977.189-2.8.439-3.681,1.62-.454.611-.613,2.189-.057,2.137.839-.079-.7-2.136,3.135-2.852,2.889-.538,5.415,1.419,7.46,2.572,1.807,1.019,4.807.353,4.2,1.07a3.728,3.728,0,0,1-2.792,1.614c-1.16.25-7.465-5.983-9.959-2.633-.25.337.012.74.455.45,2-1.312,2.8-1.172,11.03,4.178,1.989,1.294,3.712,1.263,4.722,1.725a5.762,5.762,0,0,1-1.707,1.089c-2.263.944-3.651-1.683-4.575-2.251-.648-.4-2.221-1.459-2.948-1.447a.3.3,0,0,0-.292.307c.01.429.583.2,2.149,1.286.564.391,5.163,4.768,5.3,4.953.928,1.276,1.959,3.434,1.794,4.957C107.179,78.77,108.26,79.844,108.274,81.409ZM105.8,76.821c-.075-.642-.036-1.03-.425-1s-.073.262-.351,1.824c-1.2,6.768.209,5.366.213,4.823C105.254,79.653,105.019,81.685,105.8,76.821Zm-4.679-6.759c.486.53.764.333.738-.008-.75-1.236-1.179-1.321-3.4-3.089-2.895-2.306-2.241-2.907-3.725-3.941-.077.841,1.626,2.962,2.225,3.555C98.156,67.768,100.289,69.159,101.118,70.062ZM84.493,63.914c3.917-.913-1.406-2.407-3.487,2.346-.6,1.365-.648,2.391-1.172,5.894-.066.441.437.431.52.124C81.052,69.671,81.014,64.726,84.493,63.914ZM77.4,85.553c-1.491-3.291,2.069-8.79,1.438-8.907-.253-.047-.336.037-.5.348C73.82,85.844,78.233,87.394,77.4,85.553Z" fill="#ffa87d"></path><path d="M105.332,85.935c.15.035.226.283.134.537-.548,1.515-1,2.576-1.444,4.146-.146.519-3.444,3.316-3.983,3.665a.889.889,0,0,1-.158-.113c-.863-.977-.89-.961-.565-1.15,2.218-1.291,3.113-1.625,3.83-3.3C104.388,86.812,104.542,85.824,105.332,85.935Z" fill="#b07f3b61"></path><path d="M105.366,91.456c-.692.748-4.428,4.45-4.953,3.547-.219-.376.226-.423,1.254-1.3,2.074-1.769,2.957-3.05,3.688-2.414A.117.117,0,0,1,105.366,91.456Z" fill="#b07f3b61"></path><path d="M93.16,65.982c2.44,5.033,7.963,5,7.643,7.7a15.687,15.687,0,0,1-.637,2.914c-.094.3-.133.325-.405.166-1.99-1.165-2.938-1.116-4.715-1.55a5.62,5.62,0,0,0-2.04.1.877.877,0,0,0-.709.534c-.366.756-.555-.218-1.857.016-.7.126.593-1.786-6.488-2.614-.928-.108-1.4.524-1.308-.051,1.015-6.42,2.434-7.94,8.753-8.818C93.008,64.552,92.389,64.39,93.16,65.982Zm5.179,9.064c.187.074,1,.857,1.1-.177-.6-1.254-2.624-.879-4.063-1.327-.553-.172-.993-.637-1.24-.331-.322.4.033.719.476.975C96.107,75.046,96.616,74.37,98.339,75.046Zm-10.6-2.012c2.553.75,2.9-1.309,1.351-.871-.628.178-.888.018-3.089-.5-.5.111-2.531.442-2.025,1.211.225.343.514.079.827-.039C86.112,72.344,86.453,72.656,87.738,73.034Z" fill="#b07f3b61"></path><path d="M109.822,115.143c-4.167-.193-3.23-.858-7.188-.549-.38.029-.386.029-.406.4-.273,5.2-.25,5.37-.124,5.576,1.046,1.71,1.467,1.938,1.375,2.692-.045.369-.5.556-.815-.039-1.631-3-8.482-11.926-9.038-19.358-.407-5.429,4.847-5.411,7.9-7.325,2.076-1.3,3.51-1.7,3.557-2.2.1-1.092-4.514,1.823-5.282,1.969-5.528,1.029-7.351.831-8.367,3.05-.035.079-.13.128-.2.191-.069-.084-.177-.161-.2-.256a3.16,3.16,0,0,1,2.044-2.426,19.427,19.427,0,0,1,5.067-.8c.516-.073.41-.137-.268-1.278-.75-1.265.715-.189.908.482a1.115,1.115,0,0,0,.26.352c.193.229.343.239.626.048.187-.124.211-.213.024-.5a7.2,7.2,0,0,0-1.846-2.061.346.346,0,0,1-.039-.612.417.417,0,0,1,.388.056c.447.257.384.044,2.6-1.234a5.219,5.219,0,0,0,2.158-2.568c.15-.412.043-.727-.132-.526-.719.825-1.969,2.793-4.266,3.639a28.542,28.542,0,0,0-2.912,1.784c-1.337.745-1.366,2.416-2.217,2.547.236-2.218,1.8-3.2,4.188-4.823,1.365-.93,1.406-1.857.845-1.7A19.249,19.249,0,0,1,93.544,93a10,10,0,0,0-2.529,1.476c-2.564,2.319-2.452,5.281-2.629,7.829.38,5.784,2.991,25,4.811,24.67,10.134-1.834,13.943-2.346,16.5-2.923,1.357-.3.654-1.1.957-4.287C111.045,115.714,111.419,115.218,109.822,115.143Z" fill="#b07f3b61"></path><path d="M95.844,80.925c2.867.485,3.541-2.708,3.541-.368a13.635,13.635,0,0,1-1.331,5.293,14.129,14.129,0,0,1-7.1,6.662c-7.09,3.405-11.769-10.535-9.1-16.463.351-.78.441,2.564,3.821,3.137,2.3.39,3.455-1.465,3.993-2.064a1.771,1.771,0,0,1,2.434.114C92.7,77.8,92.117,80.3,95.844,80.925Zm-.7,5.146c.4.119.528-.414.7-.824-.333-1.837-1.632-1.6-1.286-.874.487,1.014-5.083-.813-8.178-1.069-.615-.051-1.28-.124-.914-.577.731-.9-.846-.966-1.5.949-.161.466.439.577.612.238a2.459,2.459,0,0,1,.211-.3c.626.667,2.162,4.231,3.074,5.1,1.907,1.819,4.929-1.616,6.78-3.074C95.071,85.3,94.708,85.943,95.139,86.071Zm-2.928-5.349A.4.4,0,0,0,91.9,80c-.525.1-1.592.678-2.206-.195-.412-.585-.17-.682.433-1.073.374-.243.924-1.608-.9-.423C87.384,79.505,90.084,82.465,92.211,80.722Z" fill="#b07f3b61"></path><path d="M91.732,126.919c.13.455.211.3-4.184,1.03-.018-.027.348-7.3.48-12.68C88.368,101.435,87.416,111.828,91.732,126.919Z" fill="#222522"></path><path d="M89.454,93.952c.832-.093,1.173-.189.9.09-2.171,2.234-1.414,3.589-2.294,1.711-.183-.392-.962-1.694-1.059-1.99a.074.074,0,0,1,.089-.095A7.682,7.682,0,0,0,89.454,93.952Z" fill="#b07f3b61"></path><path d="M88.8,86.821c1.132.13,1.39.218,1.893.886-1.889,1.274-2.271.382-2.815-.459C87.627,86.862,88.1,86.894,88.8,86.821Z" fill="#ff9c9f"></path><path d="M86.717,94.846a7.024,7.024,0,0,1,1.142,3.8c-1.584,31.93-.329,29.274-2.21,29.628-11.076,2.084-9.8,1.463-12.371,2.115-.293.075-.247-.152-.3-.77-.072-.872-.272-1.711-.414-2.566-.821-4.945-.375-4.9-1.02-6.979-.991-3.2,2.464-4.212,6.022-3.879,1.836.171,2.156-.3,1.885.555-1.373,4.334-3.177,7.645-3.2,8.793-.081,3.373,5.589-9.479,6.455-23.537.232-3.766-3.79-3.354-9.119-8.657-.012-.012-1.4-1.306-2.395-2.35-.39-.409-1.082-1-1-1.411.03-.143.175-.207.349-.209a.931.931,0,0,1,.61.23c.488.413,1.413,1.479,1.692,1.765,2.539,2.6,3.455,2.014,3.367,2.842-.081.769.554.637.65.115A10.18,10.18,0,0,1,78.292,91.4c.229-.419-.323-.423-.4-.323-.517.64-2.139-1.091-2.6-2.174-.177-.416-.914-2.605-1.073-3.082s.307-.4.419-.2c1.128,2.047,1.245,2.8,1.891,3.5a8.392,8.392,0,0,0,2.556,1.8c.08.041,1.816,1.435,1.843,1.457,1.251,1,1.424,1,1.776,2.054.475,1.42.4,1.345-.173.965-.544-.358-.617-.276-2.348-.595-.679-.125-1.036-.207-1.132.083-.364,1.1,3.126-.048,5.24,3.208.438.673,1.3.441.69-.416-2.017-2.849-1.067-4.286-3.029-5.39a21.532,21.532,0,0,1-2.46-2.318c-.332-.313-.734-1.222-.374-1.5s.932,1.2,3.8,3.269C84.33,92.768,86.135,93.617,86.717,94.846ZM78.771,92.62c.075-.393-.318-.561-.522-.273-1.66,2.332-.562,2.914-.3,2.191A16.671,16.671,0,0,1,78.771,92.62Z" fill="#b07f3b61"></path><path d="M80.708,99.578c1.961,1.331,1.166,2.566,1.144,4.838,0,.178-.707,5.93-.987,4.892-1.495-5.548-1.837-7.473-2.31-7.375-.826.171.04,1.474,1.32,6.9.432,1.834.195,2.029.429,2.941.274,1.063-1.07-.718-2.006.766-.2.318-.314.242-.95-.089a1.76,1.76,0,0,0-2.158.471c-.319.556-.774.379-1.377.132a1.743,1.743,0,0,0-2.079,1.1c-.244.581-.314.228-1.308.643-.383.161-.152.361-.187-1-.074-2.9-.923-7.219-.793-10.4.108-2.676,1.305-4.588,6-6.1C76.744,96.878,76.372,96.636,80.708,99.578Z" fill="#222522"></path><path d="M73.788,86.563c1.666,5.825,4.187,5.018,3.244,5.616-.252.16-1.755-1.124-2.907-3.068-.772-1.3-.566-1.489-1.829-3.617-.152-.256-.242-.131-.615-1.363-.217-.717.6-1.068,1.312.356A12.044,12.044,0,0,1,73.788,86.563Z" fill="#b07f3b61"></path><path d="M74.889,91.366c1.2,1.3,2.074,1.646,1.505,1.723a7.983,7.983,0,0,1-1.658-1.022c-2.034-1.869-2-1.133-3.713-5.79-.224-.609-.077-.77,0-.823.164-.112.453.079.575.231C72.92,87.322,72.708,89.008,74.889,91.366Z" fill="#b07f3b61"></path><path d="M75.143,96.539a10.334,10.334,0,0,0-4.967,2.828c-.318.388-.441.5-.6-.238a5.383,5.383,0,0,1,.494-4.185c1.287-2.165,1.592-2.633,1.906-2.253.223.27,2.6,2.532,3.09,3.064C75.68,96.414,75.914,96.324,75.143,96.539Z" fill="#ffa87d"></path><path d="M71.319,125.046c.1,1.223,1.274,5.492.708,5.587-3.6.6-7.173,1.3-8.2,1.582-.751.207-.866.224-.932-.095-.926-4.5-.105-.059-2.235-13.643-.262-1.67-.555-.49,4.023-1.859a33.3,33.3,0,0,1,4.407-.863c.989-.187-.171,2.991.654,3.931C71.037,121.163,70.9,119.832,71.319,125.046Z" fill="#ffeb8d"></path><path d="M68.235,134.343c.23-.319,1.439-.106.715,1.47-.8,1.74-.925,2.04-1.523,1.7a18.719,18.719,0,0,1-1.6-1.038c-.7-.5-.958-1.415.022-1.892.457-.223.78.142,1.211.547C67.614,135.651,67.748,135.017,68.235,134.343Z" fill="#ff9c9f"></path><path d="M68.546,163.637c-1.987-2.172-2.875-7.616-3.334-10.719-2.1-14.185-4.819-29.86-7.3-44.1-3.432-19.735-8.365-43.6-10.549-56.408-2.58-15.125-3.981-21.739-4.262-25.934A12.69,12.69,0,0,1,46.7,16.019c-2.777.7-4.9,4.866-5.155,5.963A18.4,18.4,0,0,0,41.6,28.5c.1.741,16.465,90.952,16.465,90.952,1.479,7.867,1,9.61,2,10.492a5.346,5.346,0,0,1,1.488,2.917c.282,1.059-.3,2.712-.6,3.627,3.442,20.276,3.191,26.843,8.635,29.387a16.545,16.545,0,0,0,3.022.885C72.305,166.2,71.671,167.052,68.546,163.637Z" fill="#1474f5"></path><path d="M55.411,33.54a5.465,5.465,0,0,1,4.015,6.469c-.355,1.546-5.881-.682-7.477,3.358-.185.468-2.946-1.107-3.119-4.833A5.26,5.26,0,0,1,55.411,33.54Zm1.331,4.386c.016-3.835-5.36-3.937-5.478-.276C51.139,41.512,56.727,41.659,56.742,37.926Z" fill="#1474f5"></path><path d="M58.374,127.953c.295,1.3-.264.1-3.846-1.792-2.274-1.2-2.93-.573-1.606-1.2a10.679,10.679,0,0,0,4.289-4.061C57.446,121.618,58.205,127.207,58.374,127.953Z" fill="#b07f3b61"></path><path d="M56.055,114.144c2.073,3.609.1,7.429-3.382,9.644-1.707,1.085-5.488-.337-7.372-1.343a21.119,21.119,0,0,1-4.861-3.826c-1.637-1.423-3.036-1.639-3.909-6.676.691-4.055,1.351-4.274,4.344-7.43.568-.6,2-1.759,2.5-1.1a6.866,6.866,0,0,0,3.741,2.249c1.329.392,2.594-1.225,5.118.447,2.588,1.713,2.753,1.613,2.836,2.178.1.652.419,2.806.408,3.1-.067-.046-2.06-1.881-2.127-1.95a13.8,13.8,0,0,0-2.956-2.773c-.652-.458-1.111.2-.374.78,1.041.812,1.708,2.025,3.751,3.86A11.548,11.548,0,0,1,56.055,114.144Zm-1.361.5c.716-.908-.242-2.095-1.063-2.675-3.559-2.51-6.04-5.62-9.481-2.959-1.843,1.425-3.274,2.664-3.253,4.8.022,2.213,4.059,6.711,5.028,7.444a2.031,2.031,0,0,0,2.855-.181c.994-1.165.95-2.113,1.788-3.017C52.822,115.623,53.676,115.936,54.694,114.647Z" fill="#b07f3b61"></path><path d="M56.772,41.464c-2.521-.072-6.235,2.9-2.519,2.692.754.04,2.883-.368,2.828-1.185C57.008,41.9,57.705,41.491,56.772,41.464Z" fill="#fff6dd"></path><path d="M55.982,37.827c0-2.6-3.926-2.771-3.956-.153A1.98,1.98,0,1,0,55.982,37.827Z" fill="#fff6dd"></path><path d="M53.955,101.277c.148,2.468-6,3.52-6.662,3.281a6.534,6.534,0,0,1-3.172-2c-.6-.962-.971-1.148-.561-1.291.941-.331,1-1.576,2.262-3.232,2.673-3.5,5.692-2.956,5.036-5.5-.5-1.938-3.9-3.828-5.02-3.551-3.078.764-5.171,4.7-5.264,4.634-.887-.6.619-3.708,1.408-4.644,2.156-2.557,2.383-2.8,2.736-2.975,2-1,3.562-1.851,5.626-1.332.6.152.55-.334,2.121,8.484C52.848,95.305,53.349,97.845,53.955,101.277Z" fill="#b07f3b61"></path><path d="M46.429,62.091C50.747,83.2,50.7,82.517,50.157,82.1c-6.2-4.827-10.2-9.333-11.253-12.923-.915-3.11-.005-5.645,2.2-7.016a6.289,6.289,0,0,1,3.956-.581C46.38,61.8,46.368,61.791,46.429,62.091Z" fill="#b07f3b61"></path><path d="M110.365,114.283c2.445,1.013,2.062,1.494,2-1.724-.012-.6-.443-.42-.925-.138-.534.313-.512.067-1.032-.614-1.26-1.651-1.6,1.966-3.579-.12a1.273,1.273,0,0,0-1.912.211c-.677,1.03-1.959-.084-2.3-.312-.326-.215-.233-.271-1.6-.025-.378.068-.358.447-.376,1.512-.012.67,2.024.665,2.442.615a18.017,18.017,0,0,1,5.187.425C109.174,114.222,110.094,114.17,110.365,114.283Z" fill="#e8d5d5"></path><path d="M80.159,113.587c.138-.6.144-.6-.449-.823-1.343-.5-.183,1.6-2.6.406-.9-.448-1.148-.013-1.524.429-1.156,1.359-2.383-1.086-3.3,1.052a1.049,1.049,0,0,1-1.117.608,1.164,1.164,0,0,0-.977.888c-.061.564-.071,2.235.323,1.83,2.991-3.076,3.175-2.714,8.9-2.625C79.936,115.36,79.765,115.312,80.159,113.587Z" fill="#e8d5d5"></path><path d="M137.5,143.566c.231,1.969.882,9.032-3.562,11.546-4.189,2.368-8.541,2.478-25.294,5.455-31.545,5.606-37.623,10-41.333-2.548-.4-1.365-4.117-24.412-4.1-24.416-.023-.258-.1-.456.2-.514,7.3-1.431,69.608-12.627,69.614-12.607A231.049,231.049,0,0,1,137.5,143.566ZM114.6,156.85c1.072-.27,1.077-1.577-.166-1.512-.01-.173-11.112,2.239-20.518,3.736-1.435.228-1.522,1.6-.681,1.75C93.93,160.951,114.574,156.856,114.6,156.85ZM88.385,141.063c.255-.18.128-1.04-.861-.465a2.1,2.1,0,0,1-1.424.374c-.281-.044-.6.11-.874.053-.9-.184-1.394.511-1.849.475-.983-.079-1,.647-1.578.4-.445-.189-.756-.193-2.428.47-.973.386-1.514-.053-2.178.378-.821.534-1.186-.035-1.932.573-.463.378-.72.678-1.242.5-1.152-.387-1.418.366-2.767.3-1.166-.057-1.128.793-1.857.535s-.8.491-1.826.31a1.543,1.543,0,0,0-.338-.044.532.532,0,0,0-.39.5c.051.387.569.256.791.319.93.262,1.143-.42,1.889-.286,1.048.189.811-.625,2.02-.512,1.011.094,1.4-.628,2.48-.3,1.293.4,1.3-.838,2.489-.818.854.015,1-.451,1.721-.407a7.21,7.21,0,0,0,2.861-.707c.644-.213.6.572,1.792-.187.418-.266.559.062,1.56-.475C85.566,141.457,86.078,142.679,88.385,141.063Zm-12.7-.9c.522-.032.972-.134.894-.686-.072-.5-.938-.2-1.17-.2-1.014.015-.981.668-1.768.578-.662-.075-.638.621-1.432.227-1-.5-1.3,1.172-.774,1.319a.387.387,0,0,0,.451-.31c.041-.224.071-.165.878.039.912-.357.707-.374,1.19-.408C74.887,140.656,74.721,140.221,75.681,140.163Zm-5.7-5.534a1.08,1.08,0,0,0-.695-1.128,1.218,1.218,0,0,0-1.7.464c-.289.518-.234.175-.691,0a1.444,1.444,0,0,0-1.172-.088,1.613,1.613,0,0,0-.9,2.605,7.016,7.016,0,0,0,2.558,1.753c.636.245,1.02.289,1.274-.347A8.91,8.91,0,0,0,69.981,134.629Zm-1.055,7.208c.689-.353.455-1.074-.3-.818-.81.277-.934-.331-1.326.239-.216.315-.088.189-.325.37-.1-.2-.235-.344.093-.737.349-.417-.12-.662-.4-.632-.37.039-.342.221-.579,1.054.044.252.068.429.107.6a.78.78,0,0,0,1.473.3C67.93,141.788,68.258,142.179,68.926,141.837Z" fill="#e8d5d5"></path><path d="M48.5,94.267c.971-.478,1.687-.908,1.272-1.787-.4-.84-.786-.887-1.649-1.553-1.972-1.524-2.788-.7-3.848.112-1.147.875-3.324,3.283-3.324,4.46.28,1.355,1.412,5.882,2.33,4.78C43.727,99.743,44.934,96.02,48.5,94.267Z" fill="#b07f3b61"></path><path d="M52.853,114.777c1.234-.85,1.241-1.025.815-1.432a31.867,31.867,0,0,0-3.281-2.544c-2.357-1.376-3.745-2.7-6.091-.6-3.751,3.348-2.984,4.274,1.182,9.258.969,1.159,2.018,1.916,2.806.6C49.363,118.258,48.673,117.652,52.853,114.777Z" fill="#b07f3b61"></path><path d="M57.664,129.564c.271-.193.094-.327-.668-.821-4.327-2.8-6.236-3.948-8.574.648-1.191,2.341-.392,3.147,1.252,4.1,1.272.74,2.441,1.369,3.76,2C54.635,136.067,53.817,132.3,57.664,129.564Z" fill="#b07f3b61"></path><path d="M132.03,126.51c.394,2.064-.036,1.611-1.052,1.051-.214-.118-.472-.24-.744-.419-.64-.422-.758.053-.914.3-.419.674-1.023,2.11-1.491,1.195a20.388,20.388,0,0,1-1.075-4.539c-.215-1.358.582-1.086,3.277-1.75C131.628,121.957,131.355,122.978,132.03,126.51Zm-.983.267c.275.152.316-.075.238-.376-.095-.37-.437-2.4-.655-3.129-.056-.187-.2-.273-.745-.153-2.129.465-2.429.3-2.337.929.048.335.093.871.586,3.167.021.094.1.681.367.293.493-.7.616-1.47,1.331-1.237A7.144,7.144,0,0,1,131.047,126.777Z" fill="#000000"></path><path d="M130.238,143.837a1.621,1.621,0,0,1-1.729-1.323,1.742,1.742,0,1,1,1.729,1.323Zm.006-.63a1.089,1.089,0,1,0,.043-2.174A1.089,1.089,0,1,0,130.244,143.207Z" fill="#000000"></path><path d="M130.121,138.761c6.066-.137,5.871,8.82.154,8.662C124.69,147.571,124.7,138.882,130.121,138.761Zm3.6,5.372a3.712,3.712,0,0,0-.529-3.342,3.6,3.6,0,0,0-6.375,2.747,3.363,3.363,0,0,0,1.473,2.639c.593.384.548-.591,1.516-1.329a3.193,3.193,0,0,1,3.263-.327C133.345,144.629,133.583,144.489,133.721,144.133Zm-.971,1.615a.336.336,0,0,0-.009-.55,2.4,2.4,0,0,0-3.222,1.081c-.15.3.854.552,1.89.252A3.233,3.233,0,0,0,132.75,145.748Z" fill="#000000"></path><path d="M119.312,142.6c.921,2.668,2.492,5.6-.234,6.324-2.63.7-6,1.8-6.918-.118a11.3,11.3,0,0,1-.411-4.452,1.476,1.476,0,0,1,.9-1.492c.363-.171.393-.22.356-.488-.316-2.273,3.046-3.3,4.308-1.268C118.038,142.273,118.849,141.252,119.312,142.6Zm-.488,5.487c1.338-.413,1.03-1.444.552-2.828-.89-2.579-.886-2.762-1.665-2.643-5.316.813-5.349.661-5.2,3.661C112.672,149.356,113.171,149.827,118.824,148.084Zm-3.532-5.987c1.438-.276,1.471-.181,1.3-.473-.723-1.226-2.663-.614-2.742.125C113.758,142.6,114.16,142.315,115.292,142.1Z" fill="#000000"></path><path d="M117.989,144.015a2.161,2.161,0,0,1-2.543,2.165c-2.886-.616-1.559-2.2-1.073-1.489.355.519,1.855,1.207,2.551.19a4.476,4.476,0,0,0,.342-1A.371.371,0,0,1,117.989,144.015Z" fill="#000000"></path><path d="M116.679,45.511c.018,1.028-1.187.7-1.317.183C115.021,44.353,116.662,44.519,116.679,45.511Z" fill="#000000"></path><path d="M114.43,155.338c1.243-.065,1.238,1.242.166,1.512-.022.006-20.666,4.1-21.365,3.974-.841-.152-.754-1.522.681-1.75C103.318,157.577,114.42,155.165,114.43,155.338Z" fill="#000000"></path><path d="M114.29,45.82a.722.722,0,1,1-1.435.058A.722.722,0,1,1,114.29,45.82Z" fill="#000000"></path><path d="M111.445,45.74c.848.533-.266,1.858-1,1.2C109.777,46.344,110.743,45.3,111.445,45.74Z" fill="#000000"></path><path d="M109.974,174.416c.384.475.248.967,0,1.044-2.44.763-2.411-10.9-1.5-10.654,1.166.038.11,1.479.78,7.767A3.485,3.485,0,0,0,109.974,174.416Z" fill="#000000"></path><path d="M109.768,10.937c.485.664-1.77,4.237-2.983,6.972-.149.335-.359.325-.695.309-.245.012-.311-.228-.446-.571-.338-.863-.588-2.468-.869-2.647-.8-.292-1.5-.538-2.811-1.1a.5.5,0,0,1,.113-.86,66.851,66.851,0,0,1,6.536-2.177C109.109,10.76,109.6,10.7,109.768,10.937Zm-.643,1.069a.068.068,0,0,0-.105-.079c-.058.048-3.161,2.644-3.261,2.738-.265.248-.233.319-.176.512.217,1.044.453,1.715.585,2.171a.059.059,0,0,0,.107.013c.382-.659,1.711-3.283,2.58-4.791A5.213,5.213,0,0,0,109.125,12.006Zm-.548-.348c.14-.123.71-.469-.585-.05-1.185.383-3.625,1.228-4.606,1.6-.672.254-.635.366-.495.419,2.109.8,1.775,1.166,3.952-.572C107.324,12.67,107.947,12.21,108.577,11.658Z" fill="#000000"></path><path d="M105.372,75.818c.389-.027.35.361.425,1-.778,4.864-.543,2.832-.563,5.644,0,.543-1.416,1.945-.213-4.823C105.3,76.08,104.972,75.846,105.372,75.818Z" fill="#000000"></path><path d="M104.562,148.546a4.964,4.964,0,0,1,.168,2.379,1.6,1.6,0,0,1-1.105,1.146,44.75,44.75,0,0,1-4.784,1.02c-1.5.255-2.041-.918-2.31-2.365-.239-1.29-.631-2.025-.712-3.075-.064-.829.781-1.513,1.395-1.786,1.176-.523,4.659-1.42,5.838-.889C103.949,145.38,103.885,146.339,104.562,148.546Zm-2.81,3.074c2.1-.7,2.942.214,1.741-4.087-.024-.084-.049-.367-.364-.369-1.139-.01-5.431,1.349-6.223,1.451-.264.034-.144.26-.031.62.343,1.1.446,2.287.917,2.8a.931.931,0,0,0,1,.187C99.755,151.917,100.785,151.941,101.752,151.62Zm.2-4.965c1.081-.248,1.245-.144,1.174-.489-.065-.315-.394-.719-1.225-.719s-.656.169-.325.948A.353.353,0,0,0,101.952,146.655Zm-2.58.51c1.394-.359,1.743-.165,1.25-1.217-.048-.1.006-.057-.215-.191-1.829.371-1.6.225-1.258,1.294C99.184,147.162,99.25,147.2,99.372,147.165Zm-2.579.784c1.888-.573,1.868-.308,1.41-1.447-.162-.4-.874-.061-1.31.388S96.185,148,96.793,147.949Z" fill="#000000"></path><path d="M101.856,70.054c.026.341-.252.538-.738.008-.829-.9-2.962-2.294-4.163-3.483-.6-.593-2.3-2.714-2.225-3.555,1.484,1.034.83,1.635,3.725,3.941C100.676,68.733,101.106,68.818,101.856,70.054Z" fill="#000000"></path><path d="M99.964,148.442c2.46.193,2.416.3.636,2.109-.593.6-.882-.851-1.036-1.245C99.364,148.794,99.6,148.438,99.964,148.442Z" fill="#000000"></path><path d="M99.566,13.355c1.029,2.076-.788,3.894-2.249,5.957a.769.769,0,0,1-1.042.187c-.872-.847-2.032-1.294-2.908-2.133-2.192-2.1-.638-4.839,1.459-4.438,1.052.2,1.005.73,1.17.338C96.587,11.863,98.88,11.971,99.566,13.355Zm-.53,1.311c.113-1.526-1.678-2.109-2.31-.874-1.164,2.278-.994-.969-2.9.106a1.411,1.411,0,0,0-.693,1.353c-.178.778,1.085,1.686,1.738,2.143,1.932,1.35,1.843,1.309,2,1.081C98.457,16.212,98.952,15.818,99.036,14.666Z" fill="#000000"></path><path d="M99.442,74.869c-.1,1.034-.916.251-1.1.177-1.723-.676-2.232,0-3.724-.86-.443-.256-.8-.578-.476-.975.247-.306.687.159,1.24.331C96.818,73.99,98.837,73.615,99.442,74.869Z" fill="#000000"></path><path d="M96.744,13.737c.649-1.269,2.488-.67,2.373.9-.087,1.183-.6,1.588-2.223,3.912-.165.234-.073.277-2.057-1.111-.672-.469-1.968-1.4-1.786-2.2a1.451,1.451,0,0,1,.712-1.39C95.723,12.741,95.547,16.076,96.744,13.737Z" fill="#e8d5d5"></path><path d="M97.717,76.705c.26.244-.137.526-.8,1.075-1.708,1.419-2,2.1-2.418,1.936a1.474,1.474,0,0,1-.959-.839c-.066-.245.166-.494.354-.7a15.268,15.268,0,0,1,1.824-1.625c.2-.177.378-.46.636-.37A5.708,5.708,0,0,1,97.717,76.705Z" fill="#e8d5d5"></path><path d="M95.844,85.247c-.177.41-.3.943-.7.824-.431-.128-.068-.768-.5-.428-1.851,1.458-4.873,4.893-6.78,3.074-.912-.869-2.448-4.433-3.074-5.1a2.459,2.459,0,0,0-.211.3c-.173.339-.773.228-.612-.238.658-1.915,2.235-1.853,1.5-.949-.366.453.3.526.914.577,3.095.256,8.665,2.083,8.178,1.069C94.212,83.65,95.511,83.41,95.844,85.247Zm-2.418.2c-.185-.065.033-.041-1.05-.181-1.782-.23-4.891-1.224-6.089-1.176-.457.019.311.93.758,1.036C90.936,86.053,92.943,86.673,93.426,85.452Zm-2.735,2.255c-.5-.668-.761-.756-1.893-.886-.7.073-1.171.041-.922.427C88.42,88.089,88.8,88.981,90.691,87.707Z" fill="#000000"></path><path d="M92.376,85.271c1.083.14.865.116,1.05.181-.483,1.221-2.49.6-6.381-.321-.447-.106-1.215-1.017-.758-1.036C87.485,84.047,90.594,85.041,92.376,85.271Z" fill="#e8d5d5"></path><path d="M91.9,80a.4.4,0,0,1,.307.723c-2.127,1.743-4.827-1.217-2.982-2.414,1.826-1.186,1.276.18.9.423-.6.391-.845.488-.433,1.073C90.312,80.677,91.379,80.1,91.9,80Z" fill="#000000"></path><path d="M90.517,17.967c.311,2.153-.057,2.365-.39,2.69-.46.449-1.539.605-4.5,1.056-1.28.194-1.7-.35-1.877-.717A11.291,11.291,0,0,1,82.689,17a1.661,1.661,0,0,1,.5-1.573c1.115-.967,3.7-1.328,5.208-1.18a1.684,1.684,0,0,1,1.574,1.436A14.676,14.676,0,0,1,90.517,17.967Zm-1.4,2.249a1.017,1.017,0,0,0,.763-1.224c-.23-2.281-.557-3.362-1.145-3.8-.76-.562-1.683-.237-3-.01-1.031.178-1.664.325-2,.745-.741.924-.094,2.564.4,4.195a1.157,1.157,0,0,0,1.28.812A20.825,20.825,0,0,0,89.117,20.216Z" fill="#000000"></path><path d="M90.454,153.587c.567.3.242,1.035-.376.758-1.826-.815-1.506-1.071-2.154-.5a2.924,2.924,0,0,1-4.9-2.117,3.086,3.086,0,0,1,2.08-2.922,2.937,2.937,0,0,1,3.641,3.58C88.623,152.845,88.866,152.742,90.454,153.587Zm-2.379-1.841a2.148,2.148,0,0,0-2.152-2.186c-2.958-.146-2.859,4.25-.008,4.246A2.158,2.158,0,0,0,88.075,151.746Z" fill="#000000"></path><path d="M89.089,72.163c1.552-.438,1.2,1.621-1.351.871-1.286-.378-1.627-.69-2.936-.2-.313.118-.6.382-.827.039-.506-.769,1.522-1.1,2.025-1.211C88.2,72.181,88.461,72.341,89.089,72.163Z" fill="#000000"></path><path d="M87.453,17.4c.884-.19,1.534-.3,1.107.545-.042.083-.185.126-.292.162-.563.188-1.036-.069-.669.715.2.423.291.966-.14,1.014-.75.082-.555-1.408-1.184-1.377a6.127,6.127,0,0,1-1.1.207c-.439.039-.489-.608-.1-.74,1.645-.553,1.113-.121.857-1.17-.15-.613.425-.873.738-.284C87.125,17.317,86.943,17.511,87.453,17.4Z" fill="#000000"></path><path d="M87.524,140.6c.989-.575,1.116.285.861.465-2.307,1.616-2.819.394-3.941,1-1,.537-1.142.209-1.56.475-1.19.759-1.148-.026-1.792.187a7.21,7.21,0,0,1-2.861.707c-.725-.044-.867.422-1.721.407-1.192-.02-1.2,1.215-2.489.818-1.078-.331-1.469.391-2.48.3-1.209-.113-.972.7-2.02.512-.746-.134-.959.548-1.889.286-.222-.063-.74.068-.791-.319a.532.532,0,0,1,.39-.5,1.543,1.543,0,0,1,.338.044c1.026.181,1.1-.566,1.826-.31s.691-.592,1.857-.535c1.349.065,1.615-.688,2.767-.3.522.175.779-.125,1.242-.5.746-.609,1.111-.039,1.932-.573.664-.431,1.2.008,2.178-.378,1.672-.663,1.983-.659,2.428-.47.581.245.595-.481,1.578-.4.455.036.953-.659,1.849-.475.276.057.593-.1.874-.053A2.1,2.1,0,0,0,87.524,140.6Z" fill="#000000"></path><path d="M86.565,74.4c1.409.527,1.12-.024-2.013,2.995-.214.207-.322.374-.445.252-.251-.251-.646-.485-.618-1.062.021-.437.716-.9,1.258-1.348C85.237,74.826,85.881,74.141,86.565,74.4Z" fill="#e8d5d5"></path><path d="M81.006,66.26c2.081-4.753,7.4-3.259,3.487-2.346-3.479.812-3.441,5.757-4.139,8.364-.083.307-.586.317-.52-.124C80.358,68.651,80.408,67.625,81.006,66.26Z" fill="#000000"></path><path d="M78.778,131.62c7.7-1.7,6.041-1.414,2.857,4.332a.384.384,0,0,1-.732-.069c-.624-2.912.213-2.012-1.808-3C77.918,132.3,78.31,131.723,78.778,131.62Zm4.666.1c.057-.1.137-.277-.03-.157-.356.254-1.372.993-1.932,1.432a.8.8,0,0,0-.3.531c.016.111.09,1.177.154,1.564a.054.054,0,0,0,.1.02C81.79,134.527,83.357,131.87,83.444,131.72Zm-.4-.486a30.922,30.922,0,0,0-3.91.961,3.806,3.806,0,0,0,1.555.581C81.842,131.988,83.024,131.34,83.041,131.234Z" fill="#000000"></path><path d="M78.836,76.646c.631.117-2.929,5.616-1.438,8.907.835,1.841-3.578.291.943-8.559C78.5,76.683,78.583,76.6,78.836,76.646Z" fill="#000000"></path><path d="M78.249,92.347c.2-.288.6-.12.522.273a16.671,16.671,0,0,0-.82,1.918C77.687,95.261,76.589,94.679,78.249,92.347Z" fill="#000000"></path><path d="M162.622,189.042c-.317-.252-4.22-9.643-4.281-9.811-3.631-9.909-4.106-8.151-2.67-22.357,1.648-16.3-.241-24.935-.306-36.129-.031-5.629.619-5.259-3.1-14.041-1.739-4.1-5.118-9.722-6.155-15.01-.517-2.64-.422-3.845-.713-5.746a21.164,21.164,0,0,0-5.649-11.628,11.372,11.372,0,0,1-3.383-5.627c-.617-2.095-.751-5.167-1.357-9.444-.933-6.6-2.083-7.586-4.031-7.219a11.733,11.733,0,0,0-1.713.421c-4.25,1.369-5.1,5.731-5.549,6.686-4.193-19.382-5.692-37.007-8.234-46.188-.916-3.306-1.666-4.747-3.123-5.915-4.179-3.342-8.246-1.657-11.525-1.235-12.089,1.546,3.517-.233-42.524,6.52-26.006,3.815-17.9,9.742-12.239,48.117.067.445-.054.323-1.024.16-4.634-.782-7.517,2.465-7.517,6.64,0,6.495,11.764,15.39,12.442,16.082-5.669.324-6.7,2.532-8.687,4.814-1.412,1.621-2.384,4.467-1.628,6.5a35.715,35.715,0,0,0,1.707,5.876,5.631,5.631,0,0,0,.884,1.2c.6.861-.376-.348-3.156,2.972-.763.912-2.726,2.161-3.354,5.257a8.961,8.961,0,0,0,3.369,8.991c1.29.863.8,1.235,5.473,4.326.019.014.2.164-.025.211-2.545.557-7.583,7.062-4.873,12.111,5.887,10.965,8.752,7.822,13.858,16.054,7.515,12.111,9.925,13.679,14.037,17.95a36.971,36.971,0,0,0,9.571,7.928c.549.337,12.15,8.375,20.274,16.9.909.955,1.451.592,1.4.059-.114-1.277-8.246-8.106-8.821-8.6-11.392-9.713-13.223-8.246-23.564-19.019-11.41-11.891-11.146-17.124-16.719-21.584a41.494,41.494,0,0,1-6.061-5.453c-4.528-5.685-3.963-7.231-2.982-10.653a10.19,10.19,0,0,1,2.706-3.728,4.3,4.3,0,0,1,4.192-.948c2.95.953,3.273.818,2.493,1.344a9.263,9.263,0,0,0-3.1,5.271c-.341,2.133,3.038,3.649,4.917,4.671,1.568.853,1.674.831,2.267.741.494-.075.7-.807.953-1.617a10.354,10.354,0,0,1,1.229-2.674,10.707,10.707,0,0,1,2.006-1.859c.491-.408.774-.016,1.365.61,2.178,2.306.506,7.728-4.029,8.139a25.768,25.768,0,0,1-7.245-1.061c-2.316-.591-4.195-1.229-4.293-.666-.043.252-.012.439.54.613,4.588,1.437,12.392,3.751,15.137.228,1.633-2.1,1.241,20.4,6.678,26.678,4.376,5.051,9.2,2.891,31.637-1.044,14.283-2.5,11.512-3.228,11.93-.506.97,6.315,1.8,7.775,3.261,10.764,2.138,4.376,2.333,4.07,2.741,3.848.776-.424-2.763-5.27-3.809-9.5-.234-.949-1.774-7-.791-7.154.019,0,14.767-2.43,19.192-3.448,7.545-1.739,8.778-7.6,8.177-14.037-.209-2.224-6.04-31.625-6.044-31.645C131.7,107,129.719,94.312,129.09,90.393c-1.342-8.344-4.323-24.827-4.516-26.843A11.44,11.44,0,0,1,125,58.619c.916-2.631,2.239-4.584,5.077-5.349,1.45-.392,1.325-.159,1.339.243.112,3.263.064,8.869,1.627,11.189.857,1.274,1.723.642,1.834,1.4,1.1,7.5,4.8,8.933,6.346,11.707,5.983,10.755,1.29,11.45,7.326,23.965,1.863,3.863,5.7,11.221,5.656,15.513-.166,15.786.917,16.129.872,22.976-.128,19.921-1.191,16.337-1.374,26.386-.118,6.414,3.432,12.031,5.858,18.713,1.081,2.975,3.35,6.13,3.777,7.3a.547.547,0,0,0,.81.384C165.243,192.6,163.005,189.346,162.622,189.042ZM54.958,13.928c.02,0,43.937-6.617,47.456-7.312,6.315-1.248,8.2.648,8.981,1.251,1.629,1.25,2.352,3.05,3.1,5.448,1.656,5.324,2.349,13.029,3.868,22.584,2.095,13.186,2.44,12.667,1.849,12.793-4.594.974-22.724,3.672-25.71,4.249-9.585,2-39.068,7.295-42.543,7.684-.58.065-1.68.485-1.993-.47-.363-1.109-.914-3.726-2.155-11.172-3-18.006-5.084-23.921-2.385-29.348C46.819,16.832,49.474,14.9,54.958,13.928ZM38.9,69.174c-.915-3.109-.006-5.646,2.2-7.016a6.289,6.289,0,0,1,3.956-.581c1.316.228,1.3.214,1.365.514C50.759,83.2,50.7,82.517,50.157,82.1,43.952,77.269,39.96,72.764,38.9,69.174Zm1.67,24.443c-.89-.593.618-3.708,1.408-4.644,2.155-2.557,2.383-2.8,2.736-2.975,2-1,3.562-1.85,5.626-1.332.6.152.551-.335,2.121,8.484.384,2.154.884,4.695,1.49,8.127.148,2.468-6,3.52-6.662,3.281a6.532,6.532,0,0,1-3.172-2c-.6-.963-.971-1.148-.561-1.291.941-.332,1-1.576,2.262-3.232,2.673-3.5,5.694-2.956,5.036-5.5-.5-1.938-3.9-3.829-5.02-3.551C42.76,89.747,40.667,93.68,40.574,93.617ZM54.688,105.81c.053.9.138.97-.313.678-2.755-1.784-2.639-1.558-2.114-1.764,1.935-.763,1.917-1.617,2.037-1.017C54.753,105.986,54.714,105.807,54.688,105.81ZM40.95,95.5c0-1.177,2.176-3.586,3.324-4.46,1.06-.809,1.877-1.636,3.848-.112.863.665,1.251.713,1.649,1.553.415.879-.3,1.309-1.272,1.787-3.566,1.753-4.772,5.476-5.219,6.012C42.362,101.382,41.23,96.854,40.95,95.5ZM45.3,122.445a21.143,21.143,0,0,1-4.861-3.826c-1.636-1.424-3.036-1.639-3.909-6.676.692-4.055,1.349-4.276,4.344-7.43.568-.6,2-1.759,2.5-1.1a6.866,6.866,0,0,0,3.741,2.249c1.329.392,2.594-1.225,5.118.447,2.588,1.713,2.753,1.613,2.836,2.178.1.652.42,2.806.408,3.1-.067-.046-2.06-1.881-2.127-1.95a13.945,13.945,0,0,0-2.956-2.773c-.652-.459-1.111.2-.374.78,1.041.811,1.682,2.054,3.751,3.86a12.478,12.478,0,0,1,2.285,2.837c2.04,3.628.1,7.429-3.382,9.644C50.966,124.873,47.185,123.451,45.3,122.445Zm12.363,7.119c-3.847,2.738-3.029,6.5-4.23,5.93-1.32-.628-2.488-1.259-3.76-2-1.644-.957-2.444-1.763-1.252-4.1,2.337-4.6,4.245-3.448,8.574-.648C57.758,129.237,57.935,129.371,57.664,129.564Zm-3.136-3.4c-2.274-1.2-2.93-.573-1.606-1.2a10.679,10.679,0,0,0,4.289-4.061c.235.716.993,6.3,1.163,7.052C58.67,129.249,58.111,128.05,54.528,126.161Zm15.054,39.712c-5.445-2.54-5.193-9.112-8.635-29.387.32-.983.894-2.553.6-3.627a5.287,5.287,0,0,0-1.488-2.917c-1-.882-.519-2.625-2-10.492,0,0-16.367-90.211-16.465-90.952a18.428,18.428,0,0,1-.057-6.516c.259-1.1,2.379-5.266,5.155-5.963a12.693,12.693,0,0,0-3.59,10.453c.282,4.2,1.682,10.81,4.262,25.934,2.183,12.808,7.55,36.6,10.549,56.408l7.3,44.1c.53,3.092,1.347,8.546,3.334,10.719,3.125,3.414,3.759,2.564,4.058,3.121A16.464,16.464,0,0,1,69.582,165.873Zm.159-46.187c1.3,1.477,1.152.146,1.578,5.36.1,1.224,1.274,5.493.708,5.587-3.6.6-7.173,1.3-8.2,1.582-.751.206-.867.224-.932-.095-.934-4.5-.107-.059-2.235-13.643-.262-1.67-.555-.492,4.023-1.859a33.476,33.476,0,0,1,4.407-.863C70.076,115.568,68.916,118.747,69.741,119.686Zm8.143-49.714a8.592,8.592,0,0,1,1.578-5.052,7.424,7.424,0,0,1,3.166-2.412,4.977,4.977,0,0,1,4.2.124c.567.118.62-.323.362-.6s-.793-.276-.9-1.8c-.136-2.015,1.672-3,3.624-3.541,2.357-.65,3.787,1.02,3.273,1.121-.977.189-2.8.439-3.681,1.62-.455.611-.612,2.19-.057,2.137.839-.077-.7-2.135,3.135-2.852,2.889-.537,5.416,1.418,7.46,2.572,1.807,1.018,4.807.353,4.2,1.07a3.73,3.73,0,0,1-2.792,1.614c-1.16.25-7.462-5.98-9.959-2.633-.25.337.012.741.455.45,2-1.31,2.8-1.17,11.03,4.178,1.989,1.294,3.712,1.262,4.722,1.725a5.762,5.762,0,0,1-1.707,1.089c-2.263.946-3.651-1.683-4.575-2.251-.648-.4-2.221-1.455-2.948-1.447a.3.3,0,0,0-.1.581,8.894,8.894,0,0,1,1.953,1.012c.561.394,5.164,4.768,5.3,4.953.931,1.274,1.959,3.434,1.794,4.957-.239,2.191.843,3.265.856,4.83a24.248,24.248,0,0,1-.681,3.543c-.284,1.75.465,2.27.646,6.061.017.367-.022.353-.406.308-1.193-.142-1.616.131-1.928-.416-.226-.4-.719-.4-1.061-.441-.524-.059,1.721-4.333,1.006-4.939a.818.818,0,0,0-.821-.152c-1.007.376-1.42,1.689-1.585,1.964-.128.215-.547-.109-1.241.683-2.753,3.145-1.351,1.818-.675-2.269.659-3.976,0-3.729.862-6.3.1-.3,1.78-5.058.762-5.327-.614-.164.055.957-1,3.738-1.306,3.45-.8,3.881-1.259,7.166-.1.7-.961,5.132-1.319,4.515-.025-.041-.362-1.364-1.308-.6-3.176,2.577-3.851,2.611-3.525,2.327,5.892-5.131,5.361-10.4,5.644-12.107.357-2.146,2.263-5.8.306-7.617-3.09-2.868-5.195-1.42-7.692-8.064-.337-.9-.911-1-.9-.613.017.63.346.83-.089.816-1.379-.044-4.97.409-6.016,1.26-3.029,2.467-2.848,2.381-4.124,7.725-1.246,5.223-2.394,6.192-1.268,11.479,1.426,6.692,6.66,10.414-1.189,3.7-.55-.469-1.2.181-1.149,1,.026.374.142.774-.393.518-2.038-.973-2.263-4.687-3.626-4.632-.337.014-.575-.014-.729-.372a4.809,4.809,0,0,1-.218-1.577c-.089-2.71,1.146-4.494,2.979-6.32C78.361,74.483,77.794,72.336,77.884,69.972Zm34.736,30.594c-.472,10.894-.053,10.765-.665,10.841-.238.028-.49.227-.693.175s-.331-.326-.506-.492a1.521,1.521,0,0,0-2.32.166c-.808,1.071-1.05-.993-2.629-.631-1.649.376-1.345,1.373-2.216.786-3.733-2.516-2.749,3.22-2.134-6.057a15.424,15.424,0,0,1,.208-3.029c.046-.187.124-.723-.224-.8-.6-.128-.715,1.919-.9,5.692-.1,2.052-.487,2.073-.681,6.181-.119,2.462,1.691,1.712,1.595,2.848-.264,3.062-.15,2.43-.3,2.745-.961-.675-9.188-14.25-6.106-18.145,1.319-1.666,3.9-2.4,5.88-3.157.488-.187,2.2-1.435,4.088-2.335,1.038-.5,1.349-1.611.343-1.8-1.038-.2-1.648.362-.044-1.137.322-.3.452-.482.829-.446a10.226,10.226,0,0,1,2.184.265c2.561.888,3.475,2.238,3.748,3.62A29.632,29.632,0,0,1,112.62,100.566ZM109.7,124.05c-2.563.577-6.371,1.089-16.5,2.923-1.819.328-4.43-18.886-4.811-24.67.177-2.548.065-5.51,2.629-7.829A10,10,0,0,1,93.544,93a19.249,19.249,0,0,0,4.923-3.326c.561-.161.52.766-.845,1.7C95.233,93,93.67,93.973,93.434,96.191c.841-.127.889-1.807,2.217-2.547a28.008,28.008,0,0,1,2.912-1.784c2.3-.846,3.547-2.814,4.266-3.639.175-.2.282.114.132.526a5.219,5.219,0,0,1-2.158,2.568c-2.216,1.278-2.153,1.491-2.6,1.234a.417.417,0,0,0-.388-.056.346.346,0,0,0,.039.612A7.2,7.2,0,0,1,99.7,95.166c.187.29.163.379-.024.5-.283.191-.433.181-.626-.048a1.115,1.115,0,0,1-.26-.352c-.193-.671-1.658-1.747-.908-.482.64,1.077.771,1.2.345,1.268a20.9,20.9,0,0,0-5.144.813,3.16,3.16,0,0,0-2.044,2.426c.02.095.128.172.2.256.069-.063.164-.112.2-.191,1.008-2.2,2.753-2.006,8.367-3.05.768-.146,5.386-3.061,5.282-1.969-.047.494-1.481.9-3.557,2.2-3.054,1.914-8.308,1.9-7.9,7.325.556,7.432,7.407,16.355,9.038,19.358.321.595.77.408.815.039.092-.754-.329-.982-1.375-2.692-.126-.206-.149-.372.124-5.576.02-.367.026-.367.406-.4,3.958-.309,3.021.356,7.188.549,1.6.075,1.223.571.837,4.62C110.356,122.953,111.059,123.745,109.7,124.05Zm-8.9-50.37a15.527,15.527,0,0,1-.637,2.914c-.094.3-.133.325-.405.166-1.991-1.162-2.938-1.115-4.715-1.55a5.556,5.556,0,0,0-2.04.1.874.874,0,0,0-.709.534c-.366.756-.555-.219-1.857.016-.7.126.593-1.784-6.488-2.614-.928-.108-1.4.524-1.308-.051,1.018-6.419,2.434-7.94,8.753-8.818,1.611.171.991.01,1.763,1.6C95.6,71.016,101.123,70.98,100.8,73.68Zm-3.884,4.1c-1.708,1.419-2,2.1-2.418,1.936a1.462,1.462,0,0,1-.959-.839c-.067-.244.165-.495.354-.7a15.009,15.009,0,0,1,1.824-1.625c.2-.177.378-.461.636-.37a5.65,5.65,0,0,1,1.361.52C97.977,76.949,97.579,77.231,96.919,77.78Zm-12.367-.388c-.215.207-.323.374-.445.252-.252-.25-.646-.484-.618-1.062.021-.437.717-.9,1.258-1.348.49-.408,1.134-1.094,1.818-.837C87.974,74.922,87.687,74.375,84.552,77.392Zm1.119,1.794c2.3.39,3.454-1.465,3.993-2.064a1.771,1.771,0,0,1,2.434.114c.286.264.3.753.475,1.28.445,1.32,1.443,2.1,3.271,2.409,2.867.484,3.541-2.708,3.541-.368a13.631,13.631,0,0,1-1.331,5.293,14.141,14.141,0,0,1-7.1,6.662c-7.091,3.4-11.77-10.535-9.1-16.463C82.2,75.269,82.291,78.613,85.671,79.186Zm1.42,14.482a6.981,6.981,0,0,0,2.363.284c.833-.091,1.174-.189.9.09-2.171,2.234-1.417,3.59-2.294,1.711-.161-.343-.957-1.69-1.059-1.99A.075.075,0,0,1,87.091,93.668Zm4.641,33.251c.13.455.211.3-4.184,1.03-.018-.032.348-7.3.48-12.68C88.369,101.435,87.411,111.828,91.732,126.919Zm13.734-40.447c-.548,1.515-1,2.576-1.444,4.146-.145.52-3.444,3.316-3.983,3.665a.889.889,0,0,1-.158-.113c-.862-.977-.89-.961-.565-1.15,2.217-1.291,3.113-1.625,3.83-3.3A23.15,23.15,0,0,1,104.71,86.2a.657.657,0,0,1,.622-.262C105.481,85.97,105.558,86.218,105.466,86.472Zm-.111,4.817a.117.117,0,0,1,.011.167c-.689.751-4.427,4.449-4.953,3.547-.219-.376.226-.423,1.254-1.3C103.741,91.933,104.627,90.649,105.355,91.289Zm5.01,22.994c-.271-.113-1.191-.061-2.1-.17a17.874,17.874,0,0,0-5.187-.425c-.418.049-2.454.055-2.442-.615.018-1.065,0-1.443.376-1.512,1.366-.242,1.272-.189,1.6.025.345.229,1.627,1.342,2.3.312a1.274,1.274,0,0,1,1.912-.211c1.979,2.087,2.318-1.53,3.579.12.52.682.5.928,1.032.614.482-.281.913-.462.925.138C112.427,115.777,112.809,115.3,110.365,114.283ZM73.788,86.563c1.7,5.815,4.187,5.018,3.244,5.616-.252.16-1.755-1.124-2.907-3.068-.772-1.3-.563-1.491-1.829-3.617-.152-.256-.243-.13-.615-1.363-.219-.719.6-1.061,1.312.356A11.883,11.883,0,0,1,73.788,86.563Zm1.1,4.8c1.2,1.3,2.074,1.644,1.505,1.723a7.983,7.983,0,0,1-1.658-1.022c-2.035-1.869-1.966-1.144-3.713-5.79-.22-.61-.076-.77,0-.823.164-.112.453.079.575.231C72.922,87.321,72.707,89.009,74.889,91.366Zm-2.042.012c2.537,2.6,3.456,2.014,3.367,2.842-.081.77.554.637.65.115A10.127,10.127,0,0,1,78.292,91.4c.228-.419-.323-.423-.4-.323-.52.638-2.14-1.09-2.6-2.174-.177-.415-.914-2.605-1.073-3.082s.307-.4.419-.2c.376.686.636,1.216.839,1.641.614,1.29.815,2.237,3.608,3.663.08.041,1.815,1.435,1.843,1.457,1.245,1,1.424,1,1.776,2.054.475,1.42.4,1.345-.173.965-.543-.359-.617-.278-2.348-.595-.679-.126-1.035-.207-1.132.083-.36,1.1,3.126-.047,5.24,3.208.438.673,1.3.441.69-.416-2.017-2.849-1.068-4.285-3.029-5.39a21.234,21.234,0,0,1-2.46-2.318c-.333-.312-.734-1.222-.374-1.5s.932,1.2,3.8,3.269c1.412,1.02,3.217,1.869,3.8,3.1a7.013,7.013,0,0,1,1.142,3.8c-1.585,31.93-.329,29.274-2.21,29.628-11.077,2.08-9.8,1.465-12.371,2.115-.293.075-.246-.151-.3-.77-.071-.872-.272-1.711-.414-2.566-.821-4.945-.376-4.9-1.02-6.979-.992-3.2,2.464-4.212,6.022-3.879,1.836.171,2.157-.3,1.885.555-1.371,4.334-3.176,7.645-3.2,8.793-.081,3.373,5.59-9.478,6.455-23.537.233-3.765-3.777-3.368-9.119-8.657-.013-.012-1.4-1.308-2.395-2.35-.394-.415-1.082-.994-1-1.411.03-.143.176-.208.349-.209a.934.934,0,0,1,.61.23C71.646,90.023,72.567,91.092,72.847,91.378Zm7.312,22.209c-.4,1.725-.222,1.773-.753,1.765-5.722-.093-5.9-.449-8.9,2.625-.394.405-.384-1.267-.323-1.83a1.163,1.163,0,0,1,.977-.888,1.048,1.048,0,0,0,1.117-.608c.919-2.139,2.15.309,3.3-1.052.376-.441.62-.876,1.524-.429,2.418,1.2,1.259-.9,2.6-.406C80.3,112.985,80.3,112.983,80.159,113.587Zm-8.179-20.9c.223.27,2.6,2.531,3.09,3.064.61.658.843.57.073.784a10.322,10.322,0,0,0-4.967,2.828c-.319.388-.441.5-.6-.238a5.388,5.388,0,0,1,.494-4.185C71.362,92.78,71.665,92.311,71.98,92.691ZM69.446,103.4c.108-2.676,1.305-4.588,6-6.1,1.3-.419.928-.661,5.264,2.281,1.961,1.331,1.162,2.566,1.144,4.838,0,.178-.707,5.93-.987,4.892-1.5-5.547-1.837-7.474-2.31-7.375-.827.169.042,1.473,1.32,6.9.433,1.834.195,2.029.429,2.941.274,1.063-1.069-.717-2.006.766-.2.319-.313.242-.95-.089a1.76,1.76,0,0,0-2.158.471c-.317.557-.774.38-1.377.132a1.742,1.742,0,0,0-2.079,1.1c-.244.58-.315.226-1.308.643-.384.16-.151.361-.187-1C70.166,110.9,69.316,106.58,69.446,103.4Zm63.562,17.189a227.555,227.555,0,0,1,4.488,22.977c.231,1.969.883,9.032-3.562,11.546-4.189,2.368-8.541,2.476-25.294,5.455-31.545,5.6-37.627,10.006-41.333-2.548-.4-1.365-4.117-24.412-4.1-24.416-.023-.257-.1-.456.2-.514,2.985-.585,15.6-2.642,28.95-5.036C111.667,124.589,133,120.578,133.008,120.589Zm-.545-.86c-2.019.607-20.36,3.831-20.935,3.955-.522.11.094-5.312.114-6.723.006-.359.153-.29.86-.416.971-.173.26-.358.733-8,.183-2.982-.213-2.8.8-2.834a56.192,56.192,0,0,0,7.35-1.3c1.571-.341,4.8-.782,7.568-1.216,1.431-.224.628-.892,2.546,8.616C133.15,119.988,132.853,119.611,132.463,119.729Zm-2.613-17.8c.087.5.2.374-4.687,1.087-6.753.983-3.962,1.006-7.932,1.473-4.228.494-4.01,1.29-3.943-.53.169-4.606.3-6.157-.784-9.308-.342-1-1.012-1.578-2.39-2.517-.639-.435-1.18-.079-1.184-.949-.018-3.616-.786-3.728-.65-5.571a16.242,16.242,0,0,1,.487-2.582c.655-2.849-.755-3.64-.579-6.126a9.341,9.341,0,0,0-2.966-6.846c-.953-.843.8.327,3.178-1.955.384-.366.534-.544.414-.762-.544-.985-1.194.1-4.782-1.544A8.267,8.267,0,0,1,102.3,64.68a8.3,8.3,0,0,0,1.9-1.079c1.25-.977,1.4-2.57.291-2.351-2.5.494-4.834-1.091-5.831-1.686a18.709,18.709,0,0,0-4.039-1.709c-.846-.867-1.963-3.088-6.193-1.562a7.316,7.316,0,0,0-1.646,1.048c-1.292.927-1.278,2.932-1.117,3.651.156.7-1.073-.2-3.46.779-3.482,1.42-5.215,5.189-5.063,8.947-.1,2.465.095,3.554-1.138,4.793a10.169,10.169,0,0,0-2.931,4.114c-1.124,3.364-.133,3.246-1.136,3.212-.769-.026-1.056.642-.815,1.353.106.312.161.559-.049.571a.75.75,0,0,0-.741.544c-.376,1.084,1.516,3.582.7,3.483-.94-.115-1.257.189-1.421.737-.087.319.025.675.738,1.532.64.77.939.764.719,1.081-2.06,2.956-2.972,4.106-2.011,7.694.132.492.53.382.209.941-1.74,3.017,1.171,13.971-.032,14.24-2.991.681-.224-.185-8.574,1.761-.632.147-1.914-9.337-2.078-10.247-5.6-31.244-7.747-40.858-8.186-43.792-.238-1.139,1.3-1.235,1.688-1.288,10.463-1.45,47.928-8.592,47.948-8.594s18.251-2.737,19.338-3.167a4.292,4.292,0,0,1,.957-.2c.237-.036.41.307.6,1.06.8,3.251,1.926,11.664,3.377,17.958C124.325,68.625,129.846,101.909,129.85,101.929Zm4.875-37.4c-1.254-.273-1.888-3.6-2.109-5.063a44.192,44.192,0,0,1-.325-6.142C133.736,54.5,134.83,63.658,134.725,64.528Z" fill="#000000"></path><path d="M76.49,134.869c-.025.6.912,1.552.589,1.97-.229.295-1.589-.373-1.786-.31a2.5,2.5,0,0,1-2.47.227,2.694,2.694,0,0,1-1.106-2.686c.316-2.222,3.559-2.541,4.519-1.036A3.417,3.417,0,0,1,76.49,134.869Zm.065,1.471c.09-.117-.673-.705-.632-1.587.064-1.382-.683-1.877-1.193-1.977a1.91,1.91,0,0,0-1.584,3.417c1.28.709,1.732-.58,2.472-.213C75.734,136.038,76.505,136.405,76.555,136.34Z" fill="#000000"></path><path d="M77.084,156.2c.131.768-.023.778-.8.99-1.508.414-1.692.353-1.78.124-.46-1.889-.162-2.151-.664-2.018-1.189.314-1.109-.182-.778,1.806.075.449.112.63-.152.689a12.155,12.155,0,0,1-1.866.36c-.331.043-.579-.025-.676-.486-.74-3.531-.9-2.363,1.757-5.946.268-.362.36-.4.782-.244.664.253,2.585,1.259,2.934,1.448a1.628,1.628,0,0,1,.628.506A6.9,6.9,0,0,1,77.084,156.2Zm-1.224.321c.388-.092.56-.066.5-.457-.448-2.931-.227-2.014-3.189-3.62-.362-.2-.453-.216-.716.154-2.009,2.824-1.907,1.9-1.452,4.435.064.356.16.452.512.374.89-.2.929-.059.825-.621-.042-.228-.112-.8-.181-1.195-.112-.654.054-.584,1.448-.866.785-.16,1.109-.166,1.173.238.118.742.216,1.286.286,1.6C75.116,156.777,75.443,156.615,75.86,156.516Z" fill="#000000"></path><path d="M76.575,139.477c.078.552-.372.654-.894.686-.959.058-.794.493-1.731.559-.483.034-.278.051-1.19.408-.758-.191-.837-.26-.874-.065a.386.386,0,0,1-.455.336c-.524-.147-.226-1.815.774-1.319.794.394.77-.3,1.432-.227.787.09.754-.563,1.768-.578C75.637,139.273,76.5,138.975,76.575,139.477Z" fill="#000000"></path><path d="M75.375,35.84c.206,8.2-11.99,8.551-12.292.449C62.77,27.878,75.173,27.75,75.375,35.84Zm-11.567.2c.066,7.131,10.77,7.007,10.758-.022C74.554,28.743,63.744,29.16,63.808,36.039Z" fill="#000000"></path><path d="M74.977,43.816c.64-.088.6.693.2.815-1.756.542-1.677.076-2.873.811-.862.531-1.1-.352-1.648.144-2.066,1.88-1.947-.777-2.915.081a8.34,8.34,0,0,1-.988.939c-.085.063-1.444.252.6-1.565,1.591-1.412,1.392,1.461,3.011-.241.7-.736,1.021.257,1.668-.183a2.657,2.657,0,0,1,1.119-.453A12.143,12.143,0,0,0,74.977,43.816Z" fill="#000000"></path><path d="M70.115,51.1c.554-.21,1.306.567-.521,1.069-1.765-.23-.453.1-2.383.182-.969.04-1.158-.231-1.8.177-1.453.924-1.316-.414-2.316.409-.888.731-1.39-.151-1.881.349-1.185,1.208-1.656-.5-2.062.282-.7,1.343-1.284-.183-.047-1.038.193-.134.69.131.9.244.544.294.583.02,1.05-.4.79-.708.743.43,1.683-.159,1.841-1.153.815.369,2.5-.544,1.166-.633,1.143.075,2.114-.236.533-.171.415.185,1.027-.168C69.1,50.854,69.036,51.512,70.115,51.1Z" fill="#000000"></path><path d="M69.286,133.5a1.08,1.08,0,0,1,.695,1.128,8.91,8.91,0,0,1-1.327,3.261c-.254.636-.638.592-1.274.347a7.016,7.016,0,0,1-2.558-1.753,1.613,1.613,0,0,1,.9-2.605,1.444,1.444,0,0,1,1.172.088c.457.173.4.516.691,0A1.218,1.218,0,0,1,69.286,133.5Zm-.336,2.312c.724-1.576-.485-1.789-.715-1.47-.487.674-.621,1.308-1.172.79-.431-.405-.754-.77-1.211-.547-.98.477-.727,1.392-.022,1.892a18.719,18.719,0,0,0,1.6,1.038C68.025,137.853,68.15,137.553,68.95,135.813Z" fill="#000000"></path><path d="M68.631,141.019c.75-.256.984.465.3.818-.668.342-1-.049-1.256.382a.78.78,0,0,1-1.473-.3c-.039-.173-.063-.35-.107-.6.237-.833.209-1.015.579-1.054.284-.03.753.215.4.632-.328.393-.193.54-.093.737.237-.181.109-.055.325-.37C67.7,140.688,67.821,141.3,68.631,141.019Z" fill="#000000"></path><path d="M67.175,21.947c.134.029.493.654-.171,1.142-.632.465-1.089-.034-1.765-.528-.427-.311-.511,2.638-2.136.957-.5-.515-.891-1.634-1.422.376a.776.776,0,0,1-1.345.219c-.838-.946-.682-1.609-1.329.173a.872.872,0,0,1-1.566.162c-.231-.371-.333-.591-.51-.833a8.03,8.03,0,0,0-.5,1.554.476.476,0,0,1-.882.08c-.038-.061-.9-2.845-1.3-1.506A13.762,13.762,0,0,1,53.6,25.9a.841.841,0,0,1-1.564-.086c-.263-.615-.375-1.755-.655-1.125-.911,2.046-.365,2.213-.971,2.277-.311.033-.3-.455-.311-.729a6.155,6.155,0,0,1,.856-2.324.714.714,0,0,1,1.361.1c.3.785.435,1.717.618,1.292.415-.962.609-3.933,2.239-2.6.577.471.615,1.044.863.55.447-.892,1.088-.9,1.512-.406.315.365.193.5.646.906.386-.53.705-2.324,1.842-1.448a5.261,5.261,0,0,1,.728.786c.3.343.227-.175.565-.681.589-.879,1.312-.9,1.852-.3,1.148,1.266.453.806,1.24-.441.554-.876,1.325.054,1.68.355C66.589,22.43,66.469,21.8,67.175,21.947Z" fill="#000000"></path><path d="M66.356,54.515a.414.414,0,0,1,.045.807,3.69,3.69,0,0,1-1.522.353c-2.2-.3-1.688.858-3.625.325-.637-.176-.721.24-1.208.474a.591.591,0,0,1-.718-.9c.374-.523.407.262.935-.2.937-.815,1.119.424,2.647-.342a1.864,1.864,0,0,1,1.3-.317C65.489,55.011,65.9,54.432,66.356,54.515Z" fill="#000000"></path><path d="M60.462,40.566a2.382,2.382,0,0,1-.3,4.479c-2.159.609-2.313-1.067-2.972-.711a5.993,5.993,0,0,1-4.643.46c-6.516-2.063-5.66-10.963.194-12.15a6.381,6.381,0,0,1,7.659,6.268C60.227,40.423,60.149,40.421,60.462,40.566Zm-.853,3.791c1.8-.045,2.013-3.233-.114-3.17C57.5,41.246,57.2,44.139,59.609,44.357Zm-.183-4.348a5.465,5.465,0,0,0-4.015-6.469,5.26,5.26,0,0,0-6.581,4.994c.173,3.726,2.934,5.3,3.119,4.833C53.545,39.327,59.071,41.555,59.426,40.009Zm-5.173,4.147c.754.04,2.883-.368,2.828-1.185-.073-1.071.624-1.48-.309-1.507C54.251,41.392,50.537,44.365,54.253,44.156Z" fill="#000000"></path><path d="M59.751,42.028c.184.476.8,0,.817.559-.025.679-.664.246-.512.744.056.181-.114.545-.311.538-.7-.026-.138-.646-.971-.544-.606.075-.65-.514-.214-.728.325-.16.5-.036.5-.4C59.06,41.565,59.587,41.6,59.751,42.028Z" fill="#000000"></path><path d="M59.375,46.646c.588-.182,1.005.508.294.835-1.083.5-.385.3-2.663.675-.52-.154-.559-.336-.995-.055-1.42.917-1.392-.522-1.918.006-.644.647-.933.71-1.238.535-.911-.52-.708-.333-1.184.3-.355.47-.853.077-.593-.378,1.442-2.523,1.475,0,2.5-1.072.532-.557.676-.685,1.349-.183.745.555,1.046-.757,1.983-.116C57.333,47.482,59.355,46.652,59.375,46.646Z" fill="#000000"></path><path d="M51.264,37.65c.118-3.661,5.494-3.559,5.478.276C56.726,41.659,51.139,41.512,51.264,37.65Zm4.718.177c0-2.6-3.926-2.771-3.956-.153A1.98,1.98,0,1,0,55.982,37.827Z" fill="#000000"></path><path d="M53.631,111.972c.821.58,1.779,1.767,1.063,2.675-1.019,1.29-1.872.976-4.126,3.407-.838.9-.794,1.852-1.788,3.017a2.031,2.031,0,0,1-2.855.181c-.969-.733-5.006-5.231-5.028-7.444-.021-2.131,1.41-3.37,3.253-4.8C47.591,106.352,50.072,109.462,53.631,111.972Zm-.778,2.805c1.234-.85,1.241-1.025.815-1.432a31.867,31.867,0,0,0-3.281-2.544c-2.357-1.376-3.745-2.7-6.091-.6-3.751,3.348-2.984,4.274,1.182,9.258.969,1.159,2.018,1.916,2.806.6C49.363,118.258,48.673,117.652,52.853,114.777Z" fill="#000000"></path><path d="M53.668,51.846c4.6.138,4.317,6.942-.063,6.759C49.139,58.7,48.948,51.705,53.668,51.846ZM53.3,57.758c2.463.043,3.506-2.074,2.613-3.649A2.605,2.605,0,1,0,53.3,57.758Z" fill="#000000"></path><path d="M49.19,21.681a12.435,12.435,0,0,1-.091,7.3c-.163.331-.7.838-1.022.433-.548-.682,1.516-.76.465-7.036-.085-.506-1.2,1.112-1.432,1.745-.259.7.124,1.246-.218,1.374a.44.44,0,0,1-.544-.2C45.655,23.747,48.532,19.83,49.19,21.681Z" fill="#000000"></path><path d="M134.725,64.528c.105-.87-.7-10.445-2.509-11.463-.091.27-.069,6.968.916,9.976A1.972,1.972,0,0,0,134.725,64.528Z" fill="#b07f3b61"></path></g></svg>