<svg xmlns="http://www.w3.org/2000/svg" viewBox="0 0 200 200" height="400" width="400"><g><path d="M194.13,119.51c-.18,7.29-.44,5.35-.76,7.85a20.34,20.34,0,0,1-2.28,6.07,9.46,9.46,0,0,1-.75,1.45,5.67,5.67,0,0,1-.57.1c-.3.05-.53-.15-.43-.46s.26-.65.39-1,0,.07-1.14,1c-.13.1-.4-.11-.36-.25a9.52,9.52,0,0,1,.34-1.07c-.52.44-1,.85-1.6,1.24a.18.18,0,0,1-.24-.06c-.15-.27.28-1.15.38-1.45a5.71,5.71,0,0,1-1.09.94c-.09.06-.43.09-.35-.31l.19-.91a32.88,32.88,0,0,1,1.82-3.48,17.7,17.7,0,0,0,2.31-5.55l.45-1.82a8.3,8.3,0,0,0-.1-3.36,1.05,1.05,0,0,1,.12-.81,5.77,5.77,0,0,1,1.35-2,1.54,1.54,0,0,0,.31-.75.3.3,0,0,0-.14-.25c-.14,0-.36,0-.42.16a4.31,4.31,0,0,1-.86,1.08,20.51,20.51,0,0,0-1.59,3.13c-1.05,2.19-6.27,2.64-7.41,2.91a4.14,4.14,0,0,0-1.91,1.08c-.43.41-.87.8-1.32,1.19a1.62,1.62,0,0,1-1,.43c.11-.48.51-.91.56-1.22s-.06-.41-.35-.3-.68,1.13-.76,1.49a2.39,2.39,0,0,1-.7-.28c0-.58.5-1.07.58-1.42s-.06-.41-.31-.3-.62,1-.73,1.33a1,1,0,0,1-.11-.74,4,4,0,0,1,1.91-2.78c.9-.55,2.31-1.27,3.21-1.85a1,1,0,0,0,.16-1.08c-1.15-2.59-1.42-2.88-1.43-3.8a7.07,7.07,0,0,1,1.16-4,7.48,7.48,0,0,1,1.38-1.43,7.34,7.34,0,0,1,4.2-1.76c0-.53,0-.61-.44-.55a7.79,7.79,0,0,0-6.91,8.5c.06.41.14.49,1.25,2.94H178.5c.37-1.14-.26-1-.51-.49a4.7,4.7,0,0,1-.84,1.35c-2,1.79-3,1.61-5.82,2.08-2.56.43-2.78,1.49-3.14,2.33a.9.9,0,0,1-1.08.56c0-.3,0-.6,0-.9s0-.46-.23-.49-.31.24-.34.42,0,.62,0,.92c-.59.07-.72-.1-.85-.53s0-.86-.32-1-.28.1-.31.25a2.82,2.82,0,0,0,.06,1c-1.31-1.3-.56-3.5,1-4.43a22.81,22.81,0,0,0,4.44-4,5.19,5.19,0,0,0,1.5-3.24.16.16,0,0,0-.29-.07,2.35,2.35,0,0,0-.22.45,6.21,6.21,0,0,1-1.29,2.24h-.1a6.33,6.33,0,0,0,.56-2.35,5.37,5.37,0,0,0-.23-2.07,8.65,8.65,0,0,1-.22-1,7.3,7.3,0,0,0-2.15-4.11.61.61,0,0,1-.25-.45,2.32,2.32,0,0,0,1.21-.47c6.79-4.54,8-4.15,9.84-4.78a13.67,13.67,0,0,1,6.67,0,9.72,9.72,0,0,1,4.18,2.65,22.12,22.12,0,0,1,2.74,3.73,15.15,15.15,0,0,1,1.8,6.54C194.31,112.08,194.13,119.49,194.13,119.51Z" fill="#cfa745"></path><path d="M190.11,158.93c.08,1.65-.88,2.78-2,3.93-4,4.2-2.52,2.25-5,5.21a17,17,0,0,1-1.53,1.53,3.89,3.89,0,0,1-.58.35,7.48,7.48,0,0,0,.68-3c0-.63,0-8.25,0-8.6.13-5.32-.3-10.45-.24-12.71.24-7.87-.2-5.69-.08-7.87a1,1,0,0,1,.16-.4c3.48-5.29,3.44-5.38,4.38-6.82,0,0,.3.38.33.4-1.31,2.88-2.06,3.34-2.35,4.5a2.84,2.84,0,0,0,4.18,3.21c1.17-.94.94-1.32,1.65-1.8C189.79,139.29,189.73,150.25,190.11,158.93Z" fill="#6c4210"></path><path d="M189.9,120.12a7.08,7.08,0,0,1-.23,2.2c-.94,3.37-.59,3-3.13,6.68-.56.82-1.19,1.59-1.75,2.42-.77,1.14-2.81,4.3-3.12,4.76a2.84,2.84,0,0,1-.08-.77c0-.49.11-3.11.16-3.72a31.09,31.09,0,0,0,.31-4.83,19.24,19.24,0,0,1,0-4.31,7.81,7.81,0,0,1,1.77-.33c2.53-.44,5.09-1.16,5.91-3A7.79,7.79,0,0,1,189.9,120.12Z" fill="#6c4210"></path><path d="M188.77,164c0,.38-.05.73-.11,1.08-.41,2.64-.48,2.71-1.55,2.8-.89.07-1.79.08-2.69.11l-.24,0a39.19,39.19,0,0,1,2.85-3,1.66,1.66,0,0,1,.69-.51Z" fill="#5f4f4a"></path><path d="M178.86,89.25v0Zm0,.17v0Zm.42,8.42c-5.31,1.36-6.15,2-10.9,5.09a5.68,5.68,0,0,1-.55.28,10.31,10.31,0,0,0-2.74-5.07.71.71,0,0,0-1,0,21,21,0,0,0-1.91,3.21c-.42.87-.39,1-.8,1.83a.19.19,0,0,1-.33,0,9.15,9.15,0,0,0-2-3.26c-.14-.15-.26-.32-.39-.47a.61.61,0,0,0-1,0,13,13,0,0,0-1.71,4.63c-.25.75.33.73-.63,2.18a6.32,6.32,0,0,0-1.36,4.07l-.11.07a2.44,2.44,0,0,1-.54,0c-.23,0-.24-.22-.22-.74.05-1.11.16-2.22.2-3.34,0-.92.33-2.88.47-5.41.05-.79,1.61-15.1,1.63-17.12,0-.31,1.12-15.37,2.92-19.27.31-.69.76-.42,2.86-.54,6.6-.36,4.92-.51,9.33-.1a36.22,36.22,0,0,0,3.75.31c4.18-.05,9.34,1.2,11.2,4.95,2.19,4.39,2.27,10.29,2.47,13.47,0,0,.76,15.89.79,16.36a.86.86,0,0,1-.05.23,13.78,13.78,0,0,0-8.7-1.52s-.4-7.51-.4-7.53c-.25-6.35-.13-4.56-.17-6.51,0,0-.21-7.82-.21-7.84-.2-4.69-1.24-8-5.82-9.17-.22-.06-.48,0-.46.2s.5.36.78.48a5.62,5.62,0,0,1,3.46,2.48,11.65,11.65,0,0,1,1.4,5.45C178.68,91,179.29,94.73,179.29,97.84Z" fill="#6c4210"></path><path d="M181.41,127.31a15.79,15.79,0,0,1-.18,2.47c-.07.71-.25,4.4-.25,4.43,0,.64,0,1.26,0,1.88,0,1.07-.52,1.43-1.29,1.45s-1.51,0-2.25.08c-2.4.23-13.58-.18-14.95-.25-.7,0-1.39-.13-2.09-.21a3,3,0,0,1-1.31-.7c-.48-.31-.65-2.9-1-4.46-.54-2.65-.27-4.27-.22-8.29a16.16,16.16,0,0,1,.16-2.2c.13-.9.19-1.2.66-1.6.18-.15.37-.3.54-.47a.67.67,0,0,1,.55-.22,6.57,6.57,0,0,0,2.22.6c.62.08,1.25.05,2,.07-.05.25-.09.47-.15.68a2.39,2.39,0,0,0,1.29,2.94,6.24,6.24,0,0,0,2.06.38,1.42,1.42,0,0,0,1.23-.49,3.3,3.3,0,0,0,.52-1c.36-1.23,2.18-1.42,3.48-1.56a8.07,8.07,0,0,0,5.37-2.4,2,2,0,0,1,2-.47,2.64,2.64,0,0,1,.4.12c-.69.55-2.33,1.16-3.64,2.21a4.59,4.59,0,0,0-1.59,2.93,1.37,1.37,0,0,0,.32,1.2,2.67,2.67,0,0,0,3.75.23c1-.82,1.33-1.49,2.41-1.86C181.32,127.11,181.32,126.27,181.41,127.31Z" fill="#6c4210"></path><path d="M181.16,157.89c0,11.63.43,12.71-3.56,12.87-5.81.23-28.19.06-119.59.06-41.7,0-41.58.2-47.92-.14-4.35-.22-3.44-4.08-3.56-9.37-.35-15.62,0-9.49-.09-18.05,0-3.95-.29-6.33.51-7.14.63.37.92.62,1.46.6a41.94,41.94,0,0,0,5.44.18c.49,0,1,0,1.48.07,11.81.5,8.26.19,11.87.15,3.07,0,3.45.13,7.4-.08,1.34-.24.34-.68.16-.67-.9,0-2.5,0-3.39,0-1.39,0-1.53.12-1.91,0,3.79-5.9,2.5-3.94,5.43-8.06.23-.32.46-.63.66-1,.88-1.46,2-2.8,2.69-4.34.33-.71.88-.42,4.79-.29a3.28,3.28,0,0,0,.83,0c.25-.07.48.16.74,0s.27.1.19.28a20.55,20.55,0,0,1-2,3c-.33.44-.57,1-.86,1.42-.71,1.12-2.14,3.29-2.85,4.54A33.23,33.23,0,0,1,37,135.8a4,4,0,0,0-.88,3.08c0,1,.06,2.06.13,3.09,0,.69.26,1.38.29,2.08.1,2.77-.31,3.35-.19,6.16.11,1.66.69,4.62,1,6.45a1.28,1.28,0,0,0,1,1.09l.27.08c-.5,2.09-.82,3-.57,4.44,0,.19,0,.45.34.42s.22-.3.23-.48a9.22,9.22,0,0,1,0-1.1c.13-.71.28-1.41.41-2.11a6.23,6.23,0,0,1,.42-1.19l.66.12c-.57,1.25-.31,3.2-.21,4.58,0,.13,0,.26.19.29s.34-.28.31-.54c0-3.95,0-4.37,1.12-4.45,0,.46.13.91.16,1.37.18,2.89,0,3,.41,3.49.28-.06.36-.24.36-.52,0-.89,0-1.78,0-2.67-.06-.7-.11-.72-.23-1.75h2.26v3.83c0,.16,0,.33,0,.49s.08.31.3.29.25-.13.26-.29c.07-1.35.11-1.42.17-4.1,0-.17.06-.29.25-.28l1.49.06a14.59,14.59,0,0,1,.18,2.64c0,.58.15,1.14.23,1.71,0,.17.08.28.28.26s.25-.15.26-.3a27.93,27.93,0,0,0-.21-4.32c.59,0,1.18,0,1.76,0,.21,0,.21.16.24.32.39,2.73.13,3.34.28,3.9.11.23.46.4.51,0a12.5,12.5,0,0,0-.12-4c-.07-.26,0-.32.3-.39l.38-.08c.66-.08.72,0,.78.61a11.79,11.79,0,0,1,.12,3.31,1.37,1.37,0,0,0,.2.9.4.4,0,0,0,.32.16c.18,0,.06-.17.1-.25a2.81,2.81,0,0,0,.19-1.64c0-.89-.17-1.77-.27-2.65-.06-.53-.11-.44,1.75-.59a30.37,30.37,0,0,0,.26,4.6.42.42,0,0,0,.06.21c.08.09.19.21.29.21a.38.38,0,0,0,.25-.24c.15-.81-.16-2.37-.16-4.73h1.58c0,1.14.06,3.08.12,4a5.6,5.6,0,0,0,.26,1.13c0,.07.13.17.19.16a.34.34,0,0,0,.26-.14,1.24,1.24,0,0,0,.07-.54c-.19-1.47-.12-3-.24-4.43a.59.59,0,0,1,0-.14c.5-.19,1,0,1.49,0,.18,1.76,0,1.69.39,4.45.07.53.69.67.67.2,0-.29,0-.59,0-.89-.29-3.62-.32-3.44-.26-3.72a3,3,0,0,1,1.4-.06c.67.16.33-.07.49,2.52,0,.7.13,1.4.2,2.1a1.31,1.31,0,0,0,.1.32.3.3,0,0,0,.39.21c.38-.09.12-.35-.07-4.77a1.36,1.36,0,0,1,0-.29l1.32-.17c.2,0,.28.1.29.25a6.79,6.79,0,0,1,0,.78c0,4.05,0,2.8.13,4.22,0,.2.32.49.51.39a.42.42,0,0,0,.21-.47c-.22-1.06,0-.72-.24-5.27h1.34c.36,2.4.4,3.38,1,4.59.1.19.19.31.41.26a.48.48,0,0,0,.22-.52c0-.14-.13-.27-.18-.4a17.88,17.88,0,0,1-.78-3.61c-.08-.51,0-.45,1-.45.27,1.38.85,4.29.87,4.39.07.43,0,.59.68.29a26.3,26.3,0,0,0-.88-4.65h1.51c.21.86.43,1.71.6,2.57s.14,1.71.21,2.15.74.4.69,0a16.59,16.59,0,0,0-.73-4.32,1.13,1.13,0,0,1,0-.32c.48.05.94.08,1.39.15a.41.41,0,0,1,.24.27,29.17,29.17,0,0,1,.81,4.83.44.44,0,0,0,.08.25c.09.09.22.19.31.17s.21-.14.25-.25a.58.58,0,0,0,0-.32,25,25,0,0,0-.7-4.48,2,2,0,0,1-.06-.3l2.29.27c-.39,3.24-.56,3.82-.09,4.79a.35.35,0,0,0,.23.18c.08,0,.35-.32.27-.69a7.71,7.71,0,0,1,0-2.35c.1-.62.14-1.25.21-1.91h1a1.51,1.51,0,0,1,0,.73,17.8,17.8,0,0,0,0,2.53,3.68,3.68,0,0,0,.19.81c.1.27.42.47.6.24a.6.6,0,0,0,0-.42,5.8,5.8,0,0,1-.2-2.19c0-.45,0-.89,0-1.34s0-.35.36-.33l1.12,0c.61,3.8.54,3.74.75,4a.38.38,0,0,0,.33.11.39.39,0,0,0,.21-.27,1.57,1.57,0,0,0,0-.43c-.09-.55-.56-3.34-.6-3.53a6.78,6.78,0,0,0,1-.11c.42-.11.59.13.7.43a16.94,16.94,0,0,1,.77,3.55c.07.38.27,1.06.62.86a.39.39,0,0,0,.19-.51,7.78,7.78,0,0,1-.17-.81,17.89,17.89,0,0,0-.77-3.53,11.23,11.23,0,0,1,1.74,0,38.69,38.69,0,0,1,0,3.9,1.19,1.19,0,0,0,.11.42c0,.08.16.2.22.18a.56.56,0,0,0,.29-.21s0-.14,0-.21a30.83,30.83,0,0,0,.07-4c.24-.17.52,0,.77,0,.55,3.4.5,3.33.8,4a.35.35,0,0,0,.42.25h0c.17,0,.26-.21.2-.45a17.51,17.51,0,0,1-.7-3.78h1.65c.39,0,.13.07.59,3.64,0,.15.07.31.27.29s.37-.16.35-.52c-.08-.83-.31-3.09-.35-3.43l1.17-.09a.31.31,0,0,1,.36.31c.43,4.44.38,4.16.49,4.35a.28.28,0,0,0,.51-.06c.1-.27.11-.12-.29-4.58h1.77s0,0,0,.07a38.08,38.08,0,0,0-.16,4c0,.21.26.42.42.38.36-.07.24-.7.28-1.41.06-.88.06-1.75,0-2.62a4.07,4.07,0,0,1,0-.47h1.2c-.11,4.76-.22,4.67,0,5s.47,0,.48-.28c0-.81.1-1.63.13-2.44.07-2.27-.22-2.27.51-2.27a1.07,1.07,0,0,1,.25,0,24.08,24.08,0,0,0,.89,3.8.47.47,0,0,0,.6.38c.08,0,.14-.21.15-.32s-.07-.21-.11-.31a22.29,22.29,0,0,1-.76-3.23,3,3,0,0,1,0-.42c1-.09,1-.18,1.07.32a22.21,22.21,0,0,0,.58,3.33c.06.19.18.34.4.29s.24-.26.24-.45-.52-3-.56-3.44c0-.2.07-.28.26-.25a9.4,9.4,0,0,1,.92.2.59.59,0,0,1,.26.32c.89,2.81.7,3.3,1,3.32s.42-.26.37-.53c-.18-.81-.61-2.64-.64-2.76.39-.15.73.12,1.15.07,0,.36.44,3.23.52,3.57a.28.28,0,0,0,.41.24.24.24,0,0,0,.18-.29c-.09-.94,0-.58-.45-3.25l.54.09a34.47,34.47,0,0,1,1,3.9.41.41,0,0,0,.18.56.42.42,0,0,0,.52-.63c-.48-2-.42-1.93-.92-3.79a3.59,3.59,0,0,1,1.45-.14c1,2.94.52,4.44,1.19,4.31.2,0,.28-.18.25-.48a23.14,23.14,0,0,0-.67-3.83h2.07a1.1,1.1,0,0,1,0,.26,11.78,11.78,0,0,0-.55,3.16,3.12,3.12,0,0,0,0,1.52.39.39,0,0,0,.3.18c.06,0,.16-.12.2-.21a1.51,1.51,0,0,0,.11-.43,14.43,14.43,0,0,1,.54-3.82c.24-.72.28-.75,1.14-.64.29,3.72.28,3.92.52,4.46.07.2.25.2.42.14s.15-.16.13-.31l-.39-3.84c0-.16,0-.33,0-.52l1.29-.09a33.32,33.32,0,0,1,.52,5,.65.65,0,0,0,.16.38.32.32,0,0,0,.48-.27,21.3,21.3,0,0,0-.49-4.85c0-.18,0-.25.2-.25.34,0,.67,0,1,0s.2.13.24.26c.21.72.44,1.44.62,2.17.3,1.14.18,1.86.71,1.89a.39.39,0,0,0,.26-.24,1.16,1.16,0,0,0,0-.49c-.7-3.71-.85-2.86-.85-3.59.42,0,.8,0,1.17.1.11,0,.24.18.29.3a15.63,15.63,0,0,1,.57,1.67c.18.72.47,2.37.48,2.49a.33.33,0,0,0,.38.32.3.3,0,0,0,.28-.39,13,13,0,0,0-1.11-4.49h1.49c.16,0,.24.08.3.25a15.31,15.31,0,0,1,.65,3.93.55.55,0,0,0,.37.55.49.49,0,0,0,.28-.56,19.41,19.41,0,0,0-.61-4h2c.17,0,.19.12.17.28s-.33,2.71-.35,3.33a5.62,5.62,0,0,0,.18,1.15.26.26,0,0,0,.28.25.37.37,0,0,0,.36-.43,11.1,11.1,0,0,1,.12-3.45,2.48,2.48,0,0,1,.18-1l.22,0c.5,0,.51,0,.54.56.16,3,.15,3.31.42,4.14a.27.27,0,0,0,.38.21c.4-.27.07-.4-.15-4.09,0-.2,0-.41,0-.66a2,2,0,0,0,.34,0,.47.47,0,0,1,.54.38,17.6,17.6,0,0,1,.81,4.41c0,.16,0,.35.27.33a.33.33,0,0,0,.36-.39,13.62,13.62,0,0,0-.75-4.47,1.41,1.41,0,0,1,0-.2c.34,0,.66.05,1,.1.06,0,.14.11.18.18a11.62,11.62,0,0,1,1.34,3.56c0,.11,0,.22,0,.33.06.4.7.46.64-.06a10.52,10.52,0,0,0-.2-1.37,14.68,14.68,0,0,0-1.12-2.63c.86,0,1.15-.2,1.46.57a22.17,22.17,0,0,1,1.12,3.81c0,.09.06.18.07.27s.19.3.39.28.29-.18.26-.42a19.66,19.66,0,0,0-.94-3.59c-.11-.29-.23-.57-.38-.93a8.58,8.58,0,0,1,1.6.14c.25,0,.24.91.9,3.95.06.24.22.65.44.52a.64.64,0,0,0,.27-.38,1.32,1.32,0,0,0-.08-.44c-.67-3.68-.51-2.82-.66-3.52a.75.75,0,0,1,.18-.08c.27,0,.62-.13.79,0s.19.49.25.76c.2.86.7,3.46,1,3.6a1.05,1.05,0,0,0,.49.13.62.62,0,0,0,.1-.38c0-.17-.15-.33-.2-.51-.16-.64-.8-3.41-.85-3.6.23-.2.47-.09.7-.09s.09.28,1.64,4.59a.67.67,0,0,0,.2.31.34.34,0,0,0,.52-.39,29.56,29.56,0,0,1-1.29-3.72s0-.07,0-.11-.15-.37-.11-.51.35-.16.54-.16c.41,0,.81,0,1.27,0,0,.36-.08.68-.09,1a8.63,8.63,0,0,0,.44,3.23,1.94,1.94,0,0,0,.31.44.52.52,0,0,0,.24-.66,9.82,9.82,0,0,1-.38-2.91c0-.35.06-.69.09-1.06l.78-.12a14.86,14.86,0,0,1,1.07,3.82c.15.65.69.24.62-.18a19.79,19.79,0,0,0-1-3.63c.69-.24.85-.14,1.09.44,1.39,3.5,1.11,4.76,1.76,4.54a.25.25,0,0,0,.21-.28,2,2,0,0,0,0-.34,24.72,24.72,0,0,0-1.4-4.38.73.73,0,0,1,.41-.12,4.21,4.21,0,0,1,.6.11.38.38,0,0,1,.21.22c1.36,3.35,1.23,3.67,1.51,3.54a.53.53,0,0,0,.24-.71c-1.1-3.13-1.05-2.9-1.15-3,1.42,0,1.31-.08,1.55.38a11.87,11.87,0,0,1,1.16,3.39c0,.27.22.29.4.29s.26-.2.26-.35a2.5,2.5,0,0,0-.09-.66,17,17,0,0,0-1.06-3l1-.08a14.69,14.69,0,0,1,1.52,4.2c.06.34.09.67.39.64s.28-.45.25-.69a14.63,14.63,0,0,0-1.37-4.06c.22-.23.5-.13.75-.15s.55,0,.83,0c.08.53,0,.12.65,3.68a.46.46,0,0,0,.37.45.25.25,0,0,0,.27-.29c0-.48-.09-.71-.65-3.9l.73-.06c.66,3.19.75,3.77,1,4a.23.23,0,0,0,.39-.13,1.11,1.11,0,0,0,0-.48c-.8-3.79-.82-3.1-.68-4.62.25-2.37-.16-2.87-.12-4.57.06-5.22.15-3.43,0-5.8a27.67,27.67,0,0,1-.13-4.73c0-.5.13-1.18.14-1.47,0-3.55-.1-3.55.06-4,2.45-8.6,1-4.22,3-11.32.19-.69.34-1.39.51-2.13h4.64c-.06,6.1-.1,7.52.27,9,.56,2.23,0,1.58.79,4.16.1.34.18.43.75.89-.48,0-.88,0-1.29,0-.57,0-4.92-.34-5.57-.36a5.9,5.9,0,0,0-.84,0c-.14,0-.34,0-.35.2a.37.37,0,0,0,.29.41c.89.23,1.16.27,6.49.42a7.06,7.06,0,0,0,2.05-.09,9.15,9.15,0,0,1,1.42.09c6.46.45,14,.43,15.36.32.58-.05,4-.05,4.14,0S181.16,157.88,181.16,157.89Z" fill="#6c4210"></path><path d="M176.39,172.55c-.73,2.68-.74,2.88-1.13,3.49-.5.88-7,.25-7.06.25a1.29,1.29,0,0,1-1-1c-.16-.79-.36-1.58-.55-2.36-.05-.13-.1-.27-.16-.39a1.24,1.24,0,0,1,.38-.09c3.54,0,7.33,0,8.51,0C175.72,172.47,176,172.51,176.39,172.55Z" fill="#5f4f4a"></path><path d="M168.84,128.1c-.52-.08-.6-.2-.6-.74a2.88,2.88,0,0,1,.07-.59c.19-.54.43-.2.89-.49.2-.11.38-.1.49.08C170.47,127.48,170,128.27,168.84,128.1Z" fill="#6c4210"></path><path d="M169.81,109.65c.93,2.63-.63,5.72-2.93,7.35s-2.29,2.13-2.77,2.17c-3.21.21-3.37-.63-5-.64A3.08,3.08,0,0,1,156.6,117a1.18,1.18,0,0,0-.51-.48.77.77,0,0,1-.3-.43c-.09-.22-.17-.4-.47-.39a.33.33,0,0,1-.23-.17,1.21,1.21,0,0,1-.13-.42c-.07-.46-.06-.46-.54-.56-.2-.88.41-.89.15-2.27,0-.36-.06-.73-.09-1.14l.57.19c.18-.38,0-.57-.3-.7s-.17-.14-.18-.32a5.48,5.48,0,0,1,.94-3.26c.16-.27,1.39-2.32,1.21-2.52-.37-.44-.06-.87,0-1.3a12.24,12.24,0,0,1,1.17-3.21.87.87,0,0,1,.17-.21,9,9,0,0,1,2.45,3.57c-.22.1-.49.17-.73.28-.58.23-1,.5-1,.67,0,.5,1.11-.23,2.72-.47a14.68,14.68,0,0,1,1.8.09c.22,0,.36,0,.32-.17-.08-.34-.74-.45-1.08-.5a1.22,1.22,0,0,1-.46-.09c-.08-.08,0-.23.1-.5a15.05,15.05,0,0,1,2.4-4.21,9.16,9.16,0,0,1,1.77,2.51,6.25,6.25,0,0,1,.87,3.15.75.75,0,0,0,.31.6,6.57,6.57,0,0,1,2.14,4.29A2.38,2.38,0,0,0,169.81,109.65Zm-3.08,2.21c0-.23-.19-.24-.35-.26a13.49,13.49,0,0,0-4.57.13c-.39.08-.51.29-.38.67a.83.83,0,0,1-.67,1.1c-.1,0-.22,0-.32,0a1.31,1.31,0,0,1-1.7-.59s0-.08-.06-.09a1.11,1.11,0,0,0-.44-.16c-.19,0-.25.19-.27.37s.06.37-.13.5a1.41,1.41,0,0,1-1,.27,1.25,1.25,0,0,1-.46-.23,1.15,1.15,0,0,1-.55-.8c0-.17-.1-.27-.28-.28a.87.87,0,0,0-.06,1.08,1.66,1.66,0,0,0,2.38.63c.22-.13.42-.29.66-.45a2.17,2.17,0,0,0,2.16.36,1.59,1.59,0,0,0,1.38-1.66c0-.18,0-.32.2-.34a14.66,14.66,0,0,1,4,0C166.57,112.18,166.73,112.06,166.73,111.86Zm-.67-8.38a6.23,6.23,0,0,0-1-3.46.47.47,0,0,0-.74-.16,3.07,3.07,0,0,0-.85,1.28.41.41,0,0,0,.08.35c.11.11.23,0,.32-.11a3.29,3.29,0,0,1,.71-1c1,1.26.76,2.5,1,3.16A.27.27,0,0,0,166.06,103.48Zm-6.33,4.9a.75.75,0,0,0-.13.06c-.29.17-.28,1,.16,1C160.4,109.33,160.2,108.38,159.73,108.38Zm-.2-5.35a3.26,3.26,0,0,0-.15-.44c-.21-.32-.43-.64-.67-1a1.7,1.7,0,0,0-.38-.32c-.47-.32-.73.3-.37.47.49.35.43.59,1,1.33a.33.33,0,0,0,.28.1C159.37,103.21,159.44,103.1,159.53,103Zm-2.71,6.53c.32,0,.4-.42.34-.74s-.31-.37-.46-.33a.35.35,0,0,0-.31.38c0,.08,0,.09,0,.17A.5.5,0,0,0,156.82,109.56Z" fill="#cfa745"></path><path d="M152.41,110.18a5.84,5.84,0,0,0-2.71.27.28.28,0,0,0,.33.23c1.52,0,.95,0,2.39,0,0,.48-.09.89-.13,1.29-.75.28-1.62.14-2.2.79.13.22.26.29.48.23.55-.15,1.1-.27,1.71-.41a5.81,5.81,0,0,1,0,.94,23.13,23.13,0,0,0-.09,3c-.05,1.67-.12,5.52-.13,5.78a.21.21,0,0,1-.24.24c-.25,0-.69,0-.94,0-2.19-.09-7.2-.07-8.19-.14a10.16,10.16,0,0,0-.59-4.22c-.43-1.12-.45-2-2-2.91-3.36-2-2.07-1.75-6.09-1.9a14.23,14.23,0,0,1-3-.24c-.66-.16-1.29-.46-1.93-.67l-2.79-.87a12.41,12.41,0,0,0,2-2.68c1.19-1.72,1.19-4.77,1.22-6.45a40.08,40.08,0,0,0-.27-5.76c-.23-2.43.32-4.91.1-9.53a28.53,28.53,0,0,0-1-6.76c-1.87-6.19-6.11-5.33-7.65-6.6-.57-.47-.87-1-2-1.16a.68.68,0,0,1-.64-.5c-.39-1.1-2.46-1.5-3.54-1.44a1,1,0,0,1-.76-.27,2.86,2.86,0,0,1-1-2.62s.64-5.44.65-5.54,5,.09,6.08-.07c0,0,8.54,0,8.7,0,5.52-.21,21.09.34,23.66.45,7.89.33,7.72-.09,8.16.56-1.11.17-1.48.11-2,.75-1.14,1.36-1.81,5.42-2,7.18-.83,8.74-.5,4-1.23,12.17C152.31,110.51,152.72,103.19,152.41,110.18Z" fill="#ffeb8d"></path><path d="M158.48,119.27a5.94,5.94,0,0,0-1.58,1.58c-.09.12-.21.22-.29.34-.25.39-.53.42-1,.2a.63.63,0,0,1-.25-.62c.17-.57.3-.64.3-.77a.33.33,0,0,0-.09-.28.3.3,0,0,0-.29,0c-.19.24-.36.52-.55.8a.81.81,0,0,1-.23-.61,3.2,3.2,0,0,1,1.54-2.37,9.63,9.63,0,0,0,1.1,1A9.9,9.9,0,0,0,158.48,119.27Z" fill="#cfa745"></path><path d="M157.52,121.35s-.2,1.15-.2,1.18h-4.68c0-2.62.1-2.26.17-4.52,0-1,.06-5,.06-5.1,0-.4.08-.47.47-.53h.56c.09.26.24.7.11.95a3.41,3.41,0,0,0-.15,2.16c0,.3.18.35.59.27.12.24.26.48.37.73.24.57.5.18.67.51a.34.34,0,0,1-.1.27,4.24,4.24,0,0,0-1.38,2.35,2.1,2.1,0,0,0,.69,1.94,1.91,1.91,0,0,0,1.42.64C156.73,122.28,157,121.66,157.52,121.35Z" fill="#6c4210"></path><path d="M153.81,111c.07.58.14.84-.36.84a4.4,4.4,0,0,1-.51,0c.08-.67.05-1,.3-.94a.25.25,0,0,1,.12,0Z" fill="#6c4210"></path><path d="M151.83,123.13c.15,0,.23.07.17.25-1.32,4.6-1.33,4.72-1.4,5.39,0,0-1.06,4.49-1.3,5.2-.29.87-.51,1.77-.75,2.65-.24,1.16.13,2.88-.16,4.58-.12.9,0,3.86,0,4.49s.14,1.35.16,2c.07,1.66,0,4.45,0,5.74s.2,2.44.14,3.66a.65.65,0,0,1-.64.67,77,77,0,0,1-9.5.12c-.36,0-.73.07-1.1.09-.53,0-1.06,0-1.59,0a14.26,14.26,0,0,1-3,0,1.94,1.94,0,0,0-.72,0,38.46,38.46,0,0,1-4.13,0c-2.1,0-5.75-.3-8.31-.47-.71,0-1.43,0-2.14-.06-.29,0-.58-.08-.88-.08-.87,0-1.73.08-2.6.08-.63,0-1.25-.11-1.88-.09-.92,0-1.84.13-2.76.17s-1.77,0-2.65,0c-.73,0-1.46-.1-2.19,0-.51,0-1,.09-1.54.12s-.7,0-3.41-.65a3.36,3.36,0,0,0-.94-.26,9.88,9.88,0,0,0-1.21,0,24.44,24.44,0,0,1-3.31.23c-.88,0-1.77.07-2.65.1-.45,0-.89-.05-1.33,0A35.41,35.41,0,0,1,84,157c-.18-.05-3.62.06-3.74.07a20.94,20.94,0,0,1-4.17.08c-3.17-.09-5.11-.76-7.37-.66-.47,0-1,0-1.43,0-.86,0-2.38.14-2.7.13a7.23,7.23,0,0,0-1.6.15c-1.41.29-1.78-.11-2.71,0-1.93.11-2.78,0-4.61,0-1.17,0-2.41.11-3.58.12-2,.06-2.44.32-4.27.24a42.5,42.5,0,0,0-6,.08,18.17,18.17,0,0,1-3.54-.06.28.28,0,0,1-.27-.3,32.31,32.31,0,0,0-.61-3.54c-1-5.15.18-6.63-.3-9.93a33.54,33.54,0,0,1-.41-4.41,4,4,0,0,1,.84-2.63,32.38,32.38,0,0,0,2.13-3.75c2-3.48,1.46-2.44,5.32-8.37.34-.48.65-1,.94-1.49a4.23,4.23,0,0,0,.25-1c2.23-9.52.28-10.62,2.16-18.24a6.88,6.88,0,0,0,.17-1.42c.17-6.19,0-6.3.31-7.93.14-.94.14-1.93.26-3.82,0,0,.26-1.64.32-2.74.18-3.42,0-4.06.27-4.77a14,14,0,0,0,.4-2.33c.11-.67.19-1.35.26-2,.06-.53,0-1,.29-3.68a38.25,38.25,0,0,0,.54-7.62c.83.24,2.48.3,3.26,1.49a2.48,2.48,0,0,1,.36,1.62c0,1.24-.13,2.41,1,2.72.07,0,.12.09.19.11a4.93,4.93,0,0,0,1.27.32A1.79,1.79,0,0,0,59,72a6.24,6.24,0,0,0,.46-2,7,7,0,0,0-1-4.16,2.75,2.75,0,0,0-.69-.79,6.29,6.29,0,0,0-1.62-1.13,2.69,2.69,0,0,1-.29-.16A.54.54,0,0,0,56,63.6c.27,0,2.1-.34,2.74-.42a.8.8,0,0,1,.53,0c1,.61,2,.48,3.66.75a8.1,8.1,0,0,0,2.82-.07,4.3,4.3,0,0,0,2.74-2.52s0-.31.25,0,.35.38.64.06a.33.33,0,0,1,.38-.1c3.31.66,22,0,22,0a64.74,64.74,0,0,0,6.9-.16.4.4,0,0,1,.46.28A10.53,10.53,0,0,0,102,65.05a6.06,6.06,0,0,0,1.88,1.15c.08,0,.15.2.15.31a22.17,22.17,0,0,1-.28,2.4,1.17,1.17,0,0,1-1,1,1,1,0,0,0-1.12-.33,4.23,4.23,0,0,0-3.26,1.85.89.89,0,0,1-.75.45c-2,.24-2.27.65-3.34.75a6.45,6.45,0,0,0-2.29.77,2,2,0,0,0-1.15,1c-.34.48-2.17,3.37-2.18,3.39a17.74,17.74,0,0,1-2,3A8.59,8.59,0,0,0,85,83.48a8.7,8.7,0,0,1-1.53,2.86A20.16,20.16,0,0,0,81,90.42a.51.51,0,0,1-.53.38c-10,.2-18.47-1.28-18.93,1.85-.12.84,0,1,1.53,7.34,1.84,7.73,1.06,4.6,2.77,11.13a3.28,3.28,0,0,1-.5,0,8.93,8.93,0,0,0-2.42.25c-.28.07-4.05,1.52-4.72,3-1.25,2.54-1.92,5.06-.78,7.65-.45,0-9.22,0-9.39,0a.36.36,0,0,0-.2.22c0,.1.22.31.55.3.52,0,1,.11,1.55,0a8.37,8.37,0,0,1,1.32,0c.85,0,1.7,0,2.55,0s1.85,0,2.77,0h.88a.44.44,0,0,1,.44.26c.18.33.38.64.55,1a9.21,9.21,0,0,0,1.09,1.55,10.85,10.85,0,0,0,1.92,1.91,12.38,12.38,0,0,0,3.29,1.7c.76.26,1.42.53,2.17.82a3.31,3.31,0,0,1,1.36,1A2.21,2.21,0,0,0,70.33,132a.84.84,0,0,1,.87.26,3.86,3.86,0,0,0,1.93.92,1.44,1.44,0,0,1,.71.37,5.58,5.58,0,0,0,2,1.28,11.65,11.65,0,0,1,2.44,1.51l.68.51c-1.23.11-2.42,0-3.8.12-.33,0-6.93.1-11.5-.08-1.3-.05-4.56-.27-6.39-.26l-1.63,0c-6.9-.22-4.73-.28-6-.29-6.62,0-9.14,0-10.18,0-1.35.08-1.29.74,0,.74,2,0,9.33-.09,9.78-.1,1.14-.05,2.27.1,3.41.13,1,0,3.79.11,4.22.13,5.72.25-.64.17,7.82.31,5.81.09,10.74.19,13.41,0a22.58,22.58,0,0,1,2.33.07,1.59,1.59,0,0,1,.67.24,3.89,3.89,0,0,0,2.72.48,8.36,8.36,0,0,0-.54.68,2.29,2.29,0,0,0-.33,2.1.83.83,0,0,0,.93.59c1.34-.1,1.6-.42,2.22,0s.47.75,2.18.81a2.58,2.58,0,0,0,.94-.22,15.6,15.6,0,0,0,5.63-3.76,7.11,7.11,0,0,1,.85-.71.93.93,0,0,1,.46-.15,8.33,8.33,0,0,1,2.65.18.45.45,0,0,1,.21.22c.2.41.42.83.6,1.26a11.33,11.33,0,0,0,1.4,2.95,1.42,1.42,0,0,1,.26.94c0,.85-.12,1.71-.21,2.57a1.28,1.28,0,0,0,.63,1.35.41.41,0,0,1,.24.39c0,1,.33,1.21,1.28,1.16a1,1,0,0,0,.48-.1,2.93,2.93,0,0,0,1.51-3.32,2.75,2.75,0,0,1,.08-1.53,5.65,5.65,0,0,0,.13-3.74c-.21-.74-.4-1.49-.61-2.3,1.2-.1,1.54-.07,2.66-.16s1.47.13,2.59,0,2.54.57,3.73.37a5.81,5.81,0,0,1,1.09.07c2.57.17,3.16-1,4.94-.52,2.83.68,5.32.13,15-.1,2.22,0,1.11.06,2.3,0,1.56-.05,3.12,0,4.67-.07.73,0,1.45-.12,2.16-.1a9,9,0,0,1,2.64.19c.12,0,.31-.06.45-.14s.1-.14.14-.21c-.18-.42-.56-.47-.92-.5a16.15,16.15,0,0,0-4.17.08c-.22.06-.48-.07-2.46,0-.64,0-1.28,0-1.92,0-2.88.25-6.24,0-13.67.47-3.19.19-3-.25-4.19-.33a3.06,3.06,0,0,1,.51-.26c.59-.16,1.17-.34,1.77-.45a5.34,5.34,0,0,0,2.12-.9c.44-.31.6-.5.89-.48a2.16,2.16,0,0,0,1.31-.38c1-.53,1-.79,1.33-.69a2.28,2.28,0,0,0,1.87-.27,2.14,2.14,0,0,0,.61-.55c.87-1.32,2.62-1.27,4-1.72.73-.23,1.44-.57,2.16-.86.12-.05.22-.12.34-.18,2.75-1.24,3.83-3.27,5.48-6a4.79,4.79,0,0,0,.33-.92C143.33,123.09,141.15,123.13,151.83,123.13Z" fill="#ffeb8d"></path><path d="M141.87,120.26a18.27,18.27,0,0,1,0,2.22,4.29,4.29,0,0,1-.52,1.56,14.49,14.49,0,0,1-2.28,3.3c-2.76,3-6.13,3.33-8,3.94a1.89,1.89,0,0,0-1.23,1,1.7,1.7,0,0,1-2.53.23,22.3,22.3,0,0,1-2.44-2.42,2.15,2.15,0,0,0-.45-.4,8.49,8.49,0,0,0-2.33-1.47c-.15-.05-.29-.12-.39.06a.29.29,0,0,0,.11.42c.08,0,.15.11.23.15a9.65,9.65,0,0,1,2.81,2.23c.6.67,1.3,1.26,2,1.88l.38.3c-1.05.45-1.52.76-2.1.63a6.65,6.65,0,0,1-2.77-1.29,9.6,9.6,0,0,0-3.79-1.89c-.47-.1-1-.11-1.43-.17h0c-.15.09-.34.15-.43.29s.14.31.42.32c2.78.1,4.3,1.72,5.84,2.65.46.24.93.46,1.42.66a4.26,4.26,0,0,1-2.45,1.05c-2.35.44-3.21,1.44-5.06,1.66a10.21,10.21,0,0,1-2.92,0c-.2,0-.41,0-.61,0a12.62,12.62,0,0,1-2.71-.47,9.85,9.85,0,0,1-2.79-1.36,4.61,4.61,0,0,1-1-2.8,8,8,0,0,0-.5-2.26,7.06,7.06,0,0,0-.35-1,2.26,2.26,0,0,1,.14-2.07,10.9,10.9,0,0,0,.39-1.09,1.15,1.15,0,0,1,.57-.65c1-.54,1.88-1.1,2.84-1.61,1.63-1,2.72-.71,4.74-.87,1.1-.1,2.21,0,3.31-.26a28.22,28.22,0,0,0,3.17-.4,1.55,1.55,0,0,0,.57-.33.28.28,0,0,0,0-.28c-.23-.29-.54,0-.9.08-.71.09-4,.4-4.18.42a2.58,2.58,0,0,1,.72-1.33,7.17,7.17,0,0,1,4.28-2.57,7,7,0,0,0,2-.5,6.64,6.64,0,0,1,1.86-.49,9.93,9.93,0,0,0,2.37-.88c.12-.05.2-.2.31-.31-.16-.2-.3-.28-.54-.18-.44.19-.9.35-1.35.5a1.66,1.66,0,0,1-.54.1c-1.32,0-1.61.54-2.89.7a14.06,14.06,0,0,0-4,1.28,5,5,0,0,0-1.89,1.83,8.28,8.28,0,0,0-1,1.66c-.11.29-.32.3-.47,0a8,8,0,0,0-2.37-2.86l-.43-.34a1.84,1.84,0,0,0,.36-1.56c0-.48-.4-.72-.9-.78a22.43,22.43,0,0,0-2.46,0c-5.56.07-5.88.16-6-.16s-.18-.74-.26-1.12c1.09-.21,4.87-.94,7.75-1.38,3.28-.51,3-.63,3.25-.08a3,3,0,0,0,.86,1.2.88.88,0,0,0,.85.27,1.13,1.13,0,0,1,1,.17c.81.58,1.37-.13,2.84-.2a3.42,3.42,0,0,0,2.16-1,1.78,1.78,0,0,0,.74-1.41c0-.07.16-.19.27-.23a4.56,4.56,0,0,1,3.33-.19c1.07.38,2.18.69,3.27,1a7.4,7.4,0,0,0,2.45.63c.75,0,1.53,0,2.28,0a10.56,10.56,0,0,1,2.89.32c.86.53,1.73,1.06,2.59,1.61a3,3,0,0,1,1.35,1.76A11.91,11.91,0,0,1,141.87,120.26Zm-9.24,7.17c0-.22-.08-.31-.27-.34-1.85-.36-2.69-.06-4.06-.42a31.56,31.56,0,0,1-4.12-1.39c-.24-.09-.29,0-.33.2a.74.74,0,0,0,0,.21c.43.21.83.44,1.25.61s1.12.37,1.66.6a15.88,15.88,0,0,0,5.51.77C132.46,127.68,132.6,127.64,132.63,127.43Z" fill="#121413"></path><path d="M128.35,97.4c.22,2.78.61,4.06.32,6.17a13.18,13.18,0,0,1-1,4.83,12.8,12.8,0,0,1-2.11,2.58c-1.45.72-.94.22-1.83.57l-.95.4a7.83,7.83,0,0,1-.66-3.67c-.11-2.34-.82-2.84-1.84-4.71a6,6,0,0,0-1-1.26,2.84,2.84,0,0,0-1.61-1.13c-.4-.14-.71-.3-.46-1a6,6,0,0,0,.29-3.81,9.87,9.87,0,0,1-.15-3.11c.58-4,1.73-4.5,2-7.56.1-1,0-2.61,0-2.83,0-.37-.36-.54-.41,0-.57,6,0,2.62-2.09,8.68-.67,2-.34,4.65,0,6.71.09.5-.07.91-.5,2.33,0,0-.08,0-.12,0-1.85-.53-2.24,1.62-3,2-1.06.58-1.91,1-2,1.85a3.17,3.17,0,0,0,.38,1.55c-3.23,1.21-6.4,2.49-9.76,3.48-1.1-5-2.6-13.74-3.33-16s-2.29-2.15-6-2.26c-.45,0-.89-.06-1.33-.08-.26,0-.42-.43-.44-.79a13.31,13.31,0,0,1,1-3.64,75.38,75.38,0,0,0,2.6-8.07c.14-.84-.31-1-.4-.4-.89,2.41-.68,2.23-1.17,3.62-2.63,7.52-3,7.89-2.73,8.76a1.62,1.62,0,0,1,0,.44c-3.83-.23-6.93-.2-8.17-.2-.27-.61.8-2,2.35-4.29a11.49,11.49,0,0,0,1.61-2.75,7.11,7.11,0,0,1,1.31-2.3c2.45-3,2.77-5.11,4.63-7a5.13,5.13,0,0,1,3-1.24c.85-.18,2-.48,2.81-.68a2.54,2.54,0,0,1,.39,0c.07.27-.07.65.42.62.12-.43.26-.85.42-1.27a3.46,3.46,0,0,1,2.16-1.5.54.54,0,0,1-.14.16,1.68,1.68,0,0,0-.54,2c.57,1.78.81,1.42,1.25,2.65a4.36,4.36,0,0,0,1.12,1.69c1.47,1.42,3.06,2.38,5,1.77S112,77,113.1,75.06c.57-1,1.49-1.75,1.72-3.65,1.13.16,2.43.38,2.72,1.48a1.1,1.1,0,0,1,0,.54,10.31,10.31,0,0,1-.84,2,2.19,2.19,0,0,0-.17.49c.34.15.53,0,.66-.28a14.72,14.72,0,0,0,1.11-2.34c1.54.19,1.45,1.47,3.26,1.8,3.34.62,5.28,2.43,6.05,6a34.8,34.8,0,0,1,.81,5.74c0,1,.11,2,.09,2.94C128.45,92.64,128,93.46,128.35,97.4Zm-14-18.23c.27-.34,0-.71-.42-.42a10.93,10.93,0,0,1-1,.6c-1.6.82-3.83,2.2-5.62,2.15a6.71,6.71,0,0,1-4.37-1.24c-1.54-1.32-2-1.14-2.84-3.19l-.51-1.23c-.46-.76-.67-1.66-.92-1.36S99,76,99.5,77.25c1.13,2.72,1.87,2.44,2.75,3.29,1.74,1.66,5,2.36,8.69.58A25.5,25.5,0,0,0,114.37,79.17ZM111,100.06c.23-.3.15-.55-.2-.68a2,2,0,0,0-.59-.15c-5.65-.3-7,.4-8.7-.22-.61-.22-.51.36.1.52a8.73,8.73,0,0,0,2.33.22c1.42.06,1.71-.11,2.86,0a23,23,0,0,1,3.27,0c.62.06.38.22-.27.44-4.35,1.11-4,.84-5.22,1.33-.5.25-.46,1.09.78,1.43,2,.55,2.11.54,3.41.83a.38.38,0,0,0,.51-.33,2.44,2.44,0,0,0-.44-.19,23,23,0,0,1-3.67-.94c-.75-.25-.2-.54-.06-.58.34-.1,3.8-.84,5.59-1.45A.78.78,0,0,0,111,100.06Z" fill="#770f9c"></path><path d="M125.94,38.88c.57,1,.72,2.58-.18,3.33-.41.35-.45.39-.25.89a4.73,4.73,0,0,1,.17,2.71c-.37,1.24-1.44,1.11-2.16,1.31s-2.24-1.18-2.46,0,0,1.54-.59,1.85c-1.12.54-1.4.84-2,.72-.35,0-.49-.55-.54-1.18a15.09,15.09,0,0,1,0-1.78,3.54,3.54,0,0,0,1.67-.39c.28-.1.34-.37.44-.6.22-.49-.44-.42-.5-.28-.17.4-1,.63-1.27.65-.58,0-.56,0-.79-.52s-.33-.57-.6-1a3.91,3.91,0,0,0,1.63-.71c1.16-.83.55-1.32,1.36-1.67.49-.22.62.29,2.4-.46a.46.46,0,0,0,.26-.66.25.25,0,0,0-.39,0,2.15,2.15,0,0,1-1.24.42,3,3,0,0,1-.6,0,1.45,1.45,0,0,0-1.53,1.08,2.18,2.18,0,0,1-2.56,1.22.7.7,0,0,1-.26-.19c-1.64-1.69-1.25-2.11-3.25-2.52a20.71,20.71,0,0,1-2.33-.72c-.4-.11-.81-.17-1.22-.26,1-2,1.08-2.14.52-3a.32.32,0,0,1,0-.46,3.63,3.63,0,0,0,1.1-2.27,1.67,1.67,0,0,0-.57-1.56,1,1,0,0,0-1-.15A.3.3,0,0,0,109,33c.06.58.7,0,1,.53.56.82-.17,1.94-.79,2.72-.4.48-.45.66-.1,1.18a1.15,1.15,0,0,1,.08,1.2c-.22.45-.46.89-.7,1.32a1.07,1.07,0,0,1-.55.43,10.38,10.38,0,0,1-3.82.48c-.26-1.33-2-1.52-1.84-2.53a1.64,1.64,0,0,0-1.92-1.93c-.22.07-.49.27-.37.46a.44.44,0,0,0,.37.16.82.82,0,0,1,.73.08.9.9,0,0,1,.53.9,2,2,0,0,0,1.15,2.1,3.59,3.59,0,0,1,.62.55c.12.13.13.27-.08.34-1.9.64-2.28.78-3.33,1.85a2,2,0,0,0-1.59,0,1.54,1.54,0,0,1-1.68-.44c-.65-.57-1.1-1.65-.45-2.26a2,2,0,0,1,1.25-.76c.49,0,.42-.64-.08-.85A2,2,0,0,1,96.61,36a1.87,1.87,0,0,1,2-1.07.51.51,0,0,0,.67-.51c0-.29-.08-1,.16-1.19.65-.55,1,.11,1.22-.07s0-.37-.08-.51c-.42-.41-1.66-.55-1.2-2.57a1.34,1.34,0,0,1,.73-1,2.43,2.43,0,0,0,.51-.32,1.52,1.52,0,0,1,1.72,0,.83.83,0,0,1,.23.3.46.46,0,0,0,.85-.06,1.56,1.56,0,0,1,2.06-1.29.63.63,0,0,1,.58.5c.13.47-.28.59-.76,1a.19.19,0,0,0,.08.34c.57.2,1.26-.54,1.26-1.08,0-.92-.36-1.16,0-1.72.64-1.3,1.27-1.58,2.2-1.5s1.21.46,1.35-.05a.84.84,0,0,0,0-.27,1.74,1.74,0,0,1,1.51-1.68,1.81,1.81,0,0,1,1.66.82c.29.5.47.49.76,0a4.1,4.1,0,0,1,.59-.66.42.42,0,0,1,.31-.09A2.56,2.56,0,0,1,117.16,27a8.16,8.16,0,0,1-.56.88.37.37,0,0,0,.23.51,1,1,0,0,0,.87-.35,2.47,2.47,0,0,1,2.12-.56,2.07,2.07,0,0,1,.43.1c1,.25,1.09.75,1,1.55a2.68,2.68,0,0,1-.42.94c-.14.33,0,.56.39.51.73-.23,1.11.15,1.6.66a1.26,1.26,0,0,1,.19.28c.61.94,0,1.21-.34,1.88a.29.29,0,0,0,.32.42,1.56,1.56,0,0,0,.47-.17.36.36,0,0,1,.41,0,1.87,1.87,0,0,1,.64.67,5.68,5.68,0,0,1,.59,2.06c0,.58-.63,1-1.22,1s-1.36.43-1,1.06c0,0,.24,0,.35,0a.73.73,0,0,0,.29-.15A1.83,1.83,0,0,1,125.94,38.88ZM119,34.7a2.12,2.12,0,0,0,.32-1.53.32.32,0,0,0-.25-.23c-.08,0-.18.13-.25.22a2.39,2.39,0,0,1-1,2.05,1,1,0,0,1-1,.23c-1.38-.43-2.79,1.19-1.44,2,.16.1.22.17.17.34a1.68,1.68,0,0,1-.41,1,.31.31,0,0,0,.06.52,2.38,2.38,0,0,1,.95.83c.08.14.41.13.46-.23s-.15-.37-.71-1a4.92,4.92,0,0,0,.23-1.56c0-.27-.27-.41-.52-.52-.51-.23.18-1.09,1.28-.78a1.09,1.09,0,0,0,1.09-.21A6.73,6.73,0,0,0,119,34.7ZM114,33.15c.28.23.48-.09.47-.25,0-.35-.44-.6-.58-.71.61-1.13.2-1.75-.47-1.92a3,3,0,0,1-1.26-.64,1.31,1.31,0,0,1-.49-1.45,3.86,3.86,0,0,0,.17-.58.25.25,0,0,0-.46-.18,2,2,0,0,0,.34,2.7,3.61,3.61,0,0,0,1.41.74c1.14.34-.26.91.41,1.81A2.62,2.62,0,0,0,114,33.15Zm-7.36,4.52a1,1,0,0,0-.32-1.1,3.71,3.71,0,0,1-.73-1c-.43-.75.67-1.3-.12-2.29a2.57,2.57,0,0,0-1-.88,1.68,1.68,0,0,1-.42-.22c-.32-.28-.38,0-.41.1-.13.43.27.34,1.11,1.09.65.57.41.81.12,1.81a3.38,3.38,0,0,0,.77,1.63c.21.28.57.48.55.92C106.11,37.77,106.5,38.07,106.6,37.67Z" fill="#a4971229"></path><path d="M121.2,114c-1,.67-1.48.37-3.13.85a.79.79,0,0,1-.81-.13,1.21,1.21,0,0,0-1.15-.14c-.46.08-1-.46-1.17-.9a2.34,2.34,0,0,1-.09-.38c.29,0,.56-.14.77.18s1-.09,1.07-.72,0-1,0-2.78a5.07,5.07,0,0,0-.33-2.64c-.39-.82-.8-1-1.38-2.12a1.39,1.39,0,0,0-1.78-.57.62.62,0,0,0-.46.58c0,.3-.17.42-.51.44-.13-.35-.29-.7-.39-1.06-.18-.62,1.38-1.33,2-1.61a1.25,1.25,0,0,0,.69-.83,1.47,1.47,0,0,1,2-.87,5.46,5.46,0,0,1,2.35,1.55,12.75,12.75,0,0,1,1.53,2.25c.82,1.54.86,1.21,1,3a12.55,12.55,0,0,0,.32,2.94C122.23,112.57,122.57,113,121.2,114Z" fill="#770f9c"></path><path d="M117.36,50.13a6.41,6.41,0,0,1-.83,3l-2.81-.53a8.5,8.5,0,0,1,.6-3.13c.4-1.12,1-1.08,1.2-1.93,0-.21,0-.37-.19-.44s-.15.11-1.17,1.28a.49.49,0,0,1-.6.11c-1.16-.38-1.31-1.56-.5-2.49.1-.11.23-.2.31-.31a.32.32,0,0,0,0-.45c-.14-.13-.24.08-.36.2a4.37,4.37,0,0,0-.42.44c-.23.33-.56.38-.85.61-.7.57-1.73-.42-1.76-1.21a2.16,2.16,0,0,1,.27-.77c0-.07.12-.11.13-.17s0-.26,0-.31A.44.44,0,0,0,110,44a.77.77,0,0,0-.45.52c-.16.58-.65.74-1.12.88a1.16,1.16,0,0,1-1.36-.76,2.39,2.39,0,0,1,.07-.75s.06-.1.07-.15.09-.33-.09-.45c-.39-.16-.63.28-.61.7a.82.82,0,0,1-.41.79,2,2,0,0,1-1,.44,1.13,1.13,0,0,1-.92-1.49.48.48,0,0,0,.07-.2.28.28,0,0,0-.22-.31.6.6,0,0,0-.52.59,2.48,2.48,0,0,0,.08.66c.24.88-.65,1.81-1.88,1.13a.72.72,0,0,1-.32-.72,2.44,2.44,0,0,0,0-.54.29.29,0,0,0-.37-.26c-.08,0-.15.19-.17.3a2,2,0,0,0,.42,1.73,1.29,1.29,0,0,1-.64.72,1.2,1.2,0,0,1-1.82-1.05,1.67,1.67,0,0,1,.63-1.41c1.33-1.06,1.17-1.82,2.34-2.23a6.22,6.22,0,0,1,2.44-.79c.82,0,1.59.11,2,0,1.66-.39,3.29-1,4.72-.19s2.57.22,3.28,1.32A7.36,7.36,0,0,0,115.53,44a4.23,4.23,0,0,1,1.72,3.29A10.58,10.58,0,0,1,117.36,50.13Z" fill="#a4971229"></path><path d="M117.16,56.92c-.14.3-.24.62-.37.92a2.11,2.11,0,0,1-2.71,1c-.22,0-.48-.18-.63-.1s-.16.38-.2.58a45.6,45.6,0,0,0-1.14,8.91,2.8,2.8,0,0,0,1.17,2.48c.21.16.39.38.6.56s.33.27.18.72a7.86,7.86,0,0,1-1.38,2.44,11.5,11.5,0,0,1-.92,1.25,9.82,9.82,0,0,1-4.7,2.39c-1.75.37-3.23-.92-4.41-2.26a3.51,3.51,0,0,1-.48-.92c-.7-1.59-1.12-1.67-1.28-2.86l1.28-.61a4,4,0,0,0,2.33-3.22c.06-.35.07-.39.4-.39,3.73.08,5.18-1.58,6.17-3.52.27-.57-.08-.66-.31-.43-2.69,2.56-5.08,3.36-8.38.6a10.23,10.23,0,0,1-3.53-5.69,11.43,11.43,0,0,1-.13-1.54l3.67-.38a1.32,1.32,0,0,0,.75,1.22,2.28,2.28,0,0,0,1.92.25c.29-.1.38-.4.29-.52s-.3,0-.44,0c-1.16.31-2.64-.62-1.66-1.37.63-.45,1.29-.62,1.37-1.46,0-.23-.22-.29-.31-.11a1.06,1.06,0,0,1-.63.79,10.92,10.92,0,0,1-.15-1.11c0-.27.32-.57.63-.61s.82,0,.84.47a6.31,6.31,0,0,0,.19,1.14,2.21,2.21,0,0,0,.35.89.68.68,0,0,0,.72.29c.81-.06,4.26-.32,5-.51s.89-.12.72-1.1c-.09-.58-.1-1.18-.15-1.76a1.49,1.49,0,0,1,1.25-.06c.25.58.48,1.12.72,1.65.09.2.32.21.47,0a2.48,2.48,0,0,1,.92-.78C116.59,53.33,118,55.19,117.16,56.92Zm-.8-1.36c.37.49.77-.78-.34-.78a1.49,1.49,0,0,0-1.18,2.13c.52.71.22.5-.11.69s0,.51.11.49c.83-.18,1.15-.69.5-1.42-.45-.5.16-1.31.63-1.36C116.18,55.28,116.26,55.42,116.36,55.56Zm-7,4.06c.11-.41-.47-.28-.59-.18-.91.77-3.25,1.82-5,1.11-.58-.23-.8.23-.49.38.87.43,1.28.39,1.4.59a3.49,3.49,0,0,1,.73,1.48c-.21.14-.76.11-.73.27s.39.26.5.25a12.05,12.05,0,0,0,1.8.08,1.52,1.52,0,0,0,1.27-.69C108.63,62.32,108.62,62.18,109.34,59.62Z" fill="#ad491426"></path><path d="M115.53,107.11c.85,1.19.55,2.19.53,4a11.13,11.13,0,0,0,.06,1.13c-4.32.75-8.71,1.48-13,2.22,0-.11-.8-3.5-.92-4a.38.38,0,0,1,.23-.48c.17-.06-.39.2,4.7-1.67,2.23-.82,4.6-1.7,6.4-2.3a2.61,2.61,0,0,0,.89-.46Z" fill="#ad491426"></path><path d="M114.74,122.26c-.33,0-.62,0-.9,0a.7.7,0,0,1-.76-.41l-.08-.15a3,3,0,0,0-2.32-1.57c-.63-.11-27.5-.31-27.75-.31-.26-.27-.8-.72-1.11-1,.11,0,21.51.33,21.62.34,1.26,0,5.43-.06,6.27-.1s2.26-.06,2.89.62c.32.43.76.75,1.09,1.16C114.69,122.09,114.71,122.1,114.74,122.26Z" fill="#e18b28"></path><path d="M115.17,53.59l-1,.69c-.1-.28-.18-.52-.3-.84Z" fill="#a4971229"></path><path d="M113.33,49.18c.59.2.31.07-.17,2.23-.12.8.09,1.17-.36,1.09s-.69-.08-1-.12c-.07-.44-.13-.84-.18-1.23s-.12-.61-.76-.58c-1,0-5.21.6-5.55.67a.71.71,0,0,0-.59.9c.06.38.14.87.2,1.28a1.38,1.38,0,0,0-1.44.22c-.32-1.59-.19-2.09-1.19-1.93l-3.52.55a7.45,7.45,0,0,1,.24-5.1,1.77,1.77,0,0,0,2.53-.47.91.91,0,0,1,.81-.38,1.59,1.59,0,0,0,1.73-.92s.06,0,.12-.11a2.56,2.56,0,0,0,.92.34,1.81,1.81,0,0,0,1.64-.66l.37.44c.7.88,1.2.6,2.34.27a1.84,1.84,0,0,0,1.35,1.38,1.34,1.34,0,0,0,1.21-.18,2.22,2.22,0,0,0,0,.89A2.16,2.16,0,0,0,113.33,49.18Zm-2.76.26a1.06,1.06,0,0,0,0-.47c0-.08-.13-.13-.19-.19a3.38,3.38,0,0,0-3-1.06,1.42,1.42,0,0,0-1,.49,10.62,10.62,0,0,0-.67.94c-.25.39.31.58.5.24.46-.58.85-1.18,1.56-1.06a3,3,0,0,1,2.37,1.1C110.23,49.56,110.54,49.57,110.57,49.44Zm-8.71.11c0-.2-.14-.32-.42-.34a4.07,4.07,0,0,0-.78,0,2.56,2.56,0,0,0-1.65,1,.3.3,0,1,0,.46.38,1.94,1.94,0,0,1,1.65-.8l.3,0C101.69,49.86,101.86,49.74,101.86,49.55Z" fill="#ad491426"></path><path d="M111.84,117c.24,0,.4,0,.38.35a2.57,2.57,0,0,1-.15.85c-.13.18-7.66.14-8.11.18q-.12-.63-.24-1.23C104,117.07,111.67,117.06,111.84,117Z" fill="#eadede"></path><path d="M112.55,122.3a7.52,7.52,0,0,0-4.12,1.42c-.66.38-1.3.78-2,1.13a1.34,1.34,0,0,0-.76.88,3.35,3.35,0,0,1-.21.47,1.71,1.71,0,0,0-1.25-.54,5.77,5.77,0,0,0-.72,0c-2.37-.14-3.73-.7-5.23-.86a9.05,9.05,0,0,0-4.38.29c-.1,0-.21,0-.32.09l-.21.07a.69.69,0,0,1-.76-.28,3.61,3.61,0,0,0-.77-.53c-.56-.37-1.17-.78-1.61-1.1-2-1.44-3.7-1.44-6.27-1.74-.59-.06-.32-.26-.7-1a2.45,2.45,0,0,1,.39-.08c2,0,24.39.26,26,.26.27,0,.55-.08.82-.06C111.58,120.78,112,121.6,112.55,122.3Z" fill="#121413"></path><path d="M108.35,136.54c.12.08.25.13.45.24l-4,.28c-.19-.39,0-.7,0-1,0,0,.07-.08.11-.11a4.92,4.92,0,0,1,1.81-.45.24.24,0,0,1,.19.08C107.28,136.1,107.88,136.23,108.35,136.54Z" fill="#ffeb8d"></path><path d="M106.49,134.71c-.5.15-1,.29-1.44.45a1.16,1.16,0,0,1-1.41-.33A7.06,7.06,0,0,1,102,130a2.08,2.08,0,0,1,.09-.6c.08-.33.13-.45.31-.51a22.36,22.36,0,0,1,2.57-.48c.31,1.21.44,1.37,0,1.42a5.66,5.66,0,0,0-1.26.17c-.15.1-.4.18-.34.38s.3.21.45.2c.57,0,1.14-.1,1.74-.17a4.76,4.76,0,0,1,.3,1.2c-.61,0-1.17.09-1.74.11a1.55,1.55,0,0,0-.93.31c-.08.07-.17.27-.13.33s.26.23.35.2c.78-.27,1.62-.09,2.4-.31a.39.39,0,0,1,.15,0c.21.26.1.55,0,.81,0,.1-.24.2-.39.23-1.47.28-1.46,0-1.42.66a3.58,3.58,0,0,0,1.69,0C106.33,133.81,106.29,133.85,106.49,134.71Z" fill="#121413"></path><path d="M105.25,126.75c0,.73-.4.86-.88,1s-1.05.22-1.58.3a1.51,1.51,0,0,0-1.4,1.13.51.51,0,0,1-.49.44c-3.42.36-3.36.43-3.44,0a1.57,1.57,0,0,0-1.36-1.28c-.67-.16-1.32-.38-2-.56a.46.46,0,0,1-.36-.37c-.13-.48-.27-1-.42-1.47,1.91-.58,2.79-.85,6-.22,1,.22,2,.34,3,.54.59.11,1.18.07,1.76.13A6.06,6.06,0,0,1,105.25,126.75Z" fill="#ffeb8d"></path><path d="M105.14,141.47a4.8,4.8,0,0,1-.29,1.53,5.36,5.36,0,0,0-.2,2.22,3.65,3.65,0,0,1,0,1,3,3,0,0,1-1.16,1.62.52.52,0,0,1-.82-.54c.08-.62.15-1.24.27-1.85a1.83,1.83,0,0,0-.11-.81.29.29,0,0,0-.32-.23c-.43.08,0,.65-.44,1.89-.45-.35-.33-.81-.26-1.24a4.28,4.28,0,0,0,0-2.41,20.67,20.67,0,0,0-1.06-2.09c-.19-.42-.37-.89-.58-1.4a8.86,8.86,0,0,0-1.7-3c.8-.16,1.56-.29,2.31-.45,2-.44,2.12-.71,2.45-.3a1.58,1.58,0,0,0,.58.41.56.56,0,0,1,.37.61,9.2,9.2,0,0,0,.64,3.87A3.52,3.52,0,0,1,105.14,141.47Z" fill="#ffeb8d"></path><path d="M101.35,109.75c1,4.77,1.83,8.64,1.83,8.64-.78,0-21-.32-21.74-.31a1.44,1.44,0,0,1-1-.33,4.2,4.2,0,0,0-2.27-.79c-4.37-.61-4.63-.72-5.44-.68a8.09,8.09,0,0,1-1-.09l-1.5-.08a18.63,18.63,0,0,1-2.3-.34c-.44-.07-.31-.6-.58-1.51-.39-1.37-.74-2.74-1-4.12-.24-1.08-.89-3-2.63-10.3-.17-.72-1.4-6-1.45-6.63-.1-1.29.7-2.11,3.65-2.17,3.12-.06,26.48.32,28.59.6s2.82.59,3.34,1.85C98.21,94.48,100.69,106.6,101.35,109.75Zm-19.07-2.69a3.35,3.35,0,0,0-1.67-5.94c-2.69-.35-4.32,4.55-.6,6.21A2,2,0,0,0,82.28,107.06Z" fill="#eadede"></path><path d="M102.45,134.61a32.32,32.32,0,0,1-4.11,1A4.11,4.11,0,0,0,96,136.65c-.78.67-2.83,2.61-3.2,2.89a16.65,16.65,0,0,1-3.06,1.92,2.59,2.59,0,0,1-2.52.18c-.34-.18-.42-.39-.33-.84,0-.16.16-.36,0-.45-.48-.13-.65.36-2.08.64a3.31,3.31,0,0,1-.55.07.64.64,0,0,1-.67-.91,1.82,1.82,0,0,1,.77-1.16c1.67-1.05,2-2.49,3.84-3a7,7,0,0,0,4.27-3.14,22.54,22.54,0,0,1,1.61-2,1.62,1.62,0,0,1,1.83-.55,7.45,7.45,0,0,0,2.94.17,17,17,0,0,1,1.78-.11A7.82,7.82,0,0,0,102.45,134.61Z" fill="#ffeb8d"></path><path d="M98.3,136.91l-.07.11H96.71c.22-.36.6-.43.89-.62a.3.3,0,0,1,.25.06C98,136.6,98.15,136.76,98.3,136.91Z" fill="#ffeb8d"></path><path d="M96.75,129.51a.37.37,0,0,1,0,.25s-.13,0-.2,0a3.19,3.19,0,0,0-1.44-.19c-.75.11-1.08.5-2,1.26,0,0,.11-.29.9-2.31l.55.11c.32.07.62.19,1,.24a7.71,7.71,0,0,0,.89.26C96.62,129.15,96.68,129.34,96.75,129.51Z" fill="#121413"></path><path d="M93.19,128a1.56,1.56,0,0,1-.11,1c-.19.49-.94,2.46-1.14,3a5.73,5.73,0,0,1-2,2.49,6.37,6.37,0,0,1-1.57.63c-.86.31-1.76.4-2.4,1.43a2.28,2.28,0,0,1-1.86,1,5.14,5.14,0,0,1-1.66,0c-.34-.09-.66-.22-1-.32-2.32-.71-3.2-2.13-5.81-3.22a1.75,1.75,0,0,1-1.06-.85c1-.59,2-1.15,3-1.73a8.12,8.12,0,0,1,3-1.1c1.08-.1,1.46.11,1.61-.27a.28.28,0,0,0-.15-.24,1.65,1.65,0,0,0-.58-.14c-2.57,0-4,1.05-5.8,2.12a5.36,5.36,0,0,1-2.17.65,2.85,2.85,0,0,1-1.84-.83c.77-.63,2-1.62,2.44-2.06a9,9,0,0,1,2.74-1.88,1.37,1.37,0,0,0,.45-.3.3.3,0,0,0,0-.29A.28.28,0,0,0,77,127a6,6,0,0,0-1.09.41,12.21,12.21,0,0,0-2.55,1.85c-.63.6-1.33,1.12-2,1.66a1.68,1.68,0,0,1-2.34-.25c-.16-.21-.35-.39-.52-.59-.62-.76-1.44-.83-2.94-1.39a14.92,14.92,0,0,1-3.84-2,15,15,0,0,1-2.05-2.17,12.8,12.8,0,0,1-.79-1.27,10.88,10.88,0,0,1-1-2.09,7.86,7.86,0,0,1,.16-4.48,19.83,19.83,0,0,1,.77-1.84c.48-1,1.4-1.32,3.58-2.42a3.59,3.59,0,0,1,2-.4c.37,0,.74,0,1.12,0,.21,0,.43,0,.62.07l.81,3.43c-.24-.08-.42-.12-.58-.19-.32-.2-.7.29-.27.48a9.77,9.77,0,0,0,2.81.77c.92.22,1.23,0,3.31.31a14.36,14.36,0,0,1,2.32.21c1.08.21,3.8.52,4.33.63a3.06,3.06,0,0,1,1.35.6,12.48,12.48,0,0,1,1.62,1.28,10.33,10.33,0,0,1,1.15,1.81,2.16,2.16,0,0,1-.36,0c-3.63-.6-3.92-.63-4.39-.92-.25-.18-.54.19-.33.37a1.86,1.86,0,0,0,.6.38c.87.21,3.25.7,4.08.81,4.68.6,5.3.23,8.55,2.59.33.23.65.48,1,.69a1.39,1.39,0,0,1,.67.85C92.89,126.82,93,127.43,93.19,128Zm-18-3.52c.12-.06.23-.35.14-.42-.41-.3-1.21.45-4.26,1-1.86.36-2.38,0-4.2.14-.18,0-.45,0-.43.32s.54.24,1.33.27c.58,0,1.15.07,1.73.1v0a17.31,17.31,0,0,0,5.07-1.15C74.74,124.68,75,124.59,75.15,124.51Z" fill="#121413"></path><path d="M79.83,101.82c4.37-1,3.57,7.15-.13,4.62C77.81,105.16,78,102.25,79.83,101.82Z" fill="#eadede"></path><path d="M70.19,58.2a.59.59,0,0,0-.6.71c0,.28,0,.55,0,.82-.15.16-.43.07-.47.35s-.08.39-.13.62c-.42-.35-.76-.32-1,.18a3.7,3.7,0,0,1-2.14,2.3,1,1,0,0,1-.42.09,16,16,0,0,1-5-.31,1,1,0,0,1-.36-.12,8,8,0,0,1-2.15-1.7c-1.3-1.72-.2-3.13-1.51-2.67,0-.22,0-.41,0-.61s.05-.68-.44-.74c.84-2.92,1.3-1.81,1.9-4.18a9.17,9.17,0,0,1,2.25-4.67c.28-.3.33-.42.65-.14a4.82,4.82,0,0,1,.88,1.77,6.5,6.5,0,0,1,.25.86,9.56,9.56,0,0,1-1,.5c-.23.1-.55.7.21.42a7.25,7.25,0,0,1,3.33-.45c1.13.05,1.38.49,2.68,1,.18.07.41.22.47.12s-.1-.32-.47-.61a10.57,10.57,0,0,0-1.8-1,8.39,8.39,0,0,1,.52-1.09c.27-.48,1.2-1.7,1.79-1.82.32-.06.49.18.6.49a5.14,5.14,0,0,1,.21.86c.52,3.48,0,2.72.62,5.1a.52.52,0,0,0,.11.19C69.94,55.36,70,56.71,70.19,58.2Zm-2.08-7.31a5.71,5.71,0,0,0-.21-2c-.08-.34-.33-.41-.58-.16a14.69,14.69,0,0,0-1,1.13c-.13.16-.3.52-.26.57s.35-.06.48-.21.76-1,.9-1,.23,1.86.42,1.88S68.1,51,68.11,50.89Zm-.4,4c.09-.37-.19-.66-.69-.66a.78.78,0,0,0-.88.45c-.08.3.12.59.4.36s.48-.3.76,0S67.65,55.11,67.71,54.9Zm-.6,6.23a.28.28,0,0,0-.24-.37.54.54,0,0,0-.44.4c-.09.37-.38.52-.68.66s-.55.19-.85-.14c-.5-.59-.45-1.3-1.16-.73l-.13.1a1.6,1.6,0,0,1-1.76.24c-.45-.21-.56-.38-.52-.86a1.73,1.73,0,0,0,0-.32c0-.1-.06-.25-.13-.27a.28.28,0,0,0-.36.17,1.34,1.34,0,0,0,.32,1.67,2.1,2.1,0,0,0,1.73.39A11.38,11.38,0,0,0,64,61.68l.5.61a1.06,1.06,0,0,0,1.31.24c.21-.1.42-.24.63-.35A1.42,1.42,0,0,0,67.11,61.13ZM66.74,58c.22-.06.42-.51.37-.8a.35.35,0,0,0-.37-.35.61.61,0,0,0-.5.65.88.88,0,0,0,0,.16A.39.39,0,0,0,66.74,58Zm-1.11,1.92c.2-.08.29-.2.27-.37s0-.35-.3-.51a4.83,4.83,0,0,0-1.45-.32c-.5,0-.75.64-.31.86a.56.56,0,0,1,.3.53c0,.3.29.45.51.28A3.54,3.54,0,0,1,65.63,59.91Zm-1.39-6.28a1.15,1.15,0,0,0-.86-1l-.37,0c-1.28-.06-2.27,1.58-1.7,1.79.16.07.25,0,.35-.16.57-.91,1.33-1.46,1.94-.57C63.79,54,64.22,54.08,64.24,53.63ZM63,56.85c0-.34-.43-.45-.67-.17s-.18,1,.24,1a.44.44,0,0,0,.43-.35A1.87,1.87,0,0,0,63,56.85Z" fill="#cfa745"></path><path d="M58.53,67.43a6.67,6.67,0,0,1,.21,3.17c-.09.64-.3,1.53-.88,1.84a6.67,6.67,0,0,0,.1-1c0-.08-.08-.22-.12-.22a.43.43,0,0,0-.28.13,6.29,6.29,0,0,0-.39,1.18l-.13,0c-.62-.18-.61-.17-.42-.79a2,2,0,0,0,.09-.7c0-.07-.14-.2-.2-.19a.39.39,0,0,0-.28.2,3.07,3.07,0,0,0-.14.52c-.05.16-.11.31-.17.49-.4,0-.47-.35-.5-.62a8,8,0,0,1,0-1.38A3.14,3.14,0,0,0,53.33,67a11.79,11.79,0,0,0-4.24-.77c-.45-.06-.9-.18-1.36-.27a7.43,7.43,0,0,0,0-2.66c-.27-1.44-.71-3.19-2-3.92A7.14,7.14,0,0,0,44,58.54a2.48,2.48,0,0,0-1.21,0c-.15,0-.27.11-.23.31s.16.3.4.29a3.83,3.83,0,0,1,2.44.74,2,2,0,0,1,.84.86,8,8,0,0,1,.9,3.21,8.64,8.64,0,0,1-1.09,4.47c-.38.78-.9,1.47-1.34,2.21a2.43,2.43,0,0,1-.33.38.89.89,0,0,0,0,1.32,1.6,1.6,0,0,0,.44.42,8.4,8.4,0,0,1,2,1.92,3,3,0,0,1,.74,2.46,1.21,1.21,0,0,1-.24-.21c-.11-.15-.23-.3-.4-.19s0,.88.08,1.38.07.38-1,.69c0-.21,0-.38.07-.55a1.69,1.69,0,0,0-.07-.92.27.27,0,0,0-.33-.19c-.1,0-.18.19-.2.3a3.9,3.9,0,0,1-.09,1.08l-.15,0a4.75,4.75,0,0,1-.48-.85,5.46,5.46,0,0,0-1.52-2.27,12,12,0,0,0-2.15-1.81c-2-1.13-2.6-1.12-3.16-2.06a3.2,3.2,0,0,1-.7-2.59,2.53,2.53,0,0,0-.38-1.89.44.44,0,0,0-.3-.19c-.16,0-.24.16-.2.33a3.9,3.9,0,0,0,.14.59c.33.79-.29,1.11,0,2.16a1,1,0,0,1-.19,1c-.6.73-1.18,1.47-1.76,2.21a5.46,5.46,0,0,0-1.26,2.43c-.42,2.35-1.11,3.78-.08,5.48l.28.44c-.15,0-.31.06-.4.15s0,.23-.06.44l-.5-.69a.21.21,0,0,0-.23-.1.24.24,0,0,0-.2.17.53.53,0,0,0,.08.43,2.32,2.32,0,0,0,.47.61l-.46.12-.71-.35c-.27-.13-.42,0-.45.28a3.8,3.8,0,0,0,.23,1.21,1.07,1.07,0,0,1-.73-.34.51.51,0,0,0-.74-.08c-.07-.15-.15-.3-.23-.45a.18.18,0,0,0-.33.06,2.64,2.64,0,0,0,.3,1.27,3.31,3.31,0,0,1-1-.41,1.51,1.51,0,0,1-.84-1.09c-.43-1.66-1.14-3.24-.7-5.47a13.88,13.88,0,0,1,2.28-5.22c.74-1.09,2.25-2.25,3.52-3.83s1-2.15.94-3.52c0-2.22-.25-2.88.65-5.14,1.62-4.1,5.41-7.57,9.76-8.14.15,0,.37,0,.44-.15.26-.37.62-.29,1-.27a5.59,5.59,0,0,1,.82.12.66.66,0,0,0,.7-.19c.16-.18.36-.12.55-.09a30.17,30.17,0,0,0,3.23.35,17.8,17.8,0,0,1,3,.51,19.41,19.41,0,0,1,2.9,1.09c.37.15.52.37.43.67a5.52,5.52,0,0,1-.83,1.2,7.17,7.17,0,0,0-1,2.49,2.49,2.49,0,0,0,0,.61c0,.08,0,.23.1.24.4.1.36.45.44.73.13.51.15.53.75.66a4.42,4.42,0,0,0,1.77,3.18c-.8.14-2.73.43-3,.48a.17.17,0,0,1-.24-.14,1.32,1.32,0,0,1,0-.44c0-1.49.11-1.65-.45-1.35a.16.16,0,0,0-.07.09,3.18,3.18,0,0,0,.18,2.31c.41.58,1.05.74,2.55,1.91A4,4,0,0,1,58.53,67.43Z" fill="#cfa745"></path><path d="M50.66,67a12.77,12.77,0,0,0-.16,2.44A21.71,21.71,0,0,1,50,74c-.09.43-.25,4-.49,5.63A30.07,30.07,0,0,1,49,82.78a9.64,9.64,0,0,0-.11,1.87,50.21,50.21,0,0,1-.54,6.42c0,.26-.4,4.73-.4,5.05a51.53,51.53,0,0,1-.24,7.1c-.08.64-.31,1.26-.44,1.89-.67,3.39-.46,5.73-.67,9.56-.14,2.66,0,1.07-1.09,6.77a.62.62,0,0,1-.63.58,45.76,45.76,0,0,1-5.91,0l-.25-.08c0-.11-.19-3.86-.23-4.84-.14-3.85.32-7.67-2.76-9.69a14.41,14.41,0,0,0-5-1.7,12.19,12.19,0,0,1,.29-3.46c.15-.57.9-5.42,1-5.93a37.61,37.61,0,0,0,.08-4.64c0-.72.14-1.37.23-2.12.24.12.48.24.72.38a7,7,0,0,0,1.71.6,1.2,1.2,0,0,0,.38,0c.11,0,.24-.08.33,0,.56.26,1-.1,1.45-.31a3.13,3.13,0,0,0,1.91-2.28c.36-2-.33-2.67-1.11-3.72-.95-1.26-2.76-1.56-3.86-3.34a3.26,3.26,0,0,1-.5-2.39A30,30,0,0,1,34,75.33c.39-1.1,1-1.67,2.53-3.67.16-.22.19-.29.33-.51,1.54,2.39,1.22,1.45,4.42,3.42a11.89,11.89,0,0,1,1.37,1.2,1.14,1.14,0,0,0,.15.16,4.31,4.31,0,0,1,1.42,2.2,2.08,2.08,0,0,0,2.6,1.17,2,2,0,0,0,1.33-1.72,4.23,4.23,0,0,0-1.26-3.84c-.27-.28-.52-.58-.79-.86a2.72,2.72,0,0,0-.84-.6c-.58-.4-.6-.53-.16-1.08a15.64,15.64,0,0,0,2.25-4.13,2.67,2.67,0,0,0,.09-.26.24.24,0,0,1,.34-.19A16.07,16.07,0,0,0,50.66,67Z" fill="#6c4210"></path><path d="M38.12,121.5a1.54,1.54,0,0,1-.24,1c-.77,1.2-2.84,4.53-3.51,5.5-.53.77-1.14,1.5-1.66,2.28-.78,1.14-2.82,4.31-3.1,4.73,0,0-.08-.07-.08-.09a10.13,10.13,0,0,0,0-2.06c.22-4.63.62-5.54.34-7.75a7,7,0,0,1,.08-.8c0-.62,0-3.07,0-3.68,0-1.5-1.27-3.38-2-4.58a.34.34,0,0,0-.12-.12,12.06,12.06,0,0,0-2.37-1.41,7.19,7.19,0,0,0-1.51-.35,19.61,19.61,0,0,0-2.86-.36c-1,0-2-.21-3.07-.28s-1.09,0-2.1.06a19.92,19.92,0,0,0-7.35,2c1-1.37,4.35-3.53,5.71-4.27a22.9,22.9,0,0,0,2.21-1.26,31.5,31.5,0,0,1,5.16-2.89c5.09-1.7,14.63-1.37,15.76,3.88.5,2.18.2,2.65.48,7.14C38,119.33,38,120,38.12,121.5Z" fill="#6c4210"></path><path d="M29.31,122.44h0c0,.77-.11,1.55-.13,2.32,0,.53.09,1.06.08,1.59,0,.83-.41,6.13-.41,6.73a8.28,8.28,0,0,1-.14,2.68c-.4,1.06-1.13.5-3.38.73-1.05.11-2.11,0-3.15.07-2,.06-.62-.22-6.37-.14-1.36,0-2.51-.1-7.16-.3A3.35,3.35,0,0,1,7,135.34c-.34-.31-.12-.57-.49-1.37a.71.71,0,0,1-.07-.32c.05-1.82-.81-3.31-.68-6.82,0-1.27.15-3.06.08-4.15a8,8,0,0,1,.8-3.85,5.52,5.52,0,0,1,2.3-2.59,17.06,17.06,0,0,1,8-2,9.93,9.93,0,0,1,2.31.13c.29,0,.6,0,.89,0a22.37,22.37,0,0,1,5.2.78,13,13,0,0,1,1.54.86,2.69,2.69,0,0,1,.95,1,11.14,11.14,0,0,1,1.31,2.74A10,10,0,0,1,29.31,122.44ZM18.5,127.13a1.65,1.65,0,0,0-.9-2.15,1.21,1.21,0,0,0-1,.11c-1.33.46-1,2.52-.05,2.66A1.91,1.91,0,0,0,18.5,127.13Z" fill="#6c4210"></path><path d="M20.61,172.48c-.83,3.05-.78,3-1,3.28a1.15,1.15,0,0,1-1.24.7c-1.84-.08-3.69-.09-5.53-.14a2.85,2.85,0,0,1-.65-.11,1.13,1.13,0,0,1-.76-.93c-.19-.69-.35-1.39-.51-2.09a3,3,0,0,1-.07-.66c0-.3.09-.4.4-.43.1,0-.95,0,8.2.09A2.12,2.12,0,0,1,20.61,172.48Z" fill="#5f4f4a"></path><path d="M159.61,109.41c.22.12.53-.11.56-.42s-.19-.61-.44-.61a.75.75,0,0,0-.13.06A.69.69,0,0,0,159.61,109.41Z" fill="#000000"></path><path d="M157,111a.47.47,0,0,0,.33.71c.53.17.25.49.53.61a.45.45,0,0,0,.42,0c.23-.12.17-.4.38-.54s.4-.1.51-.2a.42.42,0,0,0,.06-.56c-.21-.35-.66-.28-1.07-.29S157.12,110.68,157,111Z" fill="#000000"></path><path d="M125.1,126.3c.55.22,1.12.37,1.66.6a15.88,15.88,0,0,0,5.51.77c.19,0,.33,0,.36-.24s-.08-.31-.27-.34c-1.84-.36-2.7-.06-4.06-.42a31,31,0,0,1-4.12-1.39c-.24-.09-.29,0-.33.2a.74.74,0,0,0,0,.21C124.28,125.9,124.68,126.13,125.1,126.3Z" fill="#000000"></path><path d="M169,125.68c-.19.07-.37.15-.56.2a1,1,0,0,0-.71.93c0,.33,0,.44,0,.92-.06.85,1,1.12,1.78,1,1.23-.21,1.41-1.52.81-2.52A1,1,0,0,0,169,125.68Zm-.16,2.42c-.52-.08-.6-.2-.6-.74s.06-1,.51-.94a.8.8,0,0,0,.45-.14c.2-.11.38-.1.49.08C170.41,127.38,170.07,128.29,168.84,128.1Z" fill="#000000"></path><path d="M158,101.79c.49.35.43.59,1,1.33a.33.33,0,0,0,.28.1c.09,0,.16-.12.25-.19a3.26,3.26,0,0,0-.15-.44c-.21-.32-.43-.64-.67-1a1.7,1.7,0,0,0-.38-.32C157.86,101,157.6,101.62,158,101.79Z" fill="#000000"></path><path d="M163.85,101.38a3.29,3.29,0,0,1,.71-1c1,1.26.75,2.48,1,3.16.19.26.59.12.5-.37a7,7,0,0,0-1-3.13.47.47,0,0,0-.63-.23,2.77,2.77,0,0,0-1,1.35.41.41,0,0,0,.08.35C163.64,101.6,163.76,101.49,163.85,101.38Z" fill="#000000"></path><path d="M166.38,111.6a13.81,13.81,0,0,0-4.57.13c-.39.08-.51.29-.38.67a.83.83,0,0,1-.48,1c-.18.07-.35,0-.51.1a1.32,1.32,0,0,1-1.7-.59s0-.08-.06-.09a1.11,1.11,0,0,0-.44-.16c-.19,0-.25.19-.27.37s.06.37-.13.5a1.41,1.41,0,0,1-1,.27,1.25,1.25,0,0,1-.46-.23,1.15,1.15,0,0,1-.55-.8c0-.17-.1-.27-.28-.28a.87.87,0,0,0-.06,1.08,1.66,1.66,0,0,0,2.38.63c.22-.13.42-.29.66-.45a2.17,2.17,0,0,0,2.16.36,1.59,1.59,0,0,0,1.38-1.66c0-.18,0-.32.2-.34a14.66,14.66,0,0,1,4,0c.28.05.44-.07.44-.27S166.54,111.62,166.38,111.6Z" fill="#000000"></path><path d="M156.82,109.56c.32,0,.4-.42.34-.74s-.31-.37-.46-.33a.35.35,0,0,0-.31.38c0,.08,0,.09,0,.17A.5.5,0,0,0,156.82,109.56Z" fill="#000000"></path><path d="M166.73,108.91a2.32,2.32,0,0,0-.59.07c-2.48.72-4,1.1-5,1.86s.09.49.2.43a30.51,30.51,0,0,1,5.48-1.94.43.43,0,0,0,.1-.29C166.94,109,166.81,108.91,166.73,108.91Z" fill="#000000"></path><path d="M99.47,50.63a2,2,0,0,1,1.65-.8l.3,0c.27,0,.44-.13.44-.32s-.14-.32-.42-.34a4.07,4.07,0,0,0-.78,0,2.56,2.56,0,0,0-1.65,1A.3.3,0,1,0,99.47,50.63Z" fill="#000000"></path><path d="M66.68,56.85a.61.61,0,0,0-.44.64.88.88,0,0,0,0,.16.39.39,0,0,0,.43.35c.28,0,.47-.54.42-.81A.41.41,0,0,0,66.68,56.85Z" fill="#000000"></path><path d="M63.84,59.57a.56.56,0,0,1,.3.53c0,.3.29.45.51.28a3.54,3.54,0,0,1,1-.47c.2-.08.29-.2.27-.37s0-.35-.3-.51a4.83,4.83,0,0,0-1.45-.32C63.65,58.67,63.4,59.35,63.84,59.57Z" fill="#000000"></path><path d="M66.54,55.05c.26-.2.48-.3.76,0s.35.06.41-.15c.09-.37-.19-.66-.69-.66a.78.78,0,0,0-.88.45C66.06,55,66.26,55.27,66.54,55.05Z" fill="#000000"></path><path d="M67.9,51.14c.14,0,.2-.1.21-.25a6.21,6.21,0,0,0-.21-2c-.08-.34-.33-.41-.58-.16a14.69,14.69,0,0,0-1,1.13c-.13.16-.3.52-.26.57s.35-.06.48-.21.76-1,.9-1S67.72,51.12,67.9,51.14Z" fill="#000000"></path><path d="M61.31,54.42c.16.07.25,0,.35-.16.57-.91,1.33-1.46,1.94-.57.19.35.62.39.64-.06a1.15,1.15,0,0,0-.86-1l-.37,0C61.73,52.57,60.74,54.21,61.31,54.42Z" fill="#000000"></path><path d="M16.52,127.75a1.91,1.91,0,0,0,2-.62,1.65,1.65,0,0,0-.9-2.15,1.21,1.21,0,0,0-1,.11C15.24,125.55,15.55,127.61,16.52,127.75ZM16.39,126a1.12,1.12,0,0,1,.83-.41,1.36,1.36,0,0,1,.81.9c0,.43-.13.58-.53.64a2.42,2.42,0,0,1-.6,0A.71.71,0,0,1,16.39,126Z" fill="#000000"></path><path d="M61.19,61.68a2.1,2.1,0,0,0,1.73.39A11.38,11.38,0,0,0,64,61.68l.5.61a1.06,1.06,0,0,0,1.31.24c.21-.1.42-.24.63-.35a1.42,1.42,0,0,0,.64-1,.28.28,0,0,0-.24-.37.55.55,0,0,0-.44.4c-.09.37-.38.52-.68.66s-.55.19-.85-.14c-.5-.59-.45-1.3-1.16-.73l-.13.1a1.6,1.6,0,0,1-1.76.24c-.45-.21-.56-.38-.52-.86a1.73,1.73,0,0,0,0-.32c0-.1-.06-.25-.13-.27a.28.28,0,0,0-.36.17A1.34,1.34,0,0,0,61.19,61.68Z" fill="#000000"></path><path d="M62.68,56.52c-.42,0-.6.5-.48.88a.41.41,0,0,0,.79-.06,1.86,1.86,0,0,0,0-.49A.32.32,0,0,0,62.68,56.52Z" fill="#000000"></path><path d="M59,51.89c.19-.06.25-.2.32-.36a10.13,10.13,0,0,1,1.4-2.28.25.25,0,0,0-.06-.42c-.08,0-.19.07-.27.14a6.36,6.36,0,0,0-1.57,2.73C58.71,51.89,58.81,51.93,59,51.89Z" fill="#000000"></path><path d="M104.68,33.34c.65.57.41.81.12,1.81a3.38,3.38,0,0,0,.77,1.63c.21.28.57.48.55.92,0,.07.38.37.48,0a1,1,0,0,0-.32-1.1,3.71,3.71,0,0,1-.73-1c-.43-.75.67-1.3-.12-2.29a2.57,2.57,0,0,0-1-.88,1.68,1.68,0,0,1-.42-.22c-.32-.28-.38,0-.41.1C103.44,32.68,103.84,32.59,104.68,33.34Z" fill="#000000"></path><path d="M116,54.78a1.49,1.49,0,0,0-1.18,2.13c.52.71.22.5-.11.69s0,.51.11.49c.83-.18,1.15-.69.5-1.42-.45-.5.16-1.31.63-1.36.21,0,.29.11.39.25C116.73,56.05,117.13,54.78,116,54.78Z" fill="#000000"></path><path d="M108.75,59.44c-.9.77-3.25,1.82-5,1.11-.58-.23-.8.23-.49.38.87.43,1.28.39,1.4.59a3.49,3.49,0,0,1,.73,1.48c-.21.14-.76.11-.73.27s.39.26.5.25a12.05,12.05,0,0,0,1.8.08,1.52,1.52,0,0,0,1.27-.69c.4-.59.39-.73,1.11-3.29C109.45,59.21,108.87,59.34,108.75,59.44ZM106.07,63a.44.44,0,0,1-.22-.1,6.79,6.79,0,0,0-.65-1.55,6.4,6.4,0,0,0,3.31-1C107.93,62.53,108,63.25,106.07,63Z" fill="#000000"></path><path d="M99.56,75.84c-.46-.76-.67-1.66-.92-1.36S99,76,99.5,77.25c1.13,2.72,1.87,2.44,2.75,3.29,1.74,1.66,5,2.36,8.69.58a25.5,25.5,0,0,0,3.43-2c.27-.34,0-.71-.42-.42a10.93,10.93,0,0,1-1,.6c-1.6.82-3.83,2.2-5.62,2.15a6.71,6.71,0,0,1-4.37-1.24c-1.54-1.32-2-1.14-2.84-3.19Z" fill="#000000"></path><path d="M110.79,99.38a3,3,0,0,0-.59-.15c-5.71-.31-7,.4-8.7-.22-.61-.22-.5.36.1.52a8.73,8.73,0,0,0,2.33.22c1.42.06,1.72-.1,2.86,0,.52,0,1,0,1.56,0,1.45,0,2.81.07,1.44.52-4.32,1.11-4,.84-5.22,1.33-.5.25-.47,1.09.78,1.43,2,.55,2.14.54,3.41.83a.38.38,0,0,0,.51-.33,8,8,0,0,0-1.83-.47c-.76-.2-1.52-.43-2.28-.66s-.2-.54-.06-.58c.34-.1,3.81-.85,5.59-1.45a.78.78,0,0,0,.3-.24C111.22,99.76,111.14,99.51,110.79,99.38Z" fill="#000000"></path><path d="M80,107.33a2,2,0,0,0,2.27-.27,3.35,3.35,0,0,0-1.67-5.94C77.92,100.77,76.29,105.67,80,107.33Zm-.18-5.51c4.37-1,3.57,7.15-.13,4.62C77.81,105.16,78,102.25,79.83,101.82Z" fill="#000000"></path><path d="M111.68,30.12a3.82,3.82,0,0,0,1.41.74c1.31.38-.72,1,.87,2.29.28.23.48-.09.47-.25,0-.35-.44-.6-.58-.71.61-1.13.2-1.75-.47-1.92a3,3,0,0,1-1.26-.64,1.31,1.31,0,0,1-.49-1.45,3.86,3.86,0,0,0,.17-.58.25.25,0,0,0-.46-.18A2,2,0,0,0,111.68,30.12Z" fill="#000000"></path><path d="M102,55.31c.18-.59-.39-1.16-.66-.84a1.58,1.58,0,0,0-.11.44,1.94,1.94,0,0,0,.17.42A.36.36,0,0,0,102,55.31Z" fill="#000000"></path><path d="M106.14,49.39c.46-.58.85-1.18,1.56-1.06a3,3,0,0,1,2.37,1.1c.17.13.47.14.5,0a1.06,1.06,0,0,0,0-.47c0-.08-.13-.13-.19-.19a3.38,3.38,0,0,0-3-1.06,1.42,1.42,0,0,0-1,.49,8.9,8.9,0,0,0-.67.94C105.39,49.55,106,49.72,106.14,49.39Z" fill="#000000"></path><path d="M71,125c-1.86.36-2.38,0-4.2.14-.18,0-.45,0-.43.32s.54.24,1.33.27c.58,0,1.15.07,1.73.1v0a17.45,17.45,0,0,0,5.07-1.15c.21-.07.42-.16.62-.24s.23-.35.14-.42C74.91,123.81,73.91,124.57,71,125Z" fill="#000000"></path><path d="M115.33,37.48c.16.1.22.17.17.34a1.68,1.68,0,0,1-.41,1,.31.31,0,0,0,.06.52,2.38,2.38,0,0,1,.95.83c.08.14.41.13.46-.23s-.15-.37-.71-1a4.92,4.92,0,0,0,.23-1.56c0-.27-.27-.41-.52-.52-.51-.23.18-1.09,1.28-.78a1.09,1.09,0,0,0,1.09-.21A6.73,6.73,0,0,0,119,34.7a2.12,2.12,0,0,0,.32-1.53.32.32,0,0,0-.25-.23c-.08,0-.18.13-.25.22a2.39,2.39,0,0,1-1,2.05,1,1,0,0,1-1,.23C115.39,35,114,36.63,115.33,37.48Z" fill="#000000"></path><path d="M107.7,54.81c.26,0,.4-.15.41-.47s-.13-.54-.39-.55-.41.14-.41.46S107.45,54.8,107.7,54.81Z" fill="#000000"></path><path d="M193.48,105.24a40.55,40.55,0,0,0-2.5-3.65c-1.09-1.31-1.51-1.46-1.49-2,0-.94-.53-7.32-.54-9.32,0-1.24-.31-7.91-.31-8-.32-6.42-.7-10.08-2.86-14.1-2.77-5.14-11.59-4.46-14-4.88a40.51,40.51,0,0,0-10.5,0,.42.42,0,0,1-.42-.17,2.08,2.08,0,0,0-1.6-.87c-4.86-.15-26-.88-31.61-.63l-14.12,0a9.64,9.64,0,0,1,.39-2c1.67.41,2.63-.16,3.13-1.15a4.33,4.33,0,0,0,.79-2.9,2.05,2.05,0,0,0-.63-1.53c-.71-.52.5-1.06.69-3.35,0-.3.1-.37.39-.28.81.23,1.36-.2,2.6-.88.78-.42.57-1.11.62-1.7,0-.16-.07-.59.08-.64s.79.32.88.38a1.26,1.26,0,0,0,1.38.2c.46-.16,1.79,0,2.31-1.42.08-.22.13-.46.2-.68a3.79,3.79,0,0,0-.06-1.85c-.08-.39-.35-.91-.37-1.08s.3-.28.52-.54a2.45,2.45,0,0,0,.57-1.64,3.11,3.11,0,0,0-1.74-3,1.61,1.61,0,0,0,.41-1.54,7.55,7.55,0,0,0-.45-1.59,3,3,0,0,0-1.46-1.59,1.82,1.82,0,0,0-.06-1.34,5.46,5.46,0,0,0-.8-1.06,2.12,2.12,0,0,0-1.14-.62,10.2,10.2,0,0,0,.11-1.24,1.44,1.44,0,0,0-1-1.43,3.82,3.82,0,0,0-2.93,0c-.24.11-.43.27-.48.24s.22-.4.42-1a2.51,2.51,0,0,0-.17-1.53,3,3,0,0,0-2.56-2.08c-.65-.12-1,.25-1.48.66a2.79,2.79,0,0,0-2.07-.72,2.1,2.1,0,0,0-2,1.57l-.15.44c-.26.05-.21,0-.53,0a2.23,2.23,0,0,0-2.32.82,4.34,4.34,0,0,0-.56,1c-.28.76-.14.77-.46.71-2.54-.51-2.51,1.51-2.75,1.3a3.6,3.6,0,0,0-.47-.39A1.67,1.67,0,0,0,101,28c-1.7.57-2.07,1.18-2.26,2a2.73,2.73,0,0,0,.54,2.57.93.93,0,0,0-.59.79,2.06,2.06,0,0,0,0,.82c0,.42-.34,0-1.32.27A2.08,2.08,0,0,0,96,36a2.49,2.49,0,0,0,.36,2.28c.23.28.73.54.63.61-.37.29-2,.79-1.59,2.51a2.31,2.31,0,0,0,.77,1.37l.34.27a1.73,1.73,0,0,0,1.13.5c1.15,0,1.37-.45,2-.13a1.32,1.32,0,0,1-.52.58,2.06,2.06,0,0,0-.59,2.8,10.81,10.81,0,0,0-.62,2.49,9.16,9.16,0,0,0,.39,3.15l-.43.05a.75.75,0,0,0-.71,1c.14,1,.23,1.95.46,3.13.06.31,0,.68.47.79.2.06-.08.8.39,2.37.08.27.12.55.19.85-7,.41-3.36.08-6.69.12-12.68.18-18.79.37-22.33.07.08-.11.11-.2.15-.22.34-.12.38-.37.37-.67s0-.55,0-.81c.5-.16.52-.19.55-.66a4.66,4.66,0,0,0-.06-1.58c-.5-1.92-.44-2.2-.65-2.44-1.2-1.56-.19-2.9-1.22-6.22a1.13,1.13,0,0,0-2-.39,11.26,11.26,0,0,0-1,1.23c-1.16,1.6-.65,1.68-1.39,1.63-.29,0-.58,0-.88,0l-.22,0c-.6,0-.66,0-.85-.6-.12-.38-.32-.69-.45-1.08A3.33,3.33,0,0,0,61,47.55a.67.67,0,0,0-.78-.14,2.11,2.11,0,0,0-.84.78,7.69,7.69,0,0,0-1.46,2.58c-.16.52-.37,1-.57,1.57A13.74,13.74,0,0,0,53,50.8a11.09,11.09,0,0,0-2.75-.35c-1.25,0-1.48-.27-2.92-.31-.52,0-.57.39-1.07.3-.15,0-.29-.07-.44-.08-.53,0-1.08-.15-1.51.32-.07.08-.24.08-.36.1-.42.09-.84.15-1.25.27a8.69,8.69,0,0,0-2.91,1.27,13,13,0,0,0-3.34,2.79,13.86,13.86,0,0,0-2.78,4.75,8.24,8.24,0,0,0-.51,3.68,11.71,11.71,0,0,1,0,2.71.93.93,0,0,1-.1.37,10.3,10.3,0,0,1-2.35,2.93A17,17,0,0,0,29,71.22a14.71,14.71,0,0,0-2.6,5.46,10.58,10.58,0,0,0,.42,5.4,15.21,15.21,0,0,0,2.51,4.84c.08.1,1.65,1.71,2.17,2.21.36.35.09.29,0,1.5-.11,1.4-.09,2.79-.07,4.15a7.13,7.13,0,0,1-.09,1.6,38.71,38.71,0,0,0-.64,4c-.1,1.24-.83,2.94-.63,5.25-1.09,0-5.7-.35-8.5.83s-4.89,2.85-7,4a23.7,23.7,0,0,0-7.45,5.66,5.8,5.8,0,0,0-.73,1.28c-.3.83-.76,1.57-1,2.41-.57,1.74-.3,2.66-.32,4.8a29.79,29.79,0,0,0,.3,6.88c.24,1.06.2,1.83.38,2.35a6.94,6.94,0,0,0,.51,1.62c.28.42-.21.73-.22,1.09,0,.05-.06.1-.07.15-.32,2.6-.27.55-.15,7.05,0,2.26-.18,4.52-.11,9.91,0,.73.21,11.14.22,12,0,3.33.31,4.78,3.05,5.53,1.66.46.58.23,2.13,5.28-1.89.05-2.79.06-3.24.09-.75.05-1,.65.4.58a18.9,18.9,0,0,0,3.1-.09c.71-.1,1.09.21,2.54.18.5,0,1,0,1.48-.05a5.46,5.46,0,0,1,1,0c1.48.21,2.41.11,6.08-.15a16.57,16.57,0,0,1,3.74,0,3.23,3.23,0,0,0,.44,0c.17,0,.34-.08.35-.3s-.14-.27-.33-.29l-1.37-.1a20.68,20.68,0,0,0-3.85.14c-.38,0-.76,0-1.16,0a.67.67,0,0,1,0-.2,11,11,0,0,0,.79-2.64c.14-.61.35-1.21.53-1.8a.51.51,0,0,1,.59-.39c.59,0,141.8.14,142.67.13,1.45,0,.56-.22,2,4.72-.5.18.45-.29-5.38-.17a10.55,10.55,0,0,0-1.26.13c-.36,0-.43.64.36.61,9.43-.36.92.56,16.67.36,4.56-.05,1.95.16,4.44,0l.34,0a.31.31,0,0,0,0-.59c-.52-.23-.32,0-5.4,0-.22,0-.45,0-.59-.16.15-.45.31-.88.44-1.32,1.09-3.83.78-3.52,1.48-3.55a7.71,7.71,0,0,0,5.34-2.65.63.63,0,0,1,.67-.27,13,13,0,0,0,2.81,0c4.61.06,5.31.26,5.24-.23-.08-.27-.2-.22-3.47-.22.67-1.69.44-1,1-5.17a2.29,2.29,0,0,1,.2-1,4.56,4.56,0,0,0,1-2.65c-.08-.57-.27-22.34-.31-22.87a1.38,1.38,0,0,1,.24-.92,34.49,34.49,0,0,0,2.44-5,14.13,14.13,0,0,0,.94-3.3,41.14,41.14,0,0,0,.69-7.43C195.07,113.07,195.38,109.24,193.48,105.24Zm-32.34-41.3c6.6-.36,4.92-.51,9.33-.1a36.22,36.22,0,0,0,3.75.31c4.18-.05,9.34,1.2,11.2,4.95,2.19,4.39,2.27,10.29,2.47,13.47,0,0,.76,15.89.79,16.36a.86.86,0,0,1-.05.23,13.88,13.88,0,0,0-8.7-1.52s-.4-7.51-.4-7.53c-.25-6.35-.13-4.56-.17-6.51,0,0-.21-7.82-.21-7.84-.2-4.69-1.24-8-5.82-9.17-.22-.06-.48,0-.46.2s.5.36.78.48a5.62,5.62,0,0,1,3.46,2.48,11.65,11.65,0,0,1,1.4,5.45c.16,14.42.78,20.64.78,22.64-5.33,1.36-6.18,2-10.9,5.09a5.68,5.68,0,0,1-.55.28,10.31,10.31,0,0,0-2.74-5.07.71.71,0,0,0-1,0,21,21,0,0,0-1.91,3.21c-.42.86-.39,1-.8,1.83a.19.19,0,0,1-.33,0,9.15,9.15,0,0,0-2-3.26c-.14-.15-.26-.32-.39-.47a.61.61,0,0,0-1,0,13,13,0,0,0-1.71,4.63c-.25.74.32.74-.63,2.18a6.32,6.32,0,0,0-1.36,4.07l-.11.07a2.44,2.44,0,0,1-.54,0c-.23,0-.24-.22-.22-.74.05-1.11.16-2.22.2-3.34,0-.92.33-2.88.47-5.41.05-.79,1.61-15.1,1.63-17.12,0-.31,1.12-15.37,2.92-19.27C158.59,63.79,159,64.05,161.14,63.94Zm14.13,60.51a2.67,2.67,0,0,0,3.75.23c1-.81,1.34-1.49,2.41-1.86-.11,4.29-.11,3.45,0,4.49a15.79,15.79,0,0,1-.18,2.47c-.07.71-.25,4.4-.25,4.43,0,.64,0,1.26,0,1.88,0,1.07-.52,1.43-1.29,1.45s-1.51,0-2.25.08c-2.39.23-13.55-.18-14.95-.25-.7,0-1.39-.13-2.09-.21a3,3,0,0,1-1.31-.7c-.48-.31-.65-2.9-1-4.46-.54-2.65-.27-4.27-.22-8.29a16.15,16.15,0,0,1,.24-2.69c.19-1,.48-1,1.12-1.58a.62.62,0,0,1,.76-.15,9.72,9.72,0,0,0,4,.6c-.05.25-.09.47-.15.68a2.38,2.38,0,0,0,1.29,2.94,6.15,6.15,0,0,0,2.06.38,1.42,1.42,0,0,0,1.23-.49c.78-1,.32-1.51,1.56-2a8.49,8.49,0,0,1,2.44-.51,8.08,8.08,0,0,0,5.37-2.4,1.61,1.61,0,0,1,1.29-.52,2.68,2.68,0,0,1,1.07.17c-.69.55-2.33,1.16-3.64,2.21a4.59,4.59,0,0,0-1.59,2.93A1.34,1.34,0,0,0,175.27,124.45Zm-21.93-12.07h.56c.09.26.24.71.11.95a3.41,3.41,0,0,0-.15,2.16c0,.3.18.35.59.27.12.24.26.48.37.73.24.57.5.18.67.51a.34.34,0,0,1-.1.27,4.24,4.24,0,0,0-1.38,2.35,2.1,2.1,0,0,0,.69,1.94,1.91,1.91,0,0,0,1.42.64c.61.09.92-.54,1.4-.84,0,0-.2,1.16-.2,1.18h-4.68c0-2.59.1-2.28.17-4.52,0-1,.06-5,.06-5.1C152.88,112.51,153,112.43,153.34,112.38Zm-.4-.61c.08-.67.05-1,.3-.94a.25.25,0,0,1,.12,0l.45.13c.07.58.14.84-.36.84A4.4,4.4,0,0,1,152.94,111.77Zm4,9.08c-.09.12-.21.22-.29.34-.25.39-.53.42-1,.2a.63.63,0,0,1-.25-.62c.17-.57.3-.64.3-.77a.33.33,0,0,0-.09-.28.3.3,0,0,0-.29,0c-.19.24-.36.52-.55.8-.33-.34-.25-.78-.07-1.26a3,3,0,0,1,1.38-1.72,9.63,9.63,0,0,0,1.1,1,9.9,9.9,0,0,0,1.29.68A5.79,5.79,0,0,0,156.9,120.85Zm7.21-1.68c-3.08.21-3.46-.63-5-.64a2.64,2.64,0,0,1-1.9-.77c-.77-.71-.68-1-1.17-1.22a.77.77,0,0,1-.3-.43c-.09-.22-.17-.4-.47-.39a.33.33,0,0,1-.23-.17,1.21,1.21,0,0,1-.13-.42c-.07-.46-.06-.46-.54-.56-.2-.88.41-.89.15-2.27,0-.36-.06-.73-.09-1.14l.57.19c.18-.38,0-.57-.3-.7s-.17-.14-.18-.32a5.48,5.48,0,0,1,.94-3.26c.15-.25,1.39-2.32,1.21-2.52-.37-.44-.06-.87,0-1.3a12.24,12.24,0,0,1,1.17-3.21.87.87,0,0,1,.17-.21,9,9,0,0,1,2.45,3.57c-.22.1-.49.17-.73.28-.58.23-1,.5-1,.67,0,.39.82,0,1.27-.12a6.22,6.22,0,0,1,3.25-.26c.22,0,.36,0,.32-.17-.08-.34-.73-.45-1.08-.5a1.22,1.22,0,0,1-.46-.09c-.08-.08,0-.23.1-.5a15,15,0,0,1,2.4-4.21,9.16,9.16,0,0,1,1.77,2.51,6.29,6.29,0,0,1,.87,3.15.75.75,0,0,0,.31.6c2.11,1.82,2.08,4.32,2.27,4.89,1,2.58-.64,5.73-2.93,7.35S164.59,119.13,164.11,119.17ZM119.44,62.22s8.54,0,8.7,0c5.52-.21,21.09.34,23.66.45,7.89.33,7.72-.09,8.16.56-1.11.17-1.48.11-2,.75-1.14,1.36-1.81,5.44-2,7.18-.83,8.74-.5,4-1.23,12.17-2.41,26.88-2,19.91-2.33,26.84a5.84,5.84,0,0,0-2.71.27.28.28,0,0,0,.33.23c1.52,0,.95,0,2.39,0,0,.48-.09.89-.13,1.29-.75.28-1.62.14-2.2.79.13.22.26.29.48.23.55-.15,1.1-.27,1.71-.41a7.24,7.24,0,0,1,0,.94,23.13,23.13,0,0,0-.09,3c-.05,1.67-.12,5.52-.13,5.78a.21.21,0,0,1-.24.24c-.26,0-.69,0-.94,0-2.1-.08-7.25-.07-8.19-.14a10.16,10.16,0,0,0-.59-4.22c-.43-1.12-.45-2-2-2.91-2.1-1.27-2.49-1.69-3.28-1.76-2.28-.18-4.63-.08-5.83-.38-.66-.16-1.29-.46-1.93-.67l-2.79-.87a12.58,12.58,0,0,0,2-2.68c1.19-1.72,1.19-4.77,1.22-6.45a40.08,40.08,0,0,0-.27-5.76c-.23-2.38.31-4.94.1-9.53a28.53,28.53,0,0,0-1-6.76c-1.87-6.19-6.11-5.33-7.65-6.6-.57-.47-.87-1-2-1.16a.68.68,0,0,1-.64-.5c-.39-1.1-2.46-1.5-3.54-1.44a1,1,0,0,1-.76-.27,2.86,2.86,0,0,1-1-2.62s.64-5.44.65-5.54S118.31,62.38,119.44,62.22Zm2.37,66.44c.08,0,.15.11.23.15a9.65,9.65,0,0,1,2.81,2.23c.6.67,1.3,1.26,2,1.88l.38.3c-1.05.45-1.52.76-2.1.63a6.65,6.65,0,0,1-2.77-1.29,9.6,9.6,0,0,0-3.79-1.89c-.47-.1-1-.11-1.43-.17h0c-.15.09-.34.15-.43.29s.14.31.42.32c2.78.1,4.3,1.72,5.84,2.65.46.24.93.46,1.42.66a4.24,4.24,0,0,1-2.45,1.05c-2.35.44-3.21,1.44-5.06,1.66a10.21,10.21,0,0,1-2.92,0c-.2,0-.41,0-.61,0a12.62,12.62,0,0,1-2.71-.47,9.85,9.85,0,0,1-2.79-1.36,4.61,4.61,0,0,1-1-2.8,8,8,0,0,0-.5-2.26,7.06,7.06,0,0,0-.35-1,2.26,2.26,0,0,1,.14-2.07,10.9,10.9,0,0,0,.39-1.09,1.15,1.15,0,0,1,.57-.65c1-.54,1.88-1.1,2.84-1.61,1.63-1,2.72-.71,4.74-.87,1.1-.1,2.21,0,3.31-.26a27,27,0,0,0,3.17-.4,1.55,1.55,0,0,0,.57-.33.28.28,0,0,0,0-.28c-.23-.29-.54,0-.9.08-.71.09-4,.4-4.18.42a2.58,2.58,0,0,1,.72-1.33,7.17,7.17,0,0,1,4.28-2.57,6.92,6.92,0,0,0,2-.5,6.64,6.64,0,0,1,1.86-.49,9.93,9.93,0,0,0,2.37-.88c.12-.05.2-.2.31-.31-.16-.2-.3-.28-.54-.18-.44.19-.9.35-1.35.5a1.66,1.66,0,0,1-.54.1c-1.32,0-1.61.54-2.89.7a14.06,14.06,0,0,0-4,1.28,5,5,0,0,0-1.89,1.83,8.49,8.49,0,0,0-1,1.66c-.11.29-.32.3-.47,0a8.26,8.26,0,0,0-2.8-3.2,1.84,1.84,0,0,0,.36-1.56c0-.48-.4-.72-.9-.78a22.43,22.43,0,0,0-2.46,0c-5.56.07-5.88.16-6-.16s-.18-.74-.26-1.12c1.09-.21,4.86-.94,7.75-1.38,3.28-.51,3-.63,3.25-.08a3,3,0,0,0,.86,1.2.88.88,0,0,0,.85.27,1.13,1.13,0,0,1,1,.17c.81.58,1.37-.13,2.84-.2a3.42,3.42,0,0,0,2.16-1,1.78,1.78,0,0,0,.74-1.41c0-.07.16-.19.27-.23a4.56,4.56,0,0,1,3.33-.19c1.07.38,2.18.69,3.27,1a7.16,7.16,0,0,0,2.45.63c.75,0,1.53,0,2.28,0a10.52,10.52,0,0,1,2.89.32c.86.53,1.73,1.06,2.59,1.61a3,3,0,0,1,1.35,1.76,10.82,10.82,0,0,1,.67,2.51,15,15,0,0,1,0,2.22,4.29,4.29,0,0,1-.52,1.56,13.86,13.86,0,0,1-3.65,4.6c-4.19,2.9-7,1.85-7.87,3.6-.43.89-1.84.85-2.53.23a22.3,22.3,0,0,1-2.44-2.42,2.15,2.15,0,0,0-.45-.4,8.49,8.49,0,0,0-2.33-1.47c-.15-.05-.29-.12-.39.06A.29.29,0,0,0,121.81,128.66Zm-17.16,16.56a2.56,2.56,0,0,1-.24,1.54,2.74,2.74,0,0,1-1,1.12.52.52,0,0,1-.82-.54c.08-.62.15-1.24.27-1.85a1.81,1.81,0,0,0-.11-.81.29.29,0,0,0-.32-.23c-.44.08.06.62-.44,1.89-.45-.35-.33-.81-.26-1.24a4.28,4.28,0,0,0,0-2.41,20.67,20.67,0,0,0-1.06-2.09c-.39-.83-.71-1.88-1.33-3.07a8.61,8.61,0,0,0-1-1.35c1.81-.36,2.31-.41,4.07-.9.74-.21.51.26,1.27.56a.56.56,0,0,1,.37.61,6.63,6.63,0,0,0,.12,2c.29,1.68.73,2.07.84,3a4.66,4.66,0,0,1-.29,1.53A5.36,5.36,0,0,0,104.65,145.22Zm-10.39-7A17.18,17.18,0,0,1,90.67,141a9.47,9.47,0,0,1-1.87.82,2.07,2.07,0,0,1-1.56-.18c-.34-.18-.42-.39-.33-.84,0-.16.16-.36,0-.45a.64.64,0,0,0-.47.06,5.14,5.14,0,0,1-2.16.65.64.64,0,0,1-.67-.91,1.82,1.82,0,0,1,.77-1.16c1.67-1.05,2-2.49,3.84-3a7,7,0,0,0,4.27-3.14,22.54,22.54,0,0,1,1.61-2,1.63,1.63,0,0,1,1.83-.55,7.45,7.45,0,0,0,2.94.17,17.18,17.18,0,0,1,1.78-.11,7.82,7.82,0,0,0,1.82,4.25,32.77,32.77,0,0,1-4.11,1C96.54,136,96.71,136,94.26,138.24Zm4-1.33-.07.11H96.71c.22-.36.6-.43.89-.62a.3.3,0,0,1,.25.06C98,136.6,98.15,136.76,98.3,136.91Zm-16.33-7a1.65,1.65,0,0,0-.58-.14c-4.12,0-5,2.55-8,2.77a2.82,2.82,0,0,1-1.84-.83c.76-.62,2-1.62,2.44-2.06a9,9,0,0,1,2.74-1.88,1.37,1.37,0,0,0,.45-.3.3.3,0,0,0,0-.29A.28.28,0,0,0,77,127a6,6,0,0,0-1.09.41,12.21,12.21,0,0,0-2.55,1.85c-.63.6-1.33,1.12-2,1.66a1.68,1.68,0,0,1-2.34-.25c-.16-.21-.35-.39-.52-.59-.86-1.06-2.25-.85-4.94-2.27a19.5,19.5,0,0,1-1.84-1.15,4.16,4.16,0,0,1-.7-.63,11.7,11.7,0,0,1-2.14-2.81,10.88,10.88,0,0,1-1-2.09,7.86,7.86,0,0,1,.16-4.48,19.83,19.83,0,0,1,.77-1.84c.48-1,1.4-1.32,3.58-2.42a3.59,3.59,0,0,1,2-.4c.37,0,.74,0,1.12,0,.21,0,.43,0,.62.07l.81,3.43c-.24-.08-.42-.12-.58-.19-.32-.2-.69.29-.27.48a10,10,0,0,0,2.81.77,4.87,4.87,0,0,0,1.37.11c1.47.06,1.91.25,2.61.23a8.42,8.42,0,0,1,1.65.18c3.23.61,4.52.34,5.68,1.23a12.48,12.48,0,0,1,1.62,1.28,10.33,10.33,0,0,1,1.15,1.81,16.38,16.38,0,0,1-3.21-.48,4.13,4.13,0,0,1-1.54-.44c-.27-.2-.57.25-.29.4a1.71,1.71,0,0,0,.56.35c7,1.72,8.73.42,12.28,3.15.52.36.94.7,1.35.94.72.39.67,1,1.14,2.67a1.62,1.62,0,0,1-.11,1c-.19.49-.94,2.46-1.14,3a5.73,5.73,0,0,1-2,2.49,6.37,6.37,0,0,1-1.57.63c-.86.31-1.76.4-2.4,1.43a2.26,2.26,0,0,1-1.86,1,5.14,5.14,0,0,1-1.66,0c-.34-.09-.66-.22-1-.32-2.32-.71-3.19-2.13-5.81-3.22a1.75,1.75,0,0,1-1.06-.85c1-.59,2-1.15,3-1.73a8.12,8.12,0,0,1,3-1.1c1.09-.11,1.45.12,1.61-.27A.28.28,0,0,0,82,129.87Zm18.36-57.3c.55,1.73.81,1.45,1.25,2.65a4.36,4.36,0,0,0,1.12,1.69c1.47,1.42,3.06,2.38,5,1.77S112,77,113.1,75.06c.57-1,1.49-1.77,1.72-3.65,1.13.16,2.43.38,2.72,1.48a1.1,1.1,0,0,1,0,.54,10.31,10.31,0,0,1-.84,2,2.19,2.19,0,0,0-.17.49c.34.15.53,0,.66-.28a14.72,14.72,0,0,0,1.11-2.34c1.54.19,1.45,1.47,3.26,1.8,3.34.62,5.28,2.43,6.05,6a34.8,34.8,0,0,1,.81,5.74c0,1,.11,2,.09,2.94-.07,2.6-.5,4-.17,7.53.19,2.78.61,4.06.32,6.17a13.18,13.18,0,0,1-1,4.83,12.8,12.8,0,0,1-2.11,2.58c-1.45.73-.94.22-1.83.57l-.95.4a7.83,7.83,0,0,1-.66-3.67c-.11-2.34-.82-2.84-1.84-4.71a6,6,0,0,0-1-1.26,2.84,2.84,0,0,0-1.61-1.13c-.4-.14-.71-.3-.46-1a6,6,0,0,0,.29-3.81,9.87,9.87,0,0,1-.15-3.11c.58-4,1.73-4.5,2-7.56.1-1,0-2.61,0-2.83,0-.37-.36-.54-.41,0-.57,6,0,2.62-2.09,8.68-.67,2-.34,4.65,0,6.71.09.5-.07.91-.5,2.33,0,0-.08,0-.12,0-1.85-.53-2.24,1.62-3,2-1.06.58-1.91,1-2,1.85a3.17,3.17,0,0,0,.38,1.55c-3.25,1.22-6.39,2.49-9.76,3.48-1.13-5.12-2.6-13.73-3.33-16s-2.29-2.15-6-2.26c-.45,0-.89-.06-1.33-.08-.26,0-.42-.43-.44-.79a13.21,13.21,0,0,1,1-3.64,74.45,74.45,0,0,0,2.6-8.07c.14-.84-.31-1-.4-.4-.89,2.41-.68,2.23-1.17,3.62-2.63,7.52-3,7.89-2.73,8.76a1.62,1.62,0,0,1,0,.44c-4.4-.26-7.6-.2-8.17-.2-.27-.61.8-2,2.35-4.29a11.49,11.49,0,0,0,1.61-2.75,7.11,7.11,0,0,1,1.31-2.3c2.4-2.93,2.8-5.15,4.63-7a5.13,5.13,0,0,1,3-1.24c.85-.18,2-.48,2.81-.68a2.54,2.54,0,0,1,.39,0c.07.27-.07.65.42.62.12-.43.26-.85.42-1.27a3.46,3.46,0,0,1,2.16-1.5.54.54,0,0,1-.14.16A1.68,1.68,0,0,0,100.33,72.57Zm15.79,39.68c-4.32.75-8.71,1.48-13,2.22,0-.11-.8-3.5-.92-4a.38.38,0,0,1,.3-.5c2.78-.91,7.92-2.92,11-4a2.61,2.61,0,0,0,.89-.46c.39.54.77,1,1.14,1.58.85,1.18.55,2.21.53,4A11.13,11.13,0,0,0,116.12,112.25Zm-.5,1.23c.34.26,1-.09,1.07-.72,0-.39,0-.77,0-1.15,0-2.2.24-3.21-.29-4.27-.39-.82-.8-1-1.38-2.12a1.39,1.39,0,0,0-1.78-.57.62.62,0,0,0-.46.58c0,.3-.17.42-.51.44-.13-.35-.29-.7-.39-1.06-.18-.62,1.38-1.33,2-1.61a1.25,1.25,0,0,0,.69-.83,1.47,1.47,0,0,1,2-.87,5.46,5.46,0,0,1,2.35,1.55,12.75,12.75,0,0,1,1.53,2.25c.82,1.54.86,1.21,1,3a12.55,12.55,0,0,0,.32,2.94c.44,1.49.79,1.91-.59,2.92-1,.68-1.48.37-3.13.85a.79.79,0,0,1-.81-.13,1.21,1.21,0,0,0-1.15-.14c-.46.08-1-.46-1.17-.9a2.34,2.34,0,0,1-.09-.38C115.14,113.29,115.41,113.16,115.62,113.48ZM94.83,92c1.55.12,2.46.28,3,1.54.32.8,1.88,8.27,3.24,14.81.1.49,2.13,10.09,2.13,10.09-.78,0-21-.32-21.74-.31a1.44,1.44,0,0,1-1-.33,4.2,4.2,0,0,0-2.27-.79c-4.35-.61-4.63-.72-5.44-.68a8.09,8.09,0,0,1-1-.09l-1.5-.08a18.63,18.63,0,0,1-2.3-.34c-.44-.07-.31-.61-.58-1.51-.39-1.37-.74-2.74-1-4.12-.24-1.08-.89-3-2.63-10.3-.17-.73-1.4-6-1.45-6.63-.09-1.13.71-1.59,2.92-1.79C69,91.08,92.34,91.77,94.83,92Zm14.88,27.12c.91,0,2.26-.06,2.89.62.32.43.76.75,1.09,1.16,1,1.22,1,1.25,1,1.41-.33,0-.62,0-.9,0a.7.7,0,0,1-.76-.41l-.08-.15a3,3,0,0,0-2.32-1.57c-.63-.11-27.5-.31-27.75-.31-.26-.27-.8-.72-1.11-1,.11,0,21.51.33,21.62.34C104.7,119.19,108.87,119.1,109.71,119.07Zm-6-1.88c.3-.12,8-.13,8.12-.15s.4,0,.38.35a2.57,2.57,0,0,1-.15.85c-.13.18-7.66.14-8.11.18Q103.84,117.79,103.72,117.19ZM103,132.32c.07.1.26.23.35.2.78-.27,1.62-.09,2.4-.31a.39.39,0,0,1,.15,0c.21.26.1.55,0,.81,0,.1-.24.2-.39.23-1.47.28-1.46,0-1.42.66a3.58,3.58,0,0,0,1.69,0c.49-.05.45,0,.65.85-.5.15-1,.29-1.44.45a1.16,1.16,0,0,1-1.41-.33A7.06,7.06,0,0,1,102,130a2.08,2.08,0,0,1,.09-.6c.08-.33.13-.45.31-.51a22.36,22.36,0,0,1,2.57-.48c.31,1.22.44,1.37,0,1.42a5.66,5.66,0,0,0-1.26.17c-.15.1-.4.18-.34.38s.3.21.45.2c.57,0,1.14-.1,1.74-.17a4.8,4.8,0,0,1,.3,1.2c-.61,0-1.17.09-1.74.11a1.55,1.55,0,0,0-.93.31A.44.44,0,0,0,103,132.32Zm-6.91-4c-.67-.15-1.32-.38-2-.56a.46.46,0,0,1-.36-.37c-.13-.48-.27-1-.42-1.47,1.91-.58,2.78-.85,6-.22,1,.22,2,.34,3,.54.59.11,1.18.07,1.76.13a6.06,6.06,0,0,1,1.2.41c0,.73-.4.86-.88,1s-1.05.22-1.58.3a1.51,1.51,0,0,0-1.4,1.13.51.51,0,0,1-.49.44c-3.39.36-3.36.44-3.44,0A1.57,1.57,0,0,0,96.1,128.29Zm.61,1.47c0,.08-.59-.12-.89-.18A2.19,2.19,0,0,0,94,130c-.9.72-1,.89-.93.75.32-.81.6-1.51.89-2.26l.55.11c.32.07.62.19,1,.24a7.71,7.71,0,0,0,.89.26c.23,0,.29.21.36.38A.37.37,0,0,1,96.71,129.76Zm8.78-3.56a1.71,1.71,0,0,0-1.25-.54,5.77,5.77,0,0,0-.72,0c-2.37-.14-3.73-.7-5.23-.86a9.05,9.05,0,0,0-4.38.29c-.1,0-.21,0-.32.09l-.21.07a.69.69,0,0,1-.76-.28,3.61,3.61,0,0,0-.77-.53c-1.84-1.23-2.74-2-4.69-2.44-.57-.11-1.51-.2-3.19-.4-.59-.06-.32-.26-.7-1a2.45,2.45,0,0,1,.39-.08c2,0,24.39.26,26,.26a3.73,3.73,0,0,1,1,0c1,.2,1.3.87,1.84,1.59-.48.07-.92.16-1.36.21-1.51.23-2.59,1.24-4.73,2.34a1.34,1.34,0,0,0-.76.88A3.35,3.35,0,0,1,105.49,126.2Zm-.62,9.84s.07-.08.11-.11a4.92,4.92,0,0,1,1.81-.45.24.24,0,0,1,.19.08c.3.54.9.67,1.37,1,.12.08.25.13.45.24l-4,.28C104.64,136.67,104.86,136.36,104.87,136Zm12.29-79.12c-.14.3-.24.62-.37.92a2.11,2.11,0,0,1-2.71,1c-.22,0-.48-.18-.63-.1s-.16.38-.2.58a45.6,45.6,0,0,0-1.14,8.91,2.8,2.8,0,0,0,1.17,2.48c.21.16.39.38.6.56s.33.27.18.72a7.86,7.86,0,0,1-1.38,2.44,11.5,11.5,0,0,1-.92,1.25,9.82,9.82,0,0,1-4.7,2.39c-1.75.37-3.23-.92-4.41-2.26a3.51,3.51,0,0,1-.48-.92c-.7-1.59-1.12-1.67-1.28-2.86l1.28-.61a4,4,0,0,0,2.33-3.22c.06-.35.07-.39.4-.39,3.73.08,5.18-1.58,6.17-3.52.27-.57-.08-.66-.31-.43-2.69,2.56-5.08,3.36-8.38.6a10.21,10.21,0,0,1-3.53-5.69,11.43,11.43,0,0,1-.13-1.54l3.67-.38a1.32,1.32,0,0,0,.75,1.22,2.28,2.28,0,0,0,1.92.25c.29-.1.38-.4.29-.52s-.3,0-.44,0c-1.16.31-2.64-.62-1.66-1.37.63-.45,1.3-.62,1.37-1.46,0-.23-.22-.29-.31-.11a1.06,1.06,0,0,1-.63.79c-.06-.4-.13-.73-.15-1.11s.32-.57.63-.61.82,0,.84.47a6.31,6.31,0,0,0,.19,1.14,2.21,2.21,0,0,0,.35.89.68.68,0,0,0,.72.29c.79-.06,4.26-.32,5-.51s.89-.12.72-1.1c-.09-.58-.1-1.18-.15-1.76a1.49,1.49,0,0,1,1.25-.06c.25.58.48,1.12.72,1.65.09.2.32.21.47,0a2.48,2.48,0,0,1,.92-.78C116.59,53.33,118,55.19,117.16,56.92ZM98.84,53.26c-.09-.33,0-.43.24-.46l3.31-.46c.11,0,.17,0,.22.11a26.75,26.75,0,0,1,.42,2.73,3.81,3.81,0,0,1,.08.74.91.91,0,0,1-.51.33c-1.23.11-2.62.27-3.87.4A15.31,15.31,0,0,0,98.84,53.26Zm6.71-1.47c2.67-.34,3.2-.42,5.43-.62.21,1.66.29,2.63.42,3.59s.12.89-.75,1-1.56.19-2.35.26c-2,.19-2.33.41-2.44-.09-.15-.67-.24-1.39-.33-2C105.28,52.18,105.14,51.84,105.55,51.79Zm8.27,1.65,1.35.15-1,.69C114,54,113.94,53.76,113.82,53.44ZM98.38,42.8a1.56,1.56,0,0,1-1.68-.44c-.65-.57-1.1-1.65-.45-2.26a2,2,0,0,1,1.25-.76c.49,0,.42-.64-.08-.85A2,2,0,0,1,96.61,36a1.87,1.87,0,0,1,2-1.07.51.51,0,0,0,.67-.51c0-.29-.08-1,.16-1.19.65-.55,1,.11,1.22-.07s0-.37-.08-.51c-.41-.4-1.66-.55-1.2-2.57a1.34,1.34,0,0,1,.73-1,2.43,2.43,0,0,0,.51-.32,1.52,1.52,0,0,1,1.72,0,.83.83,0,0,1,.23.3.46.46,0,0,0,.85-.06,1.56,1.56,0,0,1,2.06-1.29.63.63,0,0,1,.58.5c.13.47-.28.59-.76,1a.18.18,0,0,0,0,.27c.06.09.28.12.39.11a1.31,1.31,0,0,0,1-1.12c0-.92-.36-1.16,0-1.72.69-1.4,1.42-1.81,3.11-1.3.26.07.37,0,.44-.25a.84.84,0,0,0,0-.27,1.74,1.74,0,0,1,1.51-1.68,1.81,1.81,0,0,1,1.66.82c.29.5.47.49.76,0a4.1,4.1,0,0,1,.59-.66.42.42,0,0,1,.31-.09,2.35,2.35,0,0,1,1.09.33A2.53,2.53,0,0,1,117.16,27a10.07,10.07,0,0,1-.56.88.38.38,0,0,0,.19.5,1,1,0,0,0,.91-.34,2.47,2.47,0,0,1,2.12-.56,2.07,2.07,0,0,1,.43.1c1,.25,1.09.75,1,1.55a2.68,2.68,0,0,1-.42.94c-.14.33,0,.56.39.51.73-.23,1.11.15,1.6.66a1.26,1.26,0,0,1,.19.28c.61.94,0,1.21-.34,1.88a.29.29,0,0,0,.32.42,1.56,1.56,0,0,0,.47-.17.36.36,0,0,1,.41,0,1.87,1.87,0,0,1,.64.67,5.68,5.68,0,0,1,.59,2.06c0,.59-.63,1-1.22,1a1.18,1.18,0,0,0-.8.17.62.62,0,0,0-.16.89s.24,0,.35,0a.73.73,0,0,0,.29-.15,1.81,1.81,0,0,1,2.38.61c.58,1,.71,2.59-.18,3.33-.41.35-.45.39-.25.89a4.73,4.73,0,0,1,.17,2.71c-.37,1.24-1.44,1.11-2.16,1.31s-2.24-1.18-2.46,0,0,1.54-.59,1.85c-1.12.54-1.4.84-2,.72-.35,0-.49-.55-.54-1.18a15.09,15.09,0,0,1,0-1.78,3.54,3.54,0,0,0,1.67-.39c.28-.1.34-.37.44-.6.22-.49-.44-.42-.5-.28-.17.4-1,.63-1.27.65-.85,0-.41,0-1.23-1.28,0-.07-.09-.15-.16-.26a3.91,3.91,0,0,0,1.63-.71c1.16-.83.55-1.32,1.36-1.67.49-.22.62.29,2.4-.46a.47.47,0,0,0,.26-.66.25.25,0,0,0-.39,0,2.15,2.15,0,0,1-1.24.42,3,3,0,0,1-.6,0,1.45,1.45,0,0,0-1.53,1.08,2.18,2.18,0,0,1-2.56,1.22.7.7,0,0,1-.26-.19c-1.63-1.68-1.25-2.11-3.25-2.52a15.73,15.73,0,0,1-2.15-.66,11.93,11.93,0,0,0-1.4-.32,8.06,8.06,0,0,0,.84-2,1.3,1.3,0,0,0-.32-1,.32.32,0,0,1,0-.46,3.63,3.63,0,0,0,1.1-2.27,1.67,1.67,0,0,0-.57-1.56,1,1,0,0,0-1-.15A.3.3,0,0,0,109,33c.06.56.71,0,1,.53.56.82-.16,1.94-.79,2.72-.4.48-.45.66-.1,1.18a1.15,1.15,0,0,1,.08,1.2c-.22.45-.46.89-.7,1.32a1.07,1.07,0,0,1-.55.43,10.38,10.38,0,0,1-3.82.48c-.15-.8-.78-1.12-1.55-1.75a.78.78,0,0,1-.29-.78A1.89,1.89,0,0,0,102,37a1.47,1.47,0,0,0-1.84-.56c-.14.08-.26.22-.17.36a.44.44,0,0,0,.37.16.82.82,0,0,1,.73.08.9.9,0,0,1,.53.9,2,2,0,0,0,1.15,2.1,3.59,3.59,0,0,1,.62.55c.12.13.13.27-.08.34-1.78.6-2.23.73-3.33,1.85A1.91,1.91,0,0,0,98.38,42.8Zm1.06,1.55c1.28-1,1.17-1.82,2.34-2.23.55-.21.76-.4,1.4-.6a7.13,7.13,0,0,1,2.68-.14,15.91,15.91,0,0,0,2.26-.48,4.76,4.76,0,0,1,2.09,0,3.64,3.64,0,0,1,.7.31c1.33.68,2.57.22,3.28,1.32A7.36,7.36,0,0,0,115.53,44a4.23,4.23,0,0,1,1.72,3.29,10.57,10.57,0,0,1,.11,2.8,6.41,6.41,0,0,1-.83,3l-2.81-.53a8.5,8.5,0,0,1,.6-3.13c.4-1.13,1-1.09,1.2-1.93,0-.21,0-.37-.19-.44s-.15.11-1.17,1.28a.49.49,0,0,1-.6.11c-1.16-.38-1.31-1.56-.5-2.49.1-.11.23-.2.31-.31a.32.32,0,0,0,0-.45c-.31-.29-.85.65-1.55,1.08a1.3,1.3,0,0,1-1.84-1,2.16,2.16,0,0,1,.27-.77c0-.07.12-.11.13-.17s0-.26,0-.31A.44.44,0,0,0,110,44a.69.69,0,0,0-.3.23c-.31.36,0,.79-1.27,1.17a1.16,1.16,0,0,1-1.36-.76,2.39,2.39,0,0,1,.07-.75s.06-.1.07-.15.09-.33-.09-.45c-.39-.16-.63.28-.61.7a.82.82,0,0,1-.41.79c-.57.41-1.16.66-1.63.14a1.09,1.09,0,0,1-.3-1.19.48.48,0,0,0,.07-.2.27.27,0,0,0-.41-.27.65.65,0,0,0-.33.55,2.48,2.48,0,0,0,.08.66c.24.88-.65,1.8-1.88,1.13a.72.72,0,0,1-.32-.72,2.44,2.44,0,0,0,0-.54.3.3,0,0,0-.37-.26c-.08,0-.15.19-.17.3a2,2,0,0,0,.42,1.73,1.29,1.29,0,0,1-.64.72,1.2,1.2,0,0,1-1.82-1.05A1.69,1.69,0,0,1,99.44,44.35ZM98.19,56.54c-.36-2.28-.47-2.93-.49-3.22a.35.35,0,0,1,.39-.38c.23,0,.3.12.3.35A14.49,14.49,0,0,1,98.19,56.54ZM99,47.16a1.77,1.77,0,0,0,2.53-.47.91.91,0,0,1,.81-.38,1.59,1.59,0,0,0,1.73-.92s.06,0,.12-.11a2.56,2.56,0,0,0,.92.34,1.81,1.81,0,0,0,1.64-.66l.37.44c.7.88,1.2.6,2.34.27a1.84,1.84,0,0,0,1.35,1.38,1.34,1.34,0,0,0,1.21-.18,2.22,2.22,0,0,0,0,.89,2.16,2.16,0,0,0,1.36,1.42c.39.13.38.14.27.54a8.12,8.12,0,0,0-.49,2.52c0,.21-.08.3-.31.26s-.69-.08-1-.12c-.07-.44-.13-.84-.18-1.23s-.12-.61-.76-.58c-1,0-5.21.6-5.55.67a.71.71,0,0,0-.61.8,12.5,12.5,0,0,1,.22,1.38,1.38,1.38,0,0,0-1.44.22c-.32-1.58-.19-2.09-1.19-1.93l-3.52.55A7.44,7.44,0,0,1,99,47.16ZM69.74,61.38c3.3.71,22,0,22,0a64.74,64.74,0,0,0,6.9-.16.4.4,0,0,1,.46.28A10.53,10.53,0,0,0,102,65.05a6.06,6.06,0,0,0,1.88,1.15c.08,0,.15.2.15.31q-.06.8-.15,1.59c-.09.94-.26,1.69-1.16,1.82a1,1,0,0,0-1.12-.33,4.23,4.23,0,0,0-3.26,1.85.89.89,0,0,1-.75.45c-2,.24-2.27.65-3.34.75a6.45,6.45,0,0,0-2.29.77,2,2,0,0,0-1.15,1c-.34.48-2.17,3.37-2.18,3.39a17.74,17.74,0,0,1-2,3A8.59,8.59,0,0,0,85,83.48a8.7,8.7,0,0,1-1.53,2.86A20.16,20.16,0,0,0,81,90.42a.53.53,0,0,1-.53.38c-10,.2-18.47-1.28-18.93,1.85-.12.81.07,1.22,1,4.91,2.64,11,1.33,5.85,3.35,13.56a3.28,3.28,0,0,1-.5,0,8.93,8.93,0,0,0-2.42.25c-.28.07-4.05,1.52-4.72,3-1.25,2.54-1.92,5-.78,7.65-.45,0-9.22,0-9.39,0a.36.36,0,0,0-.2.22c0,.1.22.31.55.3.52,0,1,.11,1.55,0a8.37,8.37,0,0,1,1.32,0c.85,0,1.7,0,2.55,0s1.85,0,2.77,0h.88a.44.44,0,0,1,.44.26c.18.33.38.64.55,1a9.21,9.21,0,0,0,1.09,1.55,10.85,10.85,0,0,0,1.92,1.91c1.67,1.2,2.56,1.4,5.46,2.52a3.31,3.31,0,0,1,1.36,1A2.21,2.21,0,0,0,70.33,132a.84.84,0,0,1,.87.26,3.86,3.86,0,0,0,1.93.92,1.44,1.44,0,0,1,.71.37,5.58,5.58,0,0,0,2,1.28,11.65,11.65,0,0,1,2.44,1.51l.68.51c-1.21.11-2.42,0-3.8.12-.33,0-6.93.1-11.5-.08-1.3-.05-4.56-.27-6.39-.26-1,0-6.38-.21-6.69-.26a6.84,6.84,0,0,0-.91-.07c-6.88,0-9.33,0-10.29,0-1.4.09-1,.73-.17.73,2.41,0,9.33-.08,10.07-.1,1.14-.05,2.27.1,3.41.13,12.55.28-.69.35,20.82.55,4.64.05,4.73-.2,7,0,.87.09,1.09,1,3.39.72a8.36,8.36,0,0,0-.54.68,2.29,2.29,0,0,0-.33,2.1.83.83,0,0,0,.93.59c1.32-.1,1.61-.42,2.22,0s.46.75,2.18.81a2.58,2.58,0,0,0,.94-.22,15.64,15.64,0,0,0,5.63-3.76,7.11,7.11,0,0,1,.85-.71.93.93,0,0,1,.46-.15,8.33,8.33,0,0,1,2.65.18.45.45,0,0,1,.21.22,12.48,12.48,0,0,1,.66,1.45,11.12,11.12,0,0,0,1.34,2.76,1.42,1.42,0,0,1,.26.94c0,.85-.12,1.71-.21,2.57a1.28,1.28,0,0,0,.63,1.35.41.41,0,0,1,.24.39c0,1,.33,1.21,1.28,1.16a1,1,0,0,0,.48-.1,2.93,2.93,0,0,0,1.51-3.32c-.34-1.46.58-1.87.46-3.87a18.61,18.61,0,0,0-.86-3.7c1.18-.1,1.55-.07,2.66-.16s1.49.13,2.59,0,2.54.57,3.73.37a9,9,0,0,0,4-.36,3.29,3.29,0,0,1,2-.09c2.82.68,5.32.13,15-.1,2.22,0,1.11.06,2.3,0,1.56-.05,3.12,0,4.67-.07.73,0,1.45-.12,2.16-.1a9,9,0,0,1,2.64.19c.12,0,.31-.06.45-.14s.1-.14.14-.21c-.18-.42-.56-.47-.92-.5a16.15,16.15,0,0,0-4.17.08c-.21.06-.48-.07-2.46,0-.64,0-1.28,0-1.92,0-2.88.25-6.24,0-13.67.47-3.21.19-3-.25-4.19-.33a3.06,3.06,0,0,1,.51-.26c.59-.16,1.17-.34,1.77-.45a6.36,6.36,0,0,0,2.7-1.31c.36-.21.49.19,1.62-.45s1-.79,1.33-.69a2.28,2.28,0,0,0,1.87-.27c1-.6.62-1.25,2.58-1.78.68-.18,1.38-.27,2-.49s1.44-.57,2.16-.86c3-1.26,4.18-3.48,5.82-6.16a4.79,4.79,0,0,0,.33-.92c.13,0,.27,0,.41,0,.93,0,8.79,0,8.79,0s.23.07.17.25c-1.32,4.6-1.33,4.72-1.4,5.39,0,0-1.06,4.49-1.3,5.2-.29.87-.51,1.77-.75,2.65s.11,3-.16,4.58c-.12.88,0,3.74,0,4.49a33.61,33.61,0,0,1,.18,4.58c0,1.07,0,2.13,0,3.19.05,1.22.2,2.44.14,3.66a.65.65,0,0,1-.64.67,77,77,0,0,1-9.5.12c-.36,0-.73.07-1.1.09-.53,0-1.06,0-1.59,0a14.26,14.26,0,0,1-3,0,1.94,1.94,0,0,0-.72,0,38.46,38.46,0,0,1-4.13,0c-2.11,0-5.74-.3-8.31-.47-.71,0-1.43,0-2.14-.06-.29,0-.58-.08-.88-.08-.87,0-1.73.08-2.6.08-.63,0-1.25-.11-1.88-.09-.92,0-1.84.13-2.76.17s-1.77,0-2.65,0c-.73,0-1.46-.1-2.19,0-.51,0-1,.09-1.54.12s-.7,0-3.41-.65a3.36,3.36,0,0,0-.94-.26,9.88,9.88,0,0,0-1.21,0,24.44,24.44,0,0,1-3.31.23c-.88,0-1.77.07-2.65.1-.45,0-.89-.05-1.33,0A35.27,35.27,0,0,1,84,157c-.18-.05-3.64.06-3.74.07a20.76,20.76,0,0,1-4.17.08c-3.22-.09-5.1-.76-7.37-.66-.47,0-1,0-1.43,0-.86,0-2.38.14-2.7.13a7.23,7.23,0,0,0-1.6.15c-1.42.29-1.77-.11-2.71,0-1.92.11-2.83,0-4.61,0-1.18,0-2.41.11-3.58.12-2,.06-2.44.31-4.27.24a42.5,42.5,0,0,0-6,.08,18.16,18.16,0,0,1-3.54-.06.28.28,0,0,1-.27-.3,32.31,32.31,0,0,0-.61-3.54c-1-5.13.18-6.65-.3-9.93a31.46,31.46,0,0,1-.41-4.41,4,4,0,0,1,.84-2.63,34,34,0,0,0,2.13-3.75c2-3.48,1.46-2.45,5.32-8.37.34-.48.65-1,.94-1.49a4.23,4.23,0,0,0,.25-1c2.23-9.52.28-10.62,2.16-18.24a6.88,6.88,0,0,0,.17-1.42c.17-6.19,0-6.3.31-7.93.14-.94.14-1.93.26-3.82,0-.16.06-.33.08-.49.09-.75.2-1.5.24-2.25.18-3.42,0-4.06.27-4.77a14,14,0,0,0,.4-2.33c.11-.67.19-1.35.26-2,.06-.53,0-1,.29-3.68a38.33,38.33,0,0,0,.54-7.62c.83.24,2.49.3,3.26,1.49a2.48,2.48,0,0,1,.36,1.62c0,1.24-.13,2.41,1,2.72.07,0,.12.09.19.11a4.56,4.56,0,0,0,1.27.32A1.79,1.79,0,0,0,59,72a6.24,6.24,0,0,0,.46-2,7,7,0,0,0-1-4.16,2.75,2.75,0,0,0-.69-.79,6.29,6.29,0,0,0-1.62-1.13,2.69,2.69,0,0,1-.29-.16A.54.54,0,0,0,56,63.6c.27,0,2.1-.34,2.74-.42a.8.8,0,0,1,.53,0c1,.61,2,.48,3.66.75a8.1,8.1,0,0,0,2.82-.07,4.3,4.3,0,0,0,2.74-2.52s0-.31.25,0,.35.38.64.06C69.45,61.35,69.58,61.35,69.74,61.38ZM57.68,53.62c.55-1.76.51-3.13,2.44-5.35.28-.3.33-.42.65-.14a4.82,4.82,0,0,1,.88,1.77,6.5,6.5,0,0,1,.25.86,9.56,9.56,0,0,1-1,.5c-.24.11-.51.68.16.44a7.24,7.24,0,0,1,3.38-.47c1.12.05,1.39.49,2.68,1,.18.07.41.22.47.12s-.1-.32-.47-.61a10.57,10.57,0,0,0-1.8-1,7,7,0,0,1,.76-1.46c.39-.54,1.06-1.35,1.55-1.45.32-.06.49.18.6.49a15.71,15.71,0,0,1,.44,2.73,10.75,10.75,0,0,0,.39,3.23.52.52,0,0,0,.11.19c.76.88.84,2.26,1,3.71a.59.59,0,0,0-.6.71c0,.28,0,.55,0,.82s-.43.07-.47.35-.08.39-.13.62c-.42-.35-.76-.32-1,.18a3.7,3.7,0,0,1-2.14,2.3,1,1,0,0,1-.42.09,16,16,0,0,1-5-.31,1,1,0,0,1-.36-.12,8,8,0,0,1-2.15-1.7c-1.3-1.72-.2-3.13-1.51-2.67,0-.22,0-.41,0-.61s.05-.68-.44-.74C56.7,54.57,57.25,55,57.68,53.62Zm-26,34.74a12.59,12.59,0,0,1-3-3.78c.38,0,.7.17,1,0,.07,0,.25.12.39.19a.55.55,0,0,0,.11-.71l.93.38a.56.56,0,0,0,.78-.6,5.68,5.68,0,0,0-.22-.7c.2,0,.4.06.6.11s.66-.2-.06-.6l-.71-.35c-.27-.13-.42,0-.45.28a3.8,3.8,0,0,0,.23,1.21,1.07,1.07,0,0,1-.73-.34.51.51,0,0,0-.74-.08c-.07-.15-.15-.3-.23-.45a.18.18,0,0,0-.33.06,2.75,2.75,0,0,0,.3,1.27,3.31,3.31,0,0,1-1-.41,1.51,1.51,0,0,1-.84-1.09c-.43-1.66-1.14-3.24-.7-5.47a14,14,0,0,1,2.28-5.22c.74-1.09,2.25-2.25,3.52-3.83s1-2.16.94-3.52c0-2.22-.25-2.88.65-5.14a13.51,13.51,0,0,1,7.14-7.44c1.94-.8,2.88-.6,3.06-.85s.62-.29,1-.27a5.59,5.59,0,0,1,.82.12.66.66,0,0,0,.7-.19c.16-.18.36-.12.55-.09a29.91,29.91,0,0,0,3.23.35,17.8,17.8,0,0,1,3,.51,19.41,19.41,0,0,1,2.9,1.09c.37.15.52.37.43.67a5.62,5.62,0,0,1-.83,1.2,7.17,7.17,0,0,0-1,2.49,2.49,2.49,0,0,0,0,.61c0,.08,0,.23.1.24.4.1.36.45.44.73.13.51.15.53.75.66a4.42,4.42,0,0,0,1.77,3.18c-.8.14-2.73.43-3,.48a.17.17,0,0,1-.24-.14,1.32,1.32,0,0,1,0-.44c0-1.49.11-1.65-.45-1.35a.16.16,0,0,0-.07.09,3.18,3.18,0,0,0,.18,2.31c.41.58,1.05.74,2.55,1.91,2.08,1.62,1.84,6.32.58,7a6.67,6.67,0,0,0,.1-1c0-.08-.08-.22-.12-.22a.43.43,0,0,0-.28.13,6.29,6.29,0,0,0-.39,1.18l-.13,0c-.62-.18-.61-.17-.42-.79a2,2,0,0,0,.09-.7c0-.07-.14-.2-.2-.19a.39.39,0,0,0-.28.2,3.07,3.07,0,0,0-.14.52c-.05.16-.11.31-.17.49-.4,0-.47-.35-.5-.62a8,8,0,0,1,0-1.38A3.11,3.11,0,0,0,53.33,67a11.61,11.61,0,0,0-4.24-.77c-.45-.06-.9-.18-1.36-.27A8.38,8.38,0,0,0,46.53,60,5.53,5.53,0,0,0,44,58.54a2.48,2.48,0,0,0-1.21,0c-.15,0-.27.11-.23.31s.16.3.4.29a3.83,3.83,0,0,1,2.44.74,2,2,0,0,1,.84.86,8,8,0,0,1,.9,3.21,8.64,8.64,0,0,1-1.09,4.47c-.38.78-.9,1.47-1.34,2.21a2.43,2.43,0,0,1-.33.38.89.89,0,0,0,0,1.32,1.6,1.6,0,0,0,.44.42,8.4,8.4,0,0,1,2,1.92,3,3,0,0,1,.74,2.46,1.21,1.21,0,0,1-.24-.21c-.11-.15-.23-.3-.4-.19s0,.88.08,1.38.07.38-1,.69c0-.21,0-.38.07-.55a1.69,1.69,0,0,0-.07-.92.27.27,0,0,0-.33-.19h0c-.27.19-.16.54-.19.91a2.43,2.43,0,0,1-.08.47l-.15,0a4.75,4.75,0,0,1-.48-.85,5.46,5.46,0,0,0-1.52-2.27c-1.57-1.43-1.14-1.35-4.12-2.82a2.58,2.58,0,0,1-1.19-1,3.21,3.21,0,0,1-.7-2.59,2.53,2.53,0,0,0-.38-1.89.44.44,0,0,0-.3-.19c-.16,0-.24.16-.2.33.11.71.37.92.18,1.49a2.17,2.17,0,0,0,0,1.26,1,1,0,0,1-.19,1c-.6.73-1.18,1.47-1.76,2.21a5.46,5.46,0,0,0-1.26,2.43c-.42,2.33-1.11,3.78-.08,5.48l.28.44c-.15,0-.31.06-.4.15s0,.23-.06.44l-.5-.7a.23.23,0,0,0-.23-.09.23.23,0,0,0-.19.15.53.53,0,0,0,.07.45,2.09,2.09,0,0,0,1.14,1c.09-.15.18-.28.27-.42.27.1.5.27.8.13s.82.56,1.79,1.14a5.75,5.75,0,0,1,1.81,2,1.86,1.86,0,0,1,.24.72c.45,2.86-2.72,4.23-5.07,2.8A7.79,7.79,0,0,1,31.67,88.36Zm-.92,17.38a11.84,11.84,0,0,1,.29-3.46c.16-.64.89-5.3,1-5.93a37.61,37.61,0,0,0,.08-4.64c0-.72.15-1.38.23-2.12.24.12.48.24.72.38a7,7,0,0,0,1.71.6,1.2,1.2,0,0,0,.38,0c.11,0,.24-.08.33,0,.56.26,1-.1,1.45-.31a3.13,3.13,0,0,0,1.91-2.28c.36-2-.33-2.67-1.11-3.72-.95-1.26-2.76-1.56-3.86-3.34a3.26,3.26,0,0,1-.5-2.39A30,30,0,0,1,34,75.33c.39-1.1,1-1.67,2.53-3.67.16-.22.19-.3.33-.51,1.54,2.39,1.22,1.45,4.42,3.42a11.89,11.89,0,0,1,1.37,1.2,1.14,1.14,0,0,0,.15.16,4.31,4.31,0,0,1,1.42,2.2,2.08,2.08,0,0,0,2.6,1.17,2,2,0,0,0,1.33-1.72,4.23,4.23,0,0,0-1.26-3.84c-.27-.28-.52-.58-.79-.86a2.72,2.72,0,0,0-.84-.6c-.58-.4-.6-.53-.16-1.08a15.93,15.93,0,0,0,2.25-4.13,2.67,2.67,0,0,0,.09-.26.24.24,0,0,1,.34-.19,16.07,16.07,0,0,0,2.85.37,12.77,12.77,0,0,0-.16,2.44A21.71,21.71,0,0,1,50,74c-.09.43-.25,4-.49,5.63A30.07,30.07,0,0,1,49,82.78a9.64,9.64,0,0,0-.11,1.87,50.38,50.38,0,0,1-.54,6.42c0,.26-.4,4.73-.4,5.05a51.53,51.53,0,0,1-.24,7.1c-.08.64-.31,1.26-.44,1.89-.67,3.39-.46,5.73-.67,9.56-.14,2.66,0,1.07-1.09,6.77a.62.62,0,0,1-.63.58,45.67,45.67,0,0,1-5.91,0l-.25-.08c0-.11-.19-3.86-.23-4.84-.14-3.85.32-7.67-2.76-9.69A14.41,14.41,0,0,0,30.75,105.74Zm-21.29,8.9a35.76,35.76,0,0,1,4.86-3.33,22.9,22.9,0,0,0,2.21-1.26,31.5,31.5,0,0,1,5.16-2.89c5.09-1.7,14.63-1.37,15.76,3.88.47,2.07.18,1.89.57,9.18.06,1.3.26,1.68-.14,2.28-.67,1-1.32,2.09-2,3.13-2.64,4.16-1.92,2.76-3.19,4.65-.78,1.14-2.82,4.31-3.1,4.73,0,0-.08-.07-.08-.09a10.13,10.13,0,0,0,0-2.06c0-.9.12-1.8.19-2.7a22.09,22.09,0,0,0,.15-5,7.22,7.22,0,0,1,.08-.8c0-.62,0-3.07,0-3.68,0-1.5-1.27-3.38-2-4.58a.34.34,0,0,0-.12-.12,12.06,12.06,0,0,0-2.37-1.41,7.19,7.19,0,0,0-1.51-.35,19.61,19.61,0,0,0-2.86-.36c-1.88-.06-2.45-.41-4.51-.23H16a20.32,20.32,0,0,0-7.35,2A5.06,5.06,0,0,1,9.46,114.64ZM6.05,130.86c-.65-3.35-.07-5.8-.22-8.18a8,8,0,0,1,.8-3.85,5.52,5.52,0,0,1,2.3-2.59,14.4,14.4,0,0,1,3.8-1.47,18.47,18.47,0,0,1,6.49-.41c.29,0,.6,0,.89,0a22.29,22.29,0,0,1,5.2.78,13,13,0,0,1,1.54.86,2.69,2.69,0,0,1,.95,1,11.14,11.14,0,0,1,1.31,2.74,10,10,0,0,1,.2,2.62h0c0,.77-.11,1.55-.13,2.32,0,.53.09,1.06.08,1.59,0,.83-.41,6.13-.41,6.73a8.25,8.25,0,0,1-.14,2.68c-.4,1.06-1.12.5-3.38.73-1.05.11-2.11,0-3.15.07-2,.06-.62-.22-6.37-.14-1.35,0-2.51-.1-7.16-.3A3.35,3.35,0,0,1,7,135.34c-.34-.31-.12-.56-.49-1.37a.71.71,0,0,1-.07-.32A13.11,13.11,0,0,0,6.05,130.86Zm12.35,45.6c-1.84-.08-3.69-.09-5.53-.14a2.85,2.85,0,0,1-.65-.11,1.13,1.13,0,0,1-.76-.93c-.19-.69-.35-1.39-.51-2.09a3,3,0,0,1-.07-.66c0-.3.09-.4.4-.43.1,0-.94,0,8.2.09a2.12,2.12,0,0,1,1.13.29C19.82,175.39,19.78,176.52,18.4,176.46ZM175.26,176c-.5.88-7,.25-7.06.25a1.29,1.29,0,0,1-1-1c-.16-.79-.36-1.58-.55-2.36-.05-.13-.1-.27-.16-.39a1.24,1.24,0,0,1,.38-.09c3.54,0,7.33,0,8.51,0,.31,0,.61,0,1,.09C175.66,175.23,175.65,175.43,175.26,176Zm2.59-5.29c-5.4.24-27.1.07-119.84.07-41.91,0-41.6.2-47.92-.14-4.35-.22-3.44-4.08-3.56-9.37-.35-15.5,0-9.56-.09-18.05,0-3.95-.29-6.33.51-7.14.65.38.93.62,1.46.6a41.94,41.94,0,0,0,5.44.18c.49,0,1,0,1.48.07,11.93.5,7.92.19,11.87.15,3.09,0,3.42.13,7.4-.08,1.34-.24.34-.68.16-.67-.91,0-2.49,0-3.39,0-1.4,0-1.53.12-1.91,0,3.78-5.88,2.5-3.93,5.43-8.06.23-.32.46-.63.66-1,.88-1.46,2-2.8,2.69-4.34.33-.71.88-.42,4.79-.29a3.28,3.28,0,0,0,.83,0c.25-.07.48.16.74,0s.27.1.19.28a20.82,20.82,0,0,1-2,3c-.33.44-.57,1-.86,1.42-.71,1.13-2.14,3.28-2.85,4.54A33.23,33.23,0,0,1,37,135.8a4,4,0,0,0-.88,3.08c0,1,.06,2.06.13,3.09,0,.69.26,1.38.29,2.08.1,2.77-.31,3.35-.19,6.16.11,1.66.69,4.62,1,6.45a1.28,1.28,0,0,0,1,1.09l.27.08c-.5,2.08-.82,3-.57,4.44,0,.19,0,.45.34.42s.22-.3.23-.48a9.19,9.19,0,0,1,0-1.1c.13-.71.28-1.41.41-2.11a6.23,6.23,0,0,1,.42-1.19l.66.12c-.57,1.25-.31,3.19-.21,4.58,0,.13,0,.26.19.29s.34-.28.31-.54c0-3.94,0-4.37,1.12-4.45,0,.46.13.91.16,1.37.18,2.9,0,3,.41,3.49.28-.06.36-.24.36-.52,0-.89,0-1.78,0-2.67-.06-.71-.11-.71-.23-1.75h2.26v3.83c0,.16,0,.33,0,.49s.08.31.3.29.25-.13.26-.29c.07-1.35.11-1.42.17-4.1,0-.17.06-.29.25-.28l1.49.06a14.59,14.59,0,0,1,.18,2.64c0,.58.15,1.14.23,1.71,0,.17.08.28.28.26s.25-.15.26-.3a27.93,27.93,0,0,0-.21-4.32c.59,0,1.18,0,1.76,0,.21,0,.21.16.24.32.39,2.74.12,3.34.28,3.9.11.23.46.4.51,0a12.5,12.5,0,0,0-.12-4c-.07-.26,0-.32.3-.39l.38-.08c.66-.08.72,0,.78.61s.16,1.47.2,2.21c0,1.07-.26,1.38.12,2a.43.43,0,0,0,.32.16c.18,0,.06-.17.1-.25a2.81,2.81,0,0,0,.19-1.64c0-.89-.17-1.77-.27-2.65-.06-.53-.11-.44,1.75-.59a30.37,30.37,0,0,0,.26,4.6.42.42,0,0,0,.06.21c.08.09.19.21.29.21.51-.14.23-.87.09-4.61,0-.11,0-.22,0-.36h1.58c0,1.14.06,3.09.12,4a5.6,5.6,0,0,0,.26,1.13c0,.07.13.17.19.16a.34.34,0,0,0,.26-.14,1.24,1.24,0,0,0,.07-.54c-.19-1.47-.12-3-.24-4.43a.59.59,0,0,1,0-.14c.5-.19,1,0,1.49,0,.18,1.76,0,1.68.39,4.45.07.53.69.67.67.2,0-.3,0-.59,0-.89-.29-3.65-.32-3.44-.26-3.72a3,3,0,0,1,1.4-.06c.67.16.33-.07.49,2.52,0,.7.13,1.4.2,2.1a1.31,1.31,0,0,0,.1.32.3.3,0,0,0,.39.21c.38-.09.12-.35-.07-4.77a1.36,1.36,0,0,1,0-.29c.44-.06.88-.1,1.32-.17.2,0,.28.1.29.25a6.79,6.79,0,0,1,0,.78c0,4,0,2.8.13,4.22,0,.2.31.49.51.39a.42.42,0,0,0,.21-.47c-.22-1.06,0-.75-.24-5.27h1.34c.35,2.39.4,3.38,1,4.59.1.19.19.31.41.26a.48.48,0,0,0,.22-.52c0-.14-.13-.27-.18-.4a18,18,0,0,1-.78-3.61c-.08-.51,0-.45,1-.45.27,1.38.85,4.29.87,4.39.07.43,0,.59.68.29a26.3,26.3,0,0,0-.88-4.65h1.51c.21.86.43,1.71.6,2.57s.14,1.71.21,2.15.74.4.69,0a16.59,16.59,0,0,0-.73-4.32,1.13,1.13,0,0,1,0-.32c.48.05.94.08,1.39.15a.41.41,0,0,1,.24.27,29.17,29.17,0,0,1,.81,4.83.44.44,0,0,0,.08.25c.09.08.22.19.31.17s.21-.14.25-.25a.58.58,0,0,0,0-.32,25,25,0,0,0-.7-4.48,2,2,0,0,1-.06-.3l2.29.27c-.39,3.22-.56,3.82-.09,4.79a.35.35,0,0,0,.23.18c.08,0,.35-.32.27-.69a7.71,7.71,0,0,1,0-2.35c.1-.62.14-1.25.21-1.91h1a1.51,1.51,0,0,1,0,.73,17.8,17.8,0,0,0,0,2.53,3.68,3.68,0,0,0,.19.81c.11.27.42.47.6.24a.6.6,0,0,0,0-.42,5.8,5.8,0,0,1-.2-2.19c0-.45,0-.89,0-1.34s0-.35.36-.33l1.12,0c.61,3.8.54,3.74.75,4a.38.38,0,0,0,.33.11.39.39,0,0,0,.21-.27,1.57,1.57,0,0,0,0-.43c-.09-.55-.56-3.34-.6-3.53a6.78,6.78,0,0,0,1-.11c.42-.11.59.13.7.43a16.94,16.94,0,0,1,.77,3.55c.07.37.27,1.06.62.86a.39.39,0,0,0,.19-.51,7.78,7.78,0,0,1-.17-.81,17.89,17.89,0,0,0-.77-3.53,11.23,11.23,0,0,1,1.74,0,38.69,38.69,0,0,1,0,3.9,1.19,1.19,0,0,0,.11.42c0,.08.16.2.22.18a.56.56,0,0,0,.29-.21s0-.14,0-.21a28.86,28.86,0,0,0,.07-4c.24-.17.52,0,.77,0,.55,3.41.5,3.32.8,4a.35.35,0,0,0,.42.25h0c.17,0,.26-.21.2-.45a17.51,17.51,0,0,1-.7-3.78h1.65c.35,0,.21.22.36,1.67.07.66.15,1.31.23,2,0,.15.07.31.27.29s.37-.16.35-.52c-.08-.83-.31-3.09-.35-3.43l1.17-.09a.31.31,0,0,1,.36.31c.43,4.44.38,4.16.49,4.35a.28.28,0,0,0,.51-.06c.1-.27.11-.08-.29-4.58h1.77s0,0,0,.07a38,38,0,0,0-.16,4c0,.21.26.42.42.38.36-.07.24-.7.28-1.41.06-.88.06-1.75,0-2.62a4.07,4.07,0,0,1,0-.47h1.2c-.11,4.74-.22,4.67,0,5s.47,0,.48-.28c0-.81.1-1.63.13-2.44.07-2.27-.22-2.27.51-2.27a1.07,1.07,0,0,1,.25,0,24.37,24.37,0,0,0,.89,3.8.46.46,0,0,0,.6.38c.08,0,.14-.21.15-.32s-.07-.21-.11-.31a22.29,22.29,0,0,1-.76-3.23,3,3,0,0,1,0-.42c1.06-.09,1-.18,1.07.32a21.5,21.5,0,0,0,.58,3.33c.06.19.18.34.4.29s.24-.26.24-.45-.52-3-.56-3.44c0-.2.07-.28.26-.25a9.4,9.4,0,0,1,.92.2.59.59,0,0,1,.26.32c.89,2.79.7,3.3,1,3.32s.42-.26.37-.53c-.18-.81-.61-2.64-.64-2.76.39-.15.73.12,1.15.07,0,.36.44,3.23.52,3.57a.28.28,0,0,0,.41.24.24.24,0,0,0,.18-.29c-.09-.94,0-.58-.45-3.25l.54.09a33.89,33.89,0,0,1,1,3.9.41.41,0,0,0,.18.56.42.42,0,0,0,.52-.63c-.5-2-.41-1.89-.92-3.79a3.59,3.59,0,0,1,1.45-.14c1,2.93.52,4.44,1.19,4.31.2,0,.28-.18.25-.48a22.41,22.41,0,0,0-.67-3.83h2.07a1.1,1.1,0,0,1,0,.26,11.78,11.78,0,0,0-.55,3.16,3.12,3.12,0,0,0,0,1.52.39.39,0,0,0,.3.18c.06,0,.16-.12.2-.21.31-.71,0-2.43.65-4.25.24-.72.28-.75,1.14-.64.29,3.71.27,3.9.52,4.46.07.2.25.2.42.14s.15-.16.13-.31l-.39-3.84c0-.16,0-.33,0-.52l1.29-.09a33.32,33.32,0,0,1,.52,5,.65.65,0,0,0,.16.38.32.32,0,0,0,.48-.27,21.3,21.3,0,0,0-.49-4.85c0-.18,0-.25.2-.25.34,0,.67,0,1,0s.2.13.24.26c.21.72.44,1.44.62,2.17.3,1.14.18,1.86.71,1.89a.39.39,0,0,0,.26-.24,1.16,1.16,0,0,0,0-.49c-.7-3.7-.85-2.87-.85-3.59.42,0,.8,0,1.17.1.11,0,.24.18.29.3a15.63,15.63,0,0,1,.57,1.67c.18.72.47,2.37.48,2.49a.33.33,0,0,0,.38.32.3.3,0,0,0,.28-.39,13,13,0,0,0-1.11-4.49h1.49c.16,0,.24.08.3.25a15.31,15.31,0,0,1,.65,3.93.55.55,0,0,0,.37.55.49.49,0,0,0,.28-.56,19.91,19.91,0,0,0-.61-4h2c.17,0,.19.12.17.28,0,.33-.33,2.73-.35,3.33a5.62,5.62,0,0,0,.18,1.15.26.26,0,0,0,.28.25.37.37,0,0,0,.36-.43,11.1,11.1,0,0,1,.12-3.45,2.51,2.51,0,0,1,.18-1l.22,0c.5,0,.51,0,.54.56.16,3,.15,3.31.42,4.14a.27.27,0,0,0,.38.21.46.46,0,0,0,.2-.35,38.85,38.85,0,0,1-.35-4.4,2,2,0,0,0,.34,0,.47.47,0,0,1,.54.38,17.16,17.16,0,0,1,.81,4.41c0,.16,0,.35.27.33a.33.33,0,0,0,.36-.39,13.66,13.66,0,0,0-.75-4.47,1.41,1.41,0,0,1,0-.2c.34,0,.66.05,1,.1.06,0,.14.11.18.18a11.62,11.62,0,0,1,1.34,3.56c0,.11,0,.22,0,.33.06.4.7.46.64-.06a10.52,10.52,0,0,0-.2-1.37,14.32,14.32,0,0,0-1.12-2.63c.86,0,1.15-.2,1.46.57a22.17,22.17,0,0,1,1.12,3.81c0,.09.06.18.07.27s.19.3.39.28.29-.18.26-.42a19.66,19.66,0,0,0-.94-3.59c-.11-.29-.23-.57-.38-.93a8.58,8.58,0,0,1,1.6.14c.25,0,.24.92.9,3.95,0,.24.21.65.44.52a.64.64,0,0,0,.27-.38,1.32,1.32,0,0,0-.08-.44c-.67-3.67-.5-2.79-.66-3.52a.75.75,0,0,1,.18-.08c.27,0,.62-.13.79,0s.19.49.25.76c.2.88.7,3.46,1,3.6a1.05,1.05,0,0,0,.49.13.62.62,0,0,0,.1-.38c0-.17-.15-.33-.2-.51-.16-.64-.8-3.41-.85-3.6.23-.2.47-.09.7-.09s.13.06,1,2.6c.21.67.44,1.33.68,2a.67.67,0,0,0,.2.31.34.34,0,0,0,.52-.39,29.56,29.56,0,0,1-1.29-3.72s0-.07,0-.11-.15-.37-.11-.51.35-.16.54-.16c.41,0,.81,0,1.27,0,0,.36-.08.67-.09,1a8.63,8.63,0,0,0,.44,3.23,1.94,1.94,0,0,0,.31.44.52.52,0,0,0,.24-.66,9.62,9.62,0,0,1-.29-4l.78-.12a14.74,14.74,0,0,1,1.07,3.82c.15.65.69.24.62-.18a19.79,19.79,0,0,0-1-3.63c.69-.24.85-.14,1.09.44,1.1,2.76,1.09,3.79,1.38,4.38.15.3.63.18.59-.12a2,2,0,0,0,0-.34,25.9,25.9,0,0,0-1.4-4.38.73.73,0,0,1,.41-.12,4.21,4.21,0,0,1,.6.11.38.38,0,0,1,.21.22c1.37,3.36,1.23,3.67,1.51,3.54a.54.54,0,0,0,.24-.71c-1.1-3.12-1.05-2.9-1.15-3,1.42,0,1.31-.08,1.55.38a11.87,11.87,0,0,1,1.16,3.39c0,.27.22.29.4.29s.26-.2.26-.35a2.5,2.5,0,0,0-.09-.66,17,17,0,0,0-1.06-3l1-.08a14.58,14.58,0,0,1,1.52,4.2c.06.33.09.67.39.64s.28-.45.25-.69a14.3,14.3,0,0,0-1.37-4.06c.22-.23.5-.13.75-.15s.55,0,.83,0c.1.71,0,.12.65,3.68a.46.46,0,0,0,.37.45.25.25,0,0,0,.27-.29c0-.47-.08-.67-.65-3.9l.73-.06c.67,3.22.74,3.77,1,4a.23.23,0,0,0,.39-.13,1.11,1.11,0,0,0,0-.48c-.79-3.76-.82-3.1-.68-4.62.25-2.37-.16-2.87-.12-4.57.06-5.23.15-3.51,0-5.8a27.6,27.6,0,0,1-.13-4.73c0-.5.13-1.19.14-1.47,0-3.56-.1-3.56.06-4,2.45-8.6,1-4.22,3-11.32.19-.69.34-1.39.51-2.13h4.64c-.06,6.1-.1,7.52.27,9,.56,2.23,0,1.58.79,4.16.1.34.18.43.75.89-.48,0-.88,0-1.29,0-.57,0-4.92-.34-5.57-.36a5.9,5.9,0,0,0-.84,0c-.14,0-.34,0-.35.2a.37.37,0,0,0,.29.41c.89.23,1.15.27,6.49.42a7.06,7.06,0,0,0,2.05-.09,9.43,9.43,0,0,1,1.42.09c6.46.45,14,.43,15.36.32.58-.05,4-.05,4.14,0s.34,19.58.34,19.59C181.23,169.25,181.52,170.59,177.85,170.75ZM188.66,165c-.41,2.64-.48,2.71-1.55,2.8-.89.07-1.79.08-2.69.11l-.24,0a8.13,8.13,0,0,1,1.3-1.45c2.37-2.26,1.2-1.71,3.29-2.5C188.73,164.34,188.71,164.69,188.66,165Zm-.52-2.18c-4,4.2-2.52,2.25-5,5.21a17,17,0,0,1-1.53,1.53,3.89,3.89,0,0,1-.58.35,7.47,7.47,0,0,0,.68-3c0-.63,0-8.25,0-8.6.13-5.32-.3-10.45-.24-12.71.24-7.87-.2-5.69-.08-7.87a1,1,0,0,1,.16-.4l4.09-6.15c.15-.24.31-.36.37-.33.29.12-2,3.37-2.19,5a2.84,2.84,0,0,0,3.08,3.16,2,2,0,0,0,1.19-.41c1.17-.94.94-1.32,1.65-1.8,0,1.86,0,13.36.34,22.05C190.18,160.58,189.23,161.71,188.14,162.86Zm-6.08-35.94c-.08-.75.06-1.62.12-4.34a6.91,6.91,0,0,1,1.66-.36c2.53-.44,5.09-1.16,5.91-3a7.79,7.79,0,0,1,.15.92,6.91,6.91,0,0,1-.23,2.2c-.94,3.37-.59,3-3.13,6.68-.56.82-1.19,1.59-1.75,2.42-.77,1.14-2.81,4.3-3.12,4.76a25.51,25.51,0,0,1,.12-4.29A38.63,38.63,0,0,0,182.06,126.92Zm5.74,11.13a1.46,1.46,0,0,1-1.3.32,2.18,2.18,0,0,1-2-2.37c.2-1.38.79-2,1.39-3.28l-.19.91c-.08.4.26.37.35.31a5.71,5.71,0,0,0,1.09-.94,3.87,3.87,0,0,0-.4,1.36.17.17,0,0,0,.26.15c.55-.39,1.08-.8,1.6-1.24a9.52,9.52,0,0,0-.34,1.07c0,.14.23.35.36.25,1.66-1.42,1.21-1.53.75-.07-.1.31.13.51.43.46a5.67,5.67,0,0,0,.57-.1C190.16,135.16,188.31,137.57,187.8,138.05Zm6.33-18.54c-.18,7.29-.44,5.35-.76,7.85a20.34,20.34,0,0,1-2.28,6.07,7.93,7.93,0,0,1-.49,1c-.4.08-.72.16-.78.06s.2-.55.76-1.89c.1-.23-.28-.21-.41-.07a16.55,16.55,0,0,1-1.43,1.35c.17-.39.32-.78.45-1.18.35-1-1,.45-2,1.15a4.1,4.1,0,0,0,.34-1.41c0-.34-.26-.19-.55.12s-.57.52-.85.81a12.17,12.17,0,0,0,.22-1.73c1.44-3,2.76-4.18,3.62-8a9.55,9.55,0,0,0,.51-4.2c-.08-.83-.36-1.25,0-1.79a5.94,5.94,0,0,1,1.35-2,1.54,1.54,0,0,0,.31-.75.3.3,0,0,0-.14-.25c-.14,0-.36,0-.42.16-.26.64-.86.8-1.42,2-.36.72-.68,1.47-1,2.19-1.05,2.19-6.27,2.64-7.41,2.91a4.14,4.14,0,0,0-1.91,1.08c-.43.41-.87.8-1.32,1.19a1.62,1.62,0,0,1-1,.43c.11-.48.51-.91.56-1.22s-.06-.41-.35-.3-.68,1.13-.76,1.49a2.39,2.39,0,0,1-.7-.28c0-.58.5-1.07.58-1.42s-.06-.41-.31-.3-.62,1-.73,1.33a1,1,0,0,1-.11-.74,4,4,0,0,1,1.91-2.78c.9-.55,2.31-1.27,3.21-1.85a1,1,0,0,0,.16-1.08c-1.15-2.59-1.42-2.88-1.43-3.8a7.07,7.07,0,0,1,1.16-4,7.48,7.48,0,0,1,1.38-1.43,7.31,7.31,0,0,1,4.2-1.76c0-.53,0-.61-.44-.55a7.79,7.79,0,0,0-6.91,8.5c.06.41.14.49,1.25,2.94H178.5c.37-1.14-.26-1-.51-.49a4.7,4.7,0,0,1-.84,1.35c-2,1.79-3,1.61-5.82,2.08-2.56.43-2.78,1.49-3.14,2.33a.9.9,0,0,1-1.08.56c0-.3,0-.6,0-.9s0-.46-.23-.49-.31.24-.34.42,0,.62,0,.92a1.76,1.76,0,0,1-.46,0c-.47-.12-.44-1-.51-1.29a.47.47,0,0,0-.2-.28c-.18,0-.28.1-.31.25a3.18,3.18,0,0,0,.06,1c-1.31-1.3-.57-3.49,1-4.43a23.14,23.14,0,0,0,4.44-4,5.19,5.19,0,0,0,1.5-3.24.16.16,0,0,0-.29-.07,10.6,10.6,0,0,1-1.36,2.53l-.15.16h-.1c0-.12.1-.29.17-.47a6.19,6.19,0,0,0,.16-3.95,8.65,8.65,0,0,1-.22-1c-.12-.49-.24-1-.4-1.44A8.88,8.88,0,0,0,167.9,104a.84.84,0,0,1-.07-.24,2.32,2.32,0,0,0,1.21-.47c6.79-4.54,8-4.15,9.84-4.78a13.68,13.68,0,0,1,6.13-.19,9.46,9.46,0,0,1,4.72,2.79,22.12,22.12,0,0,1,2.74,3.73,15.15,15.15,0,0,1,1.8,6.54C194.31,112.08,194.13,119.49,194.13,119.51Z" fill="#000000"></path></g></svg>